<?xml version="1.0" encoding="UTF-8" standalone="no"?>
<!-- Created with Inkscape (http://www.inkscape.org/) -->

<svg
   width="250.24921mm"
   height="518.94476mm"
   viewBox="0 0 250.24921 518.94476"
   version="1.1"
   id="svg864"
   inkscape:version="1.3.1 (9b9bdc1480, 2023-11-25, custom)"
   sodipodi:docname="dmark.svg"
   xmlns:inkscape="http://www.inkscape.org/namespaces/inkscape"
   xmlns:sodipodi="http://sodipodi.sourceforge.net/DTD/sodipodi-0.dtd"
   xmlns="http://www.w3.org/2000/svg"
   xmlns:svg="http://www.w3.org/2000/svg"
   xmlns:rdf="http://www.w3.org/1999/02/22-rdf-syntax-ns#"
   xmlns:cc="http://creativecommons.org/ns#"
   xmlns:dc="http://purl.org/dc/elements/1.1/">
  <defs
     id="defs858" />
  <sodipodi:namedview
     id="base"
     pagecolor="#ffffff"
     bordercolor="#666666"
     borderopacity="1.0"
     inkscape:pageopacity="0.0"
     inkscape:pageshadow="2"
     inkscape:zoom="0.24748737"
     inkscape:cx="1004.0916"
     inkscape:cy="1329.3608"
     inkscape:document-units="mm"
     inkscape:current-layer="layer1"
     showgrid="false"
     fit-margin-top="0"
     fit-margin-left="0"
     fit-margin-right="0"
     fit-margin-bottom="0"
     inkscape:window-width="1462"
     inkscape:window-height="1196"
     inkscape:window-x="687"
     inkscape:window-y="483"
     inkscape:window-maximized="0"
     inkscape:showpageshadow="0"
     inkscape:pagecheckerboard="1"
     inkscape:deskcolor="#d1d1d1" />
  <metadata
     id="metadata861">
    <rdf:RDF>
      <cc:Work
         rdf:about="">
        <dc:format>image/svg+xml</dc:format>
        <dc:type
           rdf:resource="http://purl.org/dc/dcmitype/StillImage" />
      </cc:Work>
    </rdf:RDF>
  </metadata>
  <g
     inkscape:label="Layer 1"
     inkscape:groupmode="layer"
     id="layer1"
     transform="translate(312.26054,142.49361)">
    <path
       style="fill:#282c34;fill-opacity:1;stroke-width:0.182849"
       d="m -273.52209,-122.94387 c 0.0498,-0.13027 0.2326,-0.36707 0.40613,-0.52616 0.23266,-0.21336 0.30892,-0.75769 0.2907,-2.0748 l -0.0248,-1.78557 2.07094,-0.0725 c 1.62709,-0.057 2.18068,-0.13485 2.5833,-0.36313 0.43642,-0.24758 1.02111,-0.30826 3.94538,-0.41092 4.90695,-0.1719 5.58879,0.0299 5.35754,1.58602 -0.135,0.90832 0.23375,2.07192 0.86882,2.74189 0.26861,0.28321 1.04479,0.75532 1.72498,1.04905 1.04569,0.45153 1.32327,0.67085 1.79757,1.42066 0.3085,0.4877 1.03098,1.37394 1.60562,1.96945 1.70708,1.76937 2.64281,3.15168 2.96911,4.38628 0.47038,1.77883 1.11857,2.20818 2.98964,1.97955 l 1.10812,-0.13537 0.56002,0.83576 c 0.30803,0.45966 1.46966,1.78342 2.58126,2.94169 1.83376,1.91064 2.24515,2.40894 2.67644,3.24152 0.0764,0.14668 0.61072,0.40921 1.18819,0.58319 1.03832,0.31279 1.0513,0.32534 1.16908,1.12794 0.13705,0.93338 0.48742,1.23367 2.7389,2.34761 1.57359,0.77846 2.78351,1.71962 4.11157,3.198189 1.0295,1.14619 1.53969,1.49184 2.40123,1.62688 0.34654,0.0543 0.77247,0.28815 0.98498,0.5408 0.4846,0.5759 1.55573,0.91528 3.1193,0.98829 l 1.25066,0.0584 0.0817,1.22361 0.0816,1.223548 0.96554,-0.03384 0.96565,-0.03382 0.0881,1.321413 0.0882,1.32134 1.07286,-0.03761 1.07289,-0.03757 0.0881,1.321409 c 0.0714,1.070939 0.14916,1.319227 0.41025,1.310113 0.26444,-0.0095 0.34024,0.265112 0.42581,1.543201 l 0.10371,1.554573 1.07287,-0.03759 1.07279,-0.03756 0.0831,1.243622 0.083,1.243683 0.96551,-0.03381 0.96557,-0.03384 0.0934,1.399156 0.0934,1.399065 0.85821,-0.03003 0.85832,-0.03011 0.0882,1.3214 0.0881,1.32139 1.07281,-0.03759 1.07288,-0.03759 0.083,1.243668 0.083,1.243638 1.1801,-0.04134 1.18018,-0.04135 0.083,1.243638 0.083,1.243727 1.07282,-0.03764 1.07287,-0.0376 0.0881,1.321412 0.0882,1.321395 0.75097,-0.02632 c 0.65805,-0.02304 0.75421,0.02182 0.77697,0.362351 0.0235,0.353178 -0.0572,0.391795 -0.88588,0.422977 -1.40562,0.05277 -1.56091,0.202117 -0.97813,0.939448 0.61724,0.780936 0.62059,0.88156 0.0337,1.022099 -0.41401,0.09894 -0.29482,0.177183 0.91003,0.596473 1.9681,0.68486 2.02823,0.730811 2.08581,1.593941 l 0.0506,0.758235 0.75097,-0.02632 0.75108,-0.02628 0.0933,1.399077 0.0934,1.399158 0.75102,-0.02634 0.75097,-0.02628 0.0934,1.399062 0.0934,1.399131 0.96554,-0.03381 0.96555,-0.03381 0.0927,1.388738 0.0926,1.38881 0.59337,0.02851 c 0.57949,0.02786 0.59991,0.05999 0.87761,1.382007 l 0.28429,1.353459 0.62205,-0.02181 c 0.50701,-0.01775 0.68621,0.07591 0.96894,0.506422 0.19084,0.290549 0.3701,0.875598 0.39828,1.300207 0.0486,0.726561 0.0865,0.773584 0.64491,0.80045 0.58792,0.0283 0.59467,0.04022 0.74134,1.308874 l 0.14782,1.280343 0.74235,-0.02606 0.74227,-0.02598 0.0986,1.476811 0.0986,1.476866 0.85821,-0.03009 0.8583,-0.03004 0.0933,1.399065 0.0934,1.399152 0.96551,-0.0338 0.96562,-0.03382 0.0882,1.321318 0.0881,1.32141 0.64374,-0.02257 0.64368,-0.0225 0.0933,1.399082 0.0935,1.399135 0.61859,-0.02166 c 0.755,-0.02645 0.89309,0.220948 1.0023,1.79576 l 0.0784,1.126914 0.64366,-0.02255 0.64378,-0.02251 0.0933,1.399078 c 0.0927,1.388738 0.0975,1.399003 0.62979,1.380344 0.53454,-0.01871 0.53677,-0.01349 0.63502,1.458037 l 0.0985,1.476839 0.84992,-0.02975 0.84992,-0.02977 0.15282,1.358078 0.1528,1.35802 1.02237,0.01167 1.02238,0.01164 0.38849,5.821129 c 0.38154,5.717485 0.39576,5.820881 0.81763,5.80609 0.3973,-0.01389 0.43601,0.08863 0.52244,1.384073 l 0.0934,1.399108 0.75096,-0.02632 0.751,-0.02628 0.0985,1.476851 0.0986,1.4768252 0.75098,-0.02628 0.75097,-0.02632 0.0571,0.854986 c 0.0386,0.579135 -0.0295,0.858805 -0.211,0.866792 -0.18524,0.0081 -0.16952,0.05215 0.0512,0.142831 0.23974,0.09847 0.37308,0.596615 0.53689,2.004475 0.21486,1.8501927 0.22385,1.8731511 0.72757,1.8554827 0.50113,-0.017506 0.51163,0.00775 0.60848,1.4589785 l 0.0986,1.47688625 0.85823,-0.030094 0.85828,-0.030041 0.0882,1.32139735 0.0882,1.3213833 0.71176,-0.024971 c 0.67201,-0.023559 0.73507,0.020724 1.12819,0.7922612 0.22884,0.4494602 0.43116,1.038348 0.44968,1.3086614 0.0183,0.2703216 0.13151,0.4881164 0.25264,0.4838493 0.12096,-0.00424 0.33523,0.1810761 0.47624,0.411841 0.44464,0.7277072 1.43773,3.2890678 1.77208,4.5703278 0.50783,1.948181 1.57056,4.624097 2.59417,6.534702 0.51834,0.96739 1.0156,1.950963 1.10501,2.185665 0.0891,0.234808 0.49943,0.676141 0.91109,0.980973 1.3253,0.981278 1.33,1.446747 0.0178,1.752702 -0.48137,0.112342 -0.81906,0.287103 -0.81022,0.419639 0.0116,0.177284 0.33948,0.215802 1.49091,0.175496 0.94268,-0.03306 1.5634,0.01777 1.71857,0.140654 0.43612,0.345332 3.91342,6.252193 4.42313,7.513044 0.36576,0.905049 0.53677,1.792297 0.64086,3.366634 0.12147,1.795873 0.19556,2.135664 0.46599,2.1262 0.17707,-0.0059 0.33102,0.126212 0.3422,0.294255 0.0464,0.694823 2.14273,1.800133 3.335,1.758409 0.23902,-0.0085 0.82956,0.09267 1.31234,0.224513 l 0.87773,0.239708 0.0909,1.362476 0.0909,1.362423 0.64364,-0.02253 0.64374,-0.02253 0.0934,1.399082 c 0.0927,1.388735 0.0975,1.398935 0.62978,1.380347 0.53454,-0.01877 0.53674,-0.01347 0.63499,1.458023 0.0981,1.471677 0.10017,1.476842 0.63495,1.458095 0.53246,-0.01865 0.53716,-0.0084 0.62976,1.380305 0.0927,1.388741 0.0975,1.398935 0.62979,1.380353 l 0.53644,-0.01882 0.10373,1.554566 0.10373,1.554572 0.64373,-0.02259 0.64367,-0.02259 0.0934,1.399076 0.0934,1.399141 0.55171,-0.01935 c 0.91639,-0.03212 1.18675,0.288308 1.26783,1.502671 0.0713,1.068927 0.0882,1.098779 0.60969,1.080533 l 0.53642,-0.01882 0.10375,1.554566 0.10371,1.554571 0.64376,-0.02253 0.64368,-0.02253 0.0934,1.399076 0.0934,1.399147 0.649,-0.02276 c 0.81753,-0.02865 1.09538,0.379321 1.18631,1.742362 0.0567,0.85143 0.12333,0.991014 0.5001,1.048497 0.23896,0.03647 0.4441,0.195207 0.45575,0.352784 0.0116,0.157579 0.28736,0.653242 0.6125,1.101456 0.3252,0.448186 0.66691,1.102398 0.75932,1.4537 0.22423,0.850837 0.62074,1.635773 0.82371,1.628596 0.20661,-0.0074 0.71318,1.022238 1.00788,2.04857 0.26377,0.923602 0.0921,1.428518 -0.54806,1.600785 -0.3628,0.09554 -0.39603,0.151819 -0.15691,0.250161 0.16809,0.06915 0.552,0.118183 0.85299,0.108977 0.79463,-0.02429 1.04898,0.219419 0.96589,0.925925 -0.0659,0.56054 0.005,0.666294 0.74238,1.110303 0.4484,0.269944 0.82468,0.6212 0.8361,0.780672 0.0113,0.159477 0.22671,0.493027 0.47818,0.741317 0.30993,0.305826 0.47542,0.714759 0.51336,1.267557 l 0.0561,0.816078 0.75099,-0.02629 0.75099,-0.02635 0.0933,1.399147 0.0934,1.399075 0.64378,-0.02253 0.64364,-0.02253 0.0986,1.476824 0.0986,1.476812 0.72593,-0.02541 c 0.86836,-0.03035 0.99691,0.169231 1.10439,1.714302 l 0.0732,1.04925 0.85826,-0.03012 0.85825,-0.03006 0.0934,1.399123 0.0934,1.399083 0.85824,-0.03006 0.85827,-0.03012 0.0934,1.399152 0.0934,1.399083 0.85829,-0.03006 0.85833,-0.03006 0.0881,1.321341 c 0.0872,1.305893 0.0947,1.321187 0.62454,1.302622 0.53454,-0.01877 0.53683,-0.01353 0.63503,1.458077 l 0.0986,1.476824 0.85831,-0.03006 0.85824,-0.03012 0.0934,1.399144 0.0934,1.39907 0.75098,-0.0262 0.75099,-0.0263 0.0884,1.32527 0.0884,1.32527 0.6499,0.0707 0.64992,0.0707 0.0921,1.3797 0.092,1.37965 0.75099,-0.0263 0.75097,-0.0263 0.0935,1.39912 0.0933,1.39908 0.96552,-0.0338 0.96554,-0.0338 0.0882,1.32139 0.0882,1.3214 1.180077,-0.0414 1.180081,-0.0414 0.0882,1.32139 0.0882,1.32132 1.501951,-0.0526 1.501931,-0.0526 0.0726,1.08823 0.0726,1.08817 0.826337,-0.0289 0.826344,-0.0289 0.289477,2.13858 c 0.3277,2.42028 0.20128,4.76937 -0.303307,5.63841 -0.774857,1.33446 0.712847,8.18891 2.463055,11.34893 0.44864,0.80996 0.721467,1.53756 0.683007,1.82199 -0.0497,0.36871 0.0507,0.52237 0.453917,0.6942 0.432977,0.18449 0.526587,0.35312 0.571627,1.02958 0.0842,1.26206 0.705237,2.34496 1.720991,2.99946 l 0.882904,0.56912 0.12778,1.91479 c 0.14674,2.19823 -0.008,2.53322 -1.273974,2.75485 l -0.791114,0.13853 1.060034,0.15891 c 0.582997,0.0874 1.157574,0.22312 1.27691,0.30159 0.42844,0.28176 0.0925,0.731 -0.811433,1.08524 l -0.919384,0.36026 1.336351,0.0624 c 0.901066,0.0421 1.455036,0.15347 1.700646,0.342 0.20025,0.15379 0.88454,1.23025 1.52055,2.39214 0.63596,1.16191 1.5558,2.75643 2.04402,3.54336 0.57163,0.92121 0.95673,1.8076 1.0815,2.48864 0.1821,0.99408 0.32529,1.22464 1.33758,2.15352 0.66665,0.61177 1.14518,3.41141 1.03528,6.05676 -0.10224,2.45984 -0.44865,3.77194 -1.0668,4.0402 -0.61658,0.2676 -6.00057,0.64586 -8.55889,0.6013 -1.243474,-0.0216 -2.276818,-0.0452 -2.296268,-0.0524 -0.0195,-0.007 -0.257917,-0.30324 -0.529777,-0.65793 -0.271857,-0.35472 -1.206711,-1.18092 -2.077418,-1.83606 -2.439155,-1.835 -3.360999,-3.23338 -4.203346,-6.37603 -0.11389,-0.42608 -0.455367,-0.80428 -1.193974,-1.32365 -0.665254,-0.46781 -1.051784,-0.87639 -1.083644,-1.14563 -0.0411,-0.34513 -0.176527,-0.43263 -0.773864,-0.49947 -0.398357,-0.0446 -0.829677,-0.15032 -0.958517,-0.23504 -0.1288,-0.0847 -0.34811,-0.74277 -0.48748,-1.4623 -0.24953,-1.29047 -0.5871,-1.95512 -0.98629,-1.94111 -0.11223,0.004 -0.35112,-0.2156 -0.53083,-0.48784 -0.17968,-0.27222 -0.91867,-0.96505 -1.6422,-1.53964 -0.7235,-0.57453 -1.61506,-1.46327 -1.98115,-1.97491 -0.61753,-0.86307 -1.09116,-1.21114 -2.56512,-1.88546 -0.31268,-0.14303 -0.57773,-0.3993 -0.58913,-0.5695 -0.0112,-0.17023 -0.47555,-0.60019 -1.03161,-0.95552 -0.58138,-0.3716 -1.02041,-0.78839 -1.03331,-0.98105 -0.0403,-0.60401 -0.43831,-0.87748 -1.38684,-0.95364 -1.87581,-0.15045 -5.6848,-1.88588 -5.73329,-2.61218 -0.009,-0.13319 -0.32043,-0.45148 -0.69239,-0.70748 -0.41004,-0.2822 -0.6873,-0.63088 -0.70434,-0.88559 -0.0519,-0.77847 -0.52383,-1.37969 -1.13999,-1.45219 -1.20074,-0.14137 -1.56095,-0.33345 -2.23179,-1.18997 -0.37802,-0.48266 -0.89982,-1.00368 -1.15961,-1.15786 -0.25981,-0.15415 -0.4767,-0.34437 -0.48194,-0.42273 -0.005,-0.0784 -0.16135,-0.24233 -0.34692,-0.3644 -0.24649,-0.16214 -0.36098,-0.57474 -0.42506,-1.53213 l -0.0874,-1.3103 -0.85833,0.0301 -0.8582,0.0301 -0.0882,-1.32139 -0.0882,-1.32139 -0.64368,0.0225 -0.64373,0.0225 -0.0882,-1.32137 c -0.0813,-1.21773 -0.12181,-1.3202 -0.51724,-1.30636 -0.39715,0.0139 -0.43608,-0.0886 -0.52187,-1.37361 -0.0836,-1.25209 -0.13545,-1.39683 -0.52837,-1.47227 -0.39292,-0.0754 -0.44482,-0.22018 -0.52838,-1.47232 -0.092,-1.37755 -0.0968,-1.38849 -0.6291,-1.36983 -0.53455,0.0188 -0.53682,0.0135 -0.635,-1.45803 -0.0807,-1.20908 -0.15693,-1.47479 -0.4203,-1.46559 -0.26353,0.009 -0.33976,-0.25642 -0.4203,-1.46559 l -0.0985,-1.47683 -0.64374,0.0226 -0.64366,0.0226 -0.19715,-2.9537 -0.19712,-2.95371 -0.85828,0.0301 -0.85829,0.0301 -0.0881,-1.3214 -0.0882,-1.32134 -1.07285,0.0376 -1.07277,0.0376 -0.0882,-1.32139 -0.0882,-1.32139 -0.96557,0.0338 -0.96552,0.0338 -0.0933,-1.39909 -0.0934,-1.39912 -1.07288,0.0376 c -1.00127,0.0351 -1.0745,0.0117 -1.09877,-0.35108 -0.0193,-0.28819 0.0878,-0.39262 0.41416,-0.40405 0.3002,-0.0105 0.5285,-0.19167 0.71752,-0.57048 0.15271,-0.30531 0.46354,-0.64857 0.69089,-0.76286 0.2274,-0.11434 0.41054,-0.25096 0.40702,-0.30374 -0.004,-0.0528 -0.60622,-0.12017 -1.33932,-0.14986 -2.37529,-0.0962 -3.0032,-0.72408 -1.68669,-1.68657 0.59358,-0.43388 0.71051,-0.63346 0.67576,-1.1533 -0.0428,-0.641272 -0.55716,-1.169712 -1.00807,-1.03567 -0.13864,0.04277 -0.19722,0.338939 -0.1386,0.712983 0.0752,0.480327 0.0211,0.644727 -0.21492,0.652967 -1.29694,0.0454 -5.87562,-5.128633 -6.35215,-7.178197 -0.13183,-0.565529 -0.35066,-0.884602 -0.81936,-1.192875 -0.9097,-0.598252 -1.09504,-0.878666 -1.15278,-1.743744 -0.0651,-0.975796 0.23725,-1.716808 0.75746,-1.856815 0.70669,-0.192325 0.22443,-0.352303 -1.12126,-0.375574 -0.71413,-0.01241 -1.4183,-0.101289 -1.56472,-0.197554 -0.4303,-0.283085 -0.35081,-1.252105 0.13255,-1.611396 0.63699,-0.47361 0.46671,-1.866768 -0.2252,-1.842527 -0.56134,0.01965 -1.8011,-0.865031 -2.53946,-1.812056 -0.4098,-0.525563 -1.1482,-1.901228 -1.64088,-3.05699 -1.41713,-3.323886 -3.154,-6.16678 -4.07356,-6.66742 -0.19017,-0.10353 -0.53466,-0.134577 -0.77495,-0.06988 -0.40124,0.105648 -0.43696,0.05235 -0.4896,-0.736117 -0.0363,-0.54384 -0.15558,-0.872572 -0.32906,-0.907914 -0.18387,-0.03735 -0.32801,-0.518545 -0.444,-1.477594 -0.1304,-1.09018 -0.24029,-1.419918 -0.47094,-1.411818 -0.16521,0.006 -0.30746,-0.09441 -0.31604,-0.222714 -0.009,-0.145065 -0.21821,-0.226019 -0.55202,-0.214378 -0.50974,0.01788 -0.5395,-0.02565 -0.5984,-0.874966 -0.0352,-0.491533 -0.13934,-1.15408 -0.23394,-1.472159 -0.15087,-0.511851 -0.24278,-0.575775 -0.78751,-0.556687 l -0.61564,0.02159 -0.0986,-1.476818 -0.0985,-1.4769 -0.75098,0.02635 -0.75097,0.02629 -0.0882,-1.321381 c -0.0519,-0.777318 -0.17656,-1.318281 -0.30276,-1.313864 -0.13461,0.0047 -0.27956,-0.977143 -0.39096,-2.635251 l -0.17635,-2.642786 -0.64367,0.02253 -0.64373,0.02259 -0.0986,-1.476883 c -0.0807,-1.209075 -0.15695,-1.474783 -0.42027,-1.465524 -0.2635,0.0093 -0.3397,-0.25649 -0.42031,-1.465642 l -0.0985,-1.476823 -0.96552,0.03382 -0.96563,0.03382 -0.0881,-1.321334 -0.0882,-1.321405 -0.85828,0.03012 -0.85821,0.03006 -0.0935,-1.399135 -0.0934,-1.399083 -1.18008,0.04135 -1.18011,0.04129 -0.0824,-1.234251 -0.0824,-1.234304 -0.78572,-0.02076 -0.78579,-0.02082 -1.21091,-2.996078 c -0.66594,-1.647831 -1.74227,-4.169511 -2.39157,-5.603675 -0.64937,-1.434159 -1.26768,-3.011555 -1.37396,-3.505353 -0.17857,-0.828289 -0.15807,-0.905695 0.26187,-1.001202 0.56526,-0.128778 0.5637,-0.256379 -0.008,-0.59627 -0.32536,-0.193407 -0.46117,-0.46378 -0.49615,-0.98739 -0.0452,-0.679212 -0.089,-0.728224 -0.75496,-0.845378 -0.38866,-0.06835 -0.74492,-0.241367 -0.79158,-0.384432 -0.12718,-0.389486 0.66445,-0.928832 1.40078,-0.954626 0.78429,-0.02747 0.83208,-0.269767 0.0749,-0.379597 -0.30269,-0.04394 -0.67716,-0.258091 -0.83212,-0.475951 -0.25781,-0.362486 -0.22266,-0.435539 0.40807,-0.856225 l 0.6898,-0.45998 -0.83866,-0.06642 c -2.57808,-0.204149 -2.8044,-0.389004 -2.02446,-1.654043 0.53508,-0.868055 0.54388,-0.932538 0.20917,-1.537725 -0.25421,-0.459392 -0.48428,-0.640793 -0.84374,-0.664941 -0.43317,-0.02918 -0.47383,0.01541 -0.32888,0.362139 0.22041,0.528069 -0.16848,0.529957 -1.42427,0.0072 -1.37011,-0.570352 -1.78685,-0.922913 -2.19129,-1.85358 -0.57792,-1.330041 -1.47458,-5.390998 -1.93789,-8.7769643 -0.62731,-4.5836748 -1.48858,-7.54780115 -2.43774,-8.388425 -0.90883,-0.8051779 -1.99802,-2.3593789 -2.15938,-3.0814575 -0.14206,-0.634073 -0.22695,-0.711081 -1.00338,-0.905183 -1.04512,-0.261294 -2.56567,-1.36872 -2.90107,-2.112818 -0.13715,-0.304598 -0.45937,-0.776019 -0.7153,-1.047672 -0.25614,-0.2716 -0.47733,-0.667089 -0.49144,-0.878778 -0.0204,-0.300166 -0.13637,-0.381006 -0.52939,-0.367202 -0.33543,0.01178 -0.9291,-0.275649 -1.77677,-0.8601792 -1.40476,-0.968729 -1.73996,-1.39358 -1.79915,-2.280248 -0.0472,-0.707446 -0.24243,-0.777121 -2.00095,-0.715537 l -1.26981,0.04444 -0.0779,-1.165952 -0.0779,-1.165906 -0.85823,0.03006 -0.8583,0.03007 -0.0881,-1.321411 -0.0882,-1.321338 -0.96556,0.03381 c -0.82254,0.02883 -0.96865,-0.01225 -0.98636,-0.277086 -0.0114,-0.171007 -0.11723,-0.307518 -0.23534,-0.303428 -0.12104,0.0042 -0.24388,-0.432915 -0.28225,-1.002898 -0.065,-0.974198 -0.0867,-1.009783 -0.60384,-0.991688 -0.45292,0.01588 -0.54126,-0.05372 -0.56752,-0.447546 -0.021,-0.310872 -0.13646,-0.462954 -0.35302,-0.455077 -0.25025,0.0089 -0.33576,-0.196018 -0.38412,-0.921511 -0.0346,-0.518178 -0.15758,-0.929406 -0.27289,-0.925795 -0.11798,0.0042 -0.22862,-0.20236 -0.24569,-0.458877 -0.0276,-0.414538 -0.10268,-0.463831 -0.67478,-0.443841 l -0.64374,0.02259 -0.0985,-1.476841 -0.0986,-1.476899 -0.75099,0.02633 -0.75097,0.02635 -0.0986,-1.476869 -0.0986,-1.476826 -0.74258,0.02599 -0.74269,0.02603 -0.15282,-1.358089 -0.15266,-1.35806 -0.8079,-0.02007 -0.80783,-0.02004 -0.0876,-1.31197 -0.0875,-1.311991 -0.64375,0.0225 -0.64367,0.02257 -0.0986,-1.476829 -0.0985,-1.476831 -0.96561,0.03383 -0.96553,0.0338 -0.0882,-1.321394 c -0.0871,-1.305827 -0.0946,-1.321142 -0.62456,-1.302608 -0.50716,0.01778 -0.53955,-0.02782 -0.59344,-0.836223 -0.0502,-0.75134 -0.10909,-0.853178 -0.48628,-0.839952 -0.39896,0.01397 -0.436,-0.08862 -0.52768,-1.461804 l -0.0985,-1.476839 -0.64377,0.02252 -0.64366,0.02257 -0.0933,-1.399097 c -0.0761,-1.140012 -0.15302,-1.397024 -0.41745,-1.387479 -0.25243,0.0089 -0.33449,-0.198344 -0.38042,-0.960575 l -0.0583,-0.971827 0.67123,0.485341 c 0.45097,0.326026 0.68338,0.650439 0.70819,0.988021 0.0568,0.778436 0.37736,0.991225 0.65326,0.433918 0.12688,-0.256209 0.46031,-0.551579 0.74109,-0.656407 0.7253,-0.270864 0.61133,-0.710766 -0.43095,-1.664789 -0.52939,-0.484326 -0.97513,-1.087551 -1.0857,-1.469204 -0.10491,-0.355903 -0.42901,-0.884498 -0.72409,-1.174069 -0.32731,-0.321219 -0.61935,-0.88836 -0.74857,-1.454091 -0.11634,-0.510164 -0.46865,-1.319526 -0.78171,-1.798823 -0.71012,-1.086138 -0.71276,-1.149463 -0.0636,-1.557695 l 0.52972,-0.333084 -0.5091,-0.164212 c -0.41346,-0.133309 -0.50351,-0.268621 -0.47922,-0.720003 0.0259,-0.482187 -0.0517,-0.577524 -0.58576,-0.720003 -0.33863,-0.09032 -0.89238,-0.323266 -1.23062,-0.517675 -0.55353,-0.318112 -0.62185,-0.455211 -0.68261,-1.371436 -0.0611,-0.91428 -0.11165,-1.016423 -0.49696,-1.002923 -0.39898,0.01398 -0.43601,-0.08863 -0.5277,-1.461818 l -0.0985,-1.476821 -0.96561,0.03382 -0.96554,0.03381 -0.0934,-1.399124 -0.0933,-1.399097 -1.07286,0.03759 -1.07284,0.03759 -0.0881,-1.321408 -0.0882,-1.321415 -1.25461,0.04395 -1.25462,0.04402 -0.25581,-1.744056 c -0.14069,-0.959208 -0.5095,-5.539082 -0.81962,-10.177501 l -0.56279,-8.433506 -0.64376,0.02255 -0.64366,0.0225 -0.0986,-1.476806 -0.0986,-1.476837 -0.64366,0.0226 -0.64378,0.0225 -0.0985,-1.47683 -0.0986,-1.47681 -1.28739,0.0451 -1.28743,0.045 -0.0779,-1.1659 -0.0777,-1.16593 -1.71662,0.0601 -1.7165,0.0601 -0.0623,-0.93273 -0.0622,-0.93274 -1.82376,0.0639 -1.82394,0.0639 -0.0415,-0.62184 -0.0415,-0.62182 -1.71238,0.06 c -1.59936,0.056 -1.72148,0.0372 -1.84889,-0.28585 -0.0753,-0.19018 -0.36974,-1.00373 -0.65462,-1.80791 -0.28519,-0.80416 -0.70482,-1.97282 -0.93284,-2.59692 -0.22797,-0.62413 -0.41335,-1.44681 -0.41138,-1.8282 0.002,-0.61459 -0.0775,-0.73489 -0.70736,-1.05765 -0.60951,-0.31251 -0.71706,-0.46275 -0.7568,-1.05752 -0.0254,-0.38133 -0.20943,-0.94146 -0.40847,-1.24489 -0.19919,-0.30337 -0.31739,-0.58738 -0.2624,-0.63112 0.0551,-0.0439 -0.31221,-0.40279 -0.81552,-0.79797 -0.50335,-0.3951 -1.02154,-0.94508 -1.15153,-1.22211 -0.34144,-0.72786 -0.59066,-5.36421 -0.32474,-6.03429 0.16561,-0.41673 0.3893,-0.59574 0.90723,-0.72623 0.93473,-0.23547 0.85174,-0.42614 -0.16984,-0.3903 -0.46251,0.0162 -0.99915,-0.008 -1.19257,-0.0544 -0.44829,-0.10699 -0.77129,-0.50985 -0.65409,-0.8158 z m 96.38834,49.758127 c 0.21454,-0.0076 0.33225,0.144172 0.35301,0.455068 0.021,0.310882 -0.0762,0.470117 -0.29075,0.477643 -0.21453,0.0076 -0.33225,-0.144165 -0.353,-0.455062 -0.021,-0.310867 0.0762,-0.470165 0.29075,-0.477651 z m 1.75365,3.096887 c 0.0648,0.149286 0.0752,0.359277 0.0231,0.466668 -0.0518,0.107262 -0.10464,-0.01503 -0.1174,-0.271553 -0.0134,-0.256625 0.0296,-0.344438 0.0941,-0.195132 z"
       id="path881-5"
       inkscape:connector-curvature="0" />
    <path
       style="fill:#282c34;fill-opacity:1;stroke-width:0.146847"
       d="m -86.166785,154.22399 c 0.125033,-0.004 0.384909,0.0498 0.577418,0.11946 0.258155,0.0934 0.734037,-0.0103 1.813909,-0.3951 l 1.463917,-0.52173 0.791321,1.34798 c 0.621754,1.05906 0.881508,1.40285 1.212005,1.6043 0.358353,0.21832 0.614933,0.58751 1.732553,2.49084 1.875076,3.1939 1.949487,3.70158 0.584368,3.98917 -0.796838,0.16786 -1.626281,0.74085 -1.954521,1.35012 -0.138701,0.25765 -0.253908,0.90417 -0.255901,1.43677 -0.0031,0.81879 -0.08587,1.06429 -0.536749,1.58992 -0.293266,0.34188 -0.769003,1.07012 -1.057177,1.61838 -0.856318,1.62881 -1.665868,2.63836 -2.568865,3.20339 -1.300965,0.81427 -1.426115,1.36411 -0.576624,2.53582 l 0.503073,0.69394 -0.491488,0.6066 c -0.270305,0.33364 -0.951771,1.4759 -1.514422,2.53826 -0.928074,1.7525 -1.193744,2.16537 -1.728071,2.686 -0.094,0.092 -0.12178,0.51939 -0.0613,0.95022 0.10879,0.77466 0.10302,0.78678 -0.517327,1.09176 -0.721404,0.35472 -0.845314,0.67123 -0.968754,2.47429 -0.0862,1.26015 -0.435047,2.32604 -1.185404,3.62209 -0.581687,1.00469 -0.686544,1.43965 -0.493597,2.04718 0.0776,0.24436 0.0352,0.59201 -0.0981,0.80394 -0.303797,0.48321 -0.205347,1.28708 0.28674,2.34096 l 0.393607,0.84297 -0.980334,0.40029 -0.980304,0.4002 0.368967,0.62846 0.368987,0.62854 -1.058734,0.43219 -1.058634,0.43224 0.40999,0.69831 0.409967,0.69834 -1.058724,0.4322 c -0.858054,0.35027 -1.035364,0.47192 -0.935624,0.64187 0.101247,0.17206 -0.0985,0.29987 -1.122354,0.71813 l -1.245524,0.5085 0.409977,0.69832 0.40992,0.69828 -0.996337,0.40687 -0.996424,0.40683 0.36893,0.62845 0.368987,0.62847 -1.120984,0.4577 -1.120904,0.45768 0.32792,0.55861 0.328017,0.55866 -1.058687,0.43226 -1.05872,0.43219 0.40996,0.69828 0.40998,0.69833 -0.99642,0.40682 -0.99639,0.40682 0.45095,0.76811 0.45098,0.76817 -0.99639,0.40682 -0.99647,0.40684 0.41,0.69827 0.40999,0.69833 -1.05874,0.43219 -1.05869,0.43225 0.28698,0.4888 c 0.25145,0.42833 0.24841,0.50457 -0.0244,0.61598 -0.28298,0.11549 -0.34334,0.0731 -0.66177,-0.46569 -0.54004,-0.91391 -0.71807,-0.97426 -1.12034,-0.38047 -0.42605,0.62889 -0.50786,0.65957 -0.83108,0.31153 -0.22785,-0.24558 -0.25028,-0.14467 -0.1705,0.77017 0.13035,1.49436 0.11369,1.54709 -0.57785,1.82942 l -0.60749,0.24803 0.28698,0.48879 0.28697,0.48889 -1.12095,0.45761 -1.12099,0.4577 0.28702,0.48882 0.28694,0.48882 -1.12091,0.45767 -1.12096,0.45769 0.36895,0.62847 0.36894,0.62847 -1.11264,0.45429 -1.11273,0.45424 0.18608,0.40017 c 0.18172,0.39082 0.16243,0.41341 -0.82982,0.97107 l -1.01587,0.5709 0.23771,0.40489 c 0.19374,0.33001 0.17979,0.47493 -0.0755,0.7836 -0.17222,0.20834 -0.59143,0.49237 -0.93167,0.63116 -0.58208,0.23775 -0.60748,0.2761 -0.43239,0.6527 0.18434,0.39652 0.17689,0.40435 -0.81765,0.86032 l -1.00376,0.46003 0.28371,0.48318 0.28363,0.48315 -1.1832,0.48311 -1.18323,0.48312 0.32796,0.5586 0.32795,0.55867 -1.12094,0.45761 -1.12098,0.4577 0.36893,0.62845 0.36898,0.62851 -1.05862,0.43224 -1.05874,0.43219 0.24601,0.419 0.24592,0.41899 -1.12095,0.45761 -1.12093,0.45776 0.23637,0.40264 c 0.2885,0.49142 0.13324,0.65269 -1.12704,1.17055 l -0.90175,0.37073 0.24597,0.41896 0.24596,0.41904 -1.12095,0.45762 c -1.11264,0.45428 -1.11941,0.46036 -0.916,0.80682 0.20425,0.34793 0.20074,0.35089 -0.97823,0.83227 l -1.18325,0.48306 0.32476,0.55321 0.32477,0.5532 -1.06612,0.48534 -1.06607,0.48532 0.35151,0.67889 0.35155,0.67889 -4.66385,1.90417 c -4.58081,1.87025 -4.66107,1.90891 -4.49985,2.1835 0.1518,0.25861 0.0809,0.3132 -0.95699,0.73694 l -1.12095,0.45769 0.28698,0.48879 0.28695,0.48883 -1.18326,0.48306 -1.18321,0.48312 0.28694,0.48881 0.28698,0.4888 -0.685,0.27971 c -0.464,0.1894 -0.71873,0.22355 -0.78943,0.10588 -0.0721,-0.12012 -0.10288,-0.0973 -0.0997,0.0743 0.004,0.18628 -0.36028,0.41538 -1.46357,0.92207 -1.45007,0.66561 -1.46584,0.67805 -1.27333,1.00591 0.19145,0.3262 0.17412,0.34035 -0.98838,0.815 l -1.18326,0.48313 0.32798,0.55861 0.32792,0.55867 -1.05869,0.43226 -1.05868,0.43224 0.27204,0.46327 c 0.25684,0.43739 0.24258,0.4916 -0.25492,0.96974 -0.28986,0.27842 -0.70409,0.57877 -0.9205,0.66752 -0.21649,0.0886 -0.35612,0.22504 -0.30983,0.30388 0.046,0.0788 -0.031,0.27277 -0.17144,0.43126 -0.44312,0.49977 -2.20485,1.88091 -3.14349,2.46447 -1.42741,0.88694 -3.25902,2.34652 -4.47326,3.56365 -0.61477,0.61631 -1.25033,1.22327 -1.41233,1.34878 -0.16219,0.12533 -0.38124,0.52138 -0.48723,0.87968 -0.34119,1.15348 -0.72344,1.28832 -1.4393,0.5078 -0.26269,-0.2863 -0.5261,-0.45998 -0.6323,-0.41664 -0.14212,0.0579 -0.0581,0.28541 0.38191,1.03488 0.36028,0.61356 0.53756,1.03814 0.49104,1.17545 -0.13076,0.38593 -3.77424,4.35547 -4.63411,5.04913 -0.61725,0.49784 -1.28862,0.86195 -2.5503,1.37629 -1.43827,0.58852 -1.69235,0.73365 -1.58902,0.90967 0.0675,0.11531 0.0128,0.25446 -0.12181,0.3094 -0.55668,0.22731 -0.7278,1.9254 -0.27225,2.70146 0.091,0.15568 0.21657,0.57441 0.27839,0.93074 l 0.11234,0.64785 -1.0916,0.44567 -1.09158,0.44565 0.24591,0.41895 0.24595,0.41903 -1.12092,0.45768 c -1.11263,0.45428 -1.11935,0.46034 -0.916,0.80681 0.20431,0.34791 0.20072,0.35086 -0.97823,0.83225 -1.17914,0.48133 -1.18267,0.48416 -0.9783,0.83224 0.2035,0.34656 0.19634,0.35269 -0.91598,0.8068 -1.11264,0.45428 -1.11935,0.46034 -0.916,0.80682 l 0.20499,0.34917 -1.24552,0.50851 -1.24551,0.50851 0.24603,0.41899 0.246,0.41894 -1.12091,0.45768 -1.12098,0.45769 0.21089,0.35908 c 0.35018,0.59648 0.18141,0.86582 -0.79152,1.26307 -0.85642,0.34964 -0.87508,0.36925 -0.67581,0.70869 l 0.20499,0.34916 -1.24551,0.50852 -1.24553,0.5085 0.24596,0.41903 0.24592,0.41898 -1.12091,0.45768 -1.12098,0.45769 0.24805,0.42241 c 0.31237,0.53214 0.0741,0.83119 -1.01799,1.27704 -0.6822,0.27843 -0.7738,0.36197 -0.68811,0.62721 0.0543,0.16823 -0.004,0.34871 -0.12998,0.401 -0.12587,0.0523 -0.43728,0.37477 -0.69209,0.71648 -0.25478,0.34173 -0.67364,0.75269 -0.93074,0.91318 -0.62254,0.38897 -1.12987,0.87313 -1.05226,1.00523 0.0788,0.13455 -0.59118,0.76058 -1.33357,1.24579 -0.66858,0.43569 -1.14565,0.46514 -1.51386,0.0909 -0.20692,-0.21272 -0.26511,-0.21874 -0.26175,-0.0329 0.003,0.13066 0.0975,0.39822 0.21142,0.59451 0.30073,0.51821 0.18957,0.75527 -0.42248,0.90031 -0.48559,0.1151 -0.54778,0.19188 -0.65352,0.8048 -0.0642,0.37271 -0.22104,0.72077 -0.34852,0.77344 -0.12755,0.0526 -0.32656,0.28935 -0.44251,0.52579 -0.14275,0.29136 -0.42157,0.51646 -0.8641,0.69797 l -0.65325,0.26804 0.28695,0.48882 0.28697,0.48881 -1.12101,0.45763 -1.12091,0.45767 0.24596,0.41905 0.24591,0.41896 -1.18321,0.48311 -1.1832,0.48312 0.27738,0.47251 c 0.33172,0.56524 0.21256,0.70666 -1.02379,1.21496 l -0.83953,0.34532 0.32799,0.55863 0.32799,0.55862 -1.12095,0.45769 -1.12093,0.45768 0.32798,0.55862 0.328,0.55862 -1.12098,0.4577 -1.12092,0.45768 0.328,0.55865 0.32802,0.55867 -1.05868,0.43217 c -1.04626,0.42721 -1.05622,0.43649 -0.85376,0.78137 0.20433,0.34791 0.20077,0.35092 -0.97825,0.83228 l -1.18321,0.48312 0.32801,0.55866 0.32798,0.55861 -1.12096,0.4577 -1.12092,0.45768 0.28688,0.48883 0.28696,0.48882 -1.06181,0.43348 -1.06181,0.43349 0.17126,0.44947 0.17126,0.44948 -1.1054,0.45133 -1.10539,0.45126 0.28697,0.48882 0.28696,0.48879 -1.12092,0.45776 -1.12096,0.45761 0.36893,0.62846 0.36894,0.62847 -1.05868,0.43226 -1.05869,0.43225 0.45099,0.76809 0.45099,0.7681 -1.05868,0.43225 -1.05862,0.43224 0.57392,0.97762 0.57392,0.97761 -0.87189,0.35595 -0.87185,0.35595 0.31574,0.53787 0.31572,0.53788 -1.66157,0.79654 c -1.88041,0.90151 -3.86252,1.4828 -4.75751,1.39531 -1.37432,-0.13436 -6.50212,2.78863 -8.49017,4.83952 -0.50955,0.52569 -1.01328,0.9119 -1.26145,0.96698 -0.32166,0.0715 -0.41292,0.18134 -0.41221,0.49642 7.8e-4,0.33834 -0.10524,0.44792 -0.64724,0.66913 -1.01117,0.41282 -1.68494,1.12968 -1.86594,1.98614 l -0.15752,0.74449 -1.53412,0.62636 c -1.76119,0.71909 -2.09214,0.71164 -2.72212,-0.0622 l -0.3937,-0.48358 0.24337,0.74546 c 0.13386,0.40999 0.22488,0.82808 0.20232,0.92916 -0.081,0.36285 -0.57023,0.268 -1.1817,-0.22908 l -0.62189,-0.50557 0.42058,0.90073 c 0.28357,0.60735 0.38739,1.00494 0.31866,1.2206 -0.0561,0.17584 -0.70223,0.93269 -1.43585,1.68179 -0.73366,0.74909 -1.72385,1.80819 -2.20043,2.35353 -0.55786,0.63845 -1.15289,1.14379 -1.67052,1.41898 -0.75555,0.40167 -0.89514,0.56155 -1.30367,1.49336 -0.26909,0.61366 -2.4091,1.72221 -4.62972,2.39826 -2.0649,0.62861 -3.26944,0.77104 -3.70904,0.43848 -0.4385,-0.33171 -2.65229,-3.78244 -3.51922,-5.48561 -0.42142,-0.82781 -0.76698,-1.51734 -0.7679,-1.53223 -9e-4,-0.0149 0.15898,-0.25626 0.3555,-0.53629 0.19652,-0.28003 0.54772,-1.13163 0.7805,-1.89241 0.65184,-2.13115 1.47955,-3.13608 3.77396,-4.58212 0.31119,-0.19585 0.50249,-0.52853 0.66994,-1.16361 0.15084,-0.572 0.35129,-0.94306 0.5621,-1.04031 0.27013,-0.12483 0.29446,-0.23909 0.13859,-0.65274 -0.10393,-0.27586 -0.16909,-0.5908 -0.14473,-0.69991 0.0244,-0.10908 0.48965,-0.44025 1.03386,-0.73598 0.97619,-0.53011 1.40514,-0.94129 1.25257,-1.20111 -0.043,-0.073 0.0537,-0.29304 0.21485,-0.48885 0.16104,-0.19577 0.47143,-0.88018 0.68976,-1.52092 0.21829,-0.64069 0.63637,-1.48136 0.92903,-1.86808 0.4937,-0.65233 0.61347,-1.06381 0.64897,-2.22866 0.007,-0.2471 0.12527,-0.49478 0.26161,-0.55048 0.13645,-0.0556 0.32704,-0.48411 0.42369,-0.95212 0.10111,-0.48935 0.28979,-0.89742 0.44413,-0.96047 0.48393,-0.19757 0.56889,-0.53798 0.29665,-1.18633 -0.53851,-1.28213 -0.45265,-4.29029 0.12925,-4.52789 0.10667,-0.0436 0.25918,-0.33951 0.33893,-0.65776 0.0879,-0.35083 0.27755,-0.63272 0.4816,-0.71607 0.62373,-0.25461 0.95289,-0.73662 0.79504,-1.1643 -0.30755,-0.83347 -0.27636,-1.12586 0.19311,-1.81157 0.26454,-0.38639 0.50995,-0.87865 0.54535,-1.09396 0.0354,-0.21532 0.11563,-0.41247 0.17841,-0.43811 0.0629,-0.0255 0.14287,-0.1752 0.178,-0.33238 0.0467,-0.20877 0.34652,-0.40119 1.1135,-0.7145 l 1.04982,-0.42858 -0.32801,-0.55867 -0.32797,-0.55859 1.05868,-0.43226 1.05868,-0.43225 -0.24593,-0.41898 -0.24594,-0.41901 1.05866,-0.43226 c 0.97563,-0.39835 1.04584,-0.45412 0.89473,-0.71151 -0.15174,-0.25851 -0.0809,-0.31324 0.94857,-0.7336 1.00315,-0.4096 1.10421,-0.48483 1.02764,-0.76583 -0.0766,-0.28098 0.0245,-0.35625 1.02768,-0.76584 1.10366,-0.45066 1.11099,-0.45693 0.90757,-0.80339 -0.20433,-0.34792 -0.20076,-0.35092 0.97823,-0.83226 0.9687,-0.39551 1.16092,-0.52108 1.06031,-0.69252 -0.10052,-0.1716 0.0915,-0.29708 1.0603,-0.69252 l 1.18324,-0.48305 -0.24602,-0.41899 -0.24601,-0.41894 2.36647,-0.96621 2.36649,-0.96621 -0.32799,-0.55863 -0.32801,-0.55865 1.05873,-0.43219 1.05864,-0.43224 -0.40998,-0.69831 -0.40995,-0.69825 1.05868,-0.43225 1.05869,-0.43226 -0.36895,-0.62849 -0.36894,-0.62846 1.12097,-0.45761 1.12096,-0.45769 -0.40999,-0.69833 c -0.38263,-0.65171 -0.3892,-0.70673 -0.0986,-0.82544 0.23086,-0.0943 0.35482,-0.0531 0.47954,0.15933 0.1147,0.1954 0.34477,0.295 0.72396,0.31269 0.30575,0.0145 0.69866,0.12276 0.87322,0.24065 0.17464,0.11791 0.352,0.20026 0.39429,0.183 0.0422,-0.0176 -0.11502,-0.43461 -0.34949,-0.92745 -0.75969,-1.59684 -0.46363,-2.18946 0.79523,-1.5919 0.56752,0.26945 0.77344,0.29024 1.1899,0.12015 0.51379,-0.20977 0.76794,-0.69922 0.4981,-0.95925 -0.0842,-0.0795 -0.3492,-0.0344 -0.637,0.1102 -0.36959,0.18563 -0.52429,0.19641 -0.61445,0.0428 -0.49558,-0.84418 2.15445,-5.33413 3.67654,-6.22908 0.41985,-0.24716 0.60571,-0.48207 0.6944,-0.87904 0.17208,-0.77045 0.3379,-0.97228 1.031,-1.25527 0.78179,-0.31918 1.49975,-0.3291 1.79899,-0.0249 0.40825,0.41255 0.36984,0.0486 -0.0863,-0.84723 -0.24202,-0.47542 -0.41744,-0.96589 -0.38976,-1.08989 0.0815,-0.36447 0.90876,-0.58619 1.37584,-0.36846 0.61562,0.28689 1.7045,-0.21991 1.4401,-0.67027 -0.21453,-0.36537 0.0773,-1.435 0.59751,-2.19094 0.28871,-0.41954 1.16249,-1.29681 1.94168,-1.94947 2.24085,-1.87715 3.97205,-3.82947 4.06015,-4.57881 0.0182,-0.15497 -0.0779,-0.39139 -0.21609,-0.53188 -0.22887,-0.23524 -0.19749,-0.27395 0.43417,-0.53186 0.43572,-0.1779 0.66472,-0.34976 0.63259,-0.4744 -0.0342,-0.13205 0.31181,-0.36351 1.06183,-0.71157 0.85308,-0.39471 1.08622,-0.56064 0.99807,-0.71077 -0.0633,-0.10747 -0.0308,-0.22989 0.072,-0.27187 0.11647,-0.047 0.10933,-0.20816 -0.0182,-0.42545 -0.19482,-0.33178 -0.16937,-0.36378 0.51027,-0.64306 0.39297,-0.16237 0.90263,-0.41869 1.13156,-0.57123 0.36886,-0.24456 0.38912,-0.32338 0.18095,-0.67794 l -0.23528,-0.40071 1.18321,-0.48312 1.18329,-0.48306 -0.28696,-0.48882 -0.28696,-0.4888 1.05868,-0.43225 c 0.62277,-0.25429 1.0249,-0.48977 0.97669,-0.57191 -0.0517,-0.0875 0.70716,-0.46128 2.03536,-1.00416 l 2.11738,-0.86447 -0.24592,-0.41898 -0.24603,-0.41898 1.18326,-0.48314 c 0.9687,-0.39551 1.16091,-0.5211 1.06026,-0.69248 -0.1005,-0.17157 0.0916,-0.29707 1.06034,-0.69254 l 1.18325,-0.48305 -0.36893,-0.62846 -0.36897,-0.62853 1.05867,-0.43217 1.0587,-0.43226 -0.328,-0.55864 -0.32798,-0.5586 1.12093,-0.45775 1.12092,-0.45768 -0.45091,-0.76812 -0.45092,-0.76814 0.98887,-0.40375 0.9889,-0.40378 -0.26038,-0.5251 -0.26041,-0.52514 2.04333,-1.64811 c 1.12384,-0.90642 2.82344,-2.33134 3.77693,-3.16629 0.95347,-0.83499 2.03604,-1.69 2.40576,-1.89998 0.62007,-0.35242 0.69116,-0.36078 0.91827,-0.11031 0.30588,0.33709 0.41057,0.29994 0.48895,-0.17404 0.0446,-0.26973 0.21962,-0.436 0.63912,-0.6073 0.54422,-0.22209 0.56917,-0.26491 0.43055,-0.73814 -0.0808,-0.27618 -0.0641,-0.56056 0.0375,-0.63188 0.27631,-0.19427 1.00077,0.1762 1.28214,0.65548 0.29972,0.51048 0.51642,0.47349 0.33954,-0.0579 -0.0707,-0.21244 -0.0264,-0.52052 0.0986,-0.68457 0.20791,-0.27295 0.28058,-0.2704 0.85034,0.0273 l 0.62303,0.32564 -0.24148,-0.57299 c -0.74229,-1.76139 -0.66976,-1.96326 0.64909,-1.80589 0.90495,0.10791 0.96125,0.0955 1.34215,-0.29698 0.28911,-0.298 0.35745,-0.50137 0.25038,-0.74573 -0.12892,-0.29451 -0.18007,-0.30875 -0.41484,-0.11484 -0.35768,0.2951 -0.4966,0.0387 -0.50888,-0.93919 -0.0136,-1.0668 0.13002,-1.44196 0.75474,-1.97261 0.89283,-0.75831 3.92543,-2.50013 6.55441,-3.76457 3.55888,-1.71177 5.69935,-3.11979 6.0574,-3.98491 0.34304,-0.82844 1.24016,-1.98804 1.77871,-2.29903 0.47278,-0.27333 0.50631,-0.35122 0.39214,-0.91922 -0.15367,-0.76457 0.22259,-2.08278 0.71782,-2.51501 0.20278,-0.17683 0.47777,-0.52318 0.61142,-0.76918 0.13352,-0.24612 0.38158,-0.50422 0.55119,-0.57345 0.24036,-0.0984 0.26607,-0.19795 0.11586,-0.45375 -0.12821,-0.21832 -0.10085,-0.69197 0.0818,-1.41754 0.30276,-1.20245 0.53476,-1.54419 1.24515,-1.83424 0.5668,-0.2314 0.5553,-0.38014 -0.11666,-1.52475 l -0.48519,-0.82652 0.93412,-0.38146 0.93408,-0.38144 -0.32795,-0.55862 -0.32798,-0.55866 1.05874,-0.4322 1.05863,-0.43223 -0.36894,-0.62849 c -0.31433,-0.53538 -0.33206,-0.64356 -0.11989,-0.73022 0.13701,-0.0559 0.21222,-0.16449 0.16712,-0.24138 -0.0462,-0.0788 0.27091,-0.28368 0.72747,-0.47035 0.78052,-0.31866 0.8022,-0.34308 0.60461,-0.67968 -0.17309,-0.2948 -0.14689,-0.37288 0.16865,-0.50168 0.24898,-0.10187 0.33362,-0.2212 0.25063,-0.36207 -0.0957,-0.16285 0.0431,-0.27735 0.62435,-0.51464 0.41516,-0.16951 0.71088,-0.36716 0.66717,-0.44233 -0.0451,-0.0768 0.0861,-0.20835 0.29168,-0.29223 0.33215,-0.13556 0.34628,-0.19912 0.12771,-0.57151 l -0.24602,-0.419 1.18325,-0.48305 1.18327,-0.48314 -0.28699,-0.48881 -0.287,-0.48879 1.18324,-0.48312 1.18321,-0.48312 -0.28374,-0.48335 -0.28381,-0.48341 1.06612,-0.48534 1.06616,-0.48523 -0.26882,-0.53955 -0.26883,-0.53949 1.05113,-0.42919 1.05118,-0.42913 -0.24596,-0.41903 -0.24598,-0.41896 1.18321,-0.48312 1.18324,-0.48304 -0.36898,-0.62851 -0.36894,-0.62847 1.05869,-0.43226 c 1.04624,-0.42712 1.05621,-0.4364 0.85373,-0.78137 -0.19381,-0.3301 -0.16764,-0.36441 0.48007,-0.62881 0.60195,-0.2458 0.66514,-0.31354 0.52099,-0.55905 -0.15245,-0.25968 -0.0809,-0.31319 1.01925,-0.7624 l 1.18326,-0.48306 -0.24598,-0.41904 -0.24598,-0.41894 1.12097,-0.45762 c 0.91336,-0.37293 1.09817,-0.49649 0.99689,-0.66853 -0.0965,-0.16429 0.0454,-0.27717 0.65787,-0.52324 l 0.78094,-0.31356 -0.1632,0.58091 c -0.10959,0.39027 -0.29506,0.63566 -0.56473,0.7476 -0.62195,0.25784 -0.68423,0.52989 -0.12713,0.55448 0.25614,0.0114 0.61753,0.14808 0.80316,0.30395 0.47961,0.40262 0.80217,0.20282 1.22084,-0.75593 0.21246,-0.4869 0.55253,-0.95217 0.82825,-1.13325 0.25648,-0.17005 0.57796,-0.53382 0.71256,-0.81076 0.14931,-0.3072 0.51391,-0.66069 0.93486,-0.90619 0.37967,-0.22126 0.92276,-0.68313 1.20748,-1.02565 0.64497,-0.77664 0.69627,-0.79631 1.26227,-0.48288 l 0.46183,0.25578 -0.0444,-0.38289 c -0.0361,-0.31095 0.0437,-0.40875 0.42456,-0.52045 0.40684,-0.11934 0.45806,-0.1976 0.38692,-0.59084 -0.0451,-0.24933 -0.0486,-0.68118 -0.008,-0.95971 0.0669,-0.45581 0.15579,-0.53976 0.89,-0.83921 0.73248,-0.29913 0.79888,-0.36144 0.65163,-0.61224 -0.15246,-0.25969 -0.0809,-0.3132 1.01926,-0.76242 l 1.18324,-0.48305 -0.36898,-0.62851 -0.36895,-0.62847 1.12096,-0.45769 1.12097,-0.45761 -0.40998,-0.69832 -0.40996,-0.6983 1.05874,-0.4322 1.0587,-0.43226 -0.47942,-0.81661 -0.47948,-0.81661 1.34808,-0.66263 c 0.74142,-0.36444 4.38847,-1.90432 8.10453,-3.42198 l 6.75687,-2.75869 -0.24599,-0.41902 -0.24592,-0.41897 1.18319,-0.48311 1.18321,-0.48312 -0.246,-0.41894 -0.24596,-0.41904 1.18325,-0.48306 1.183187,-0.48311 -0.491947,-0.83796 -0.49187,-0.83801 0.934067,-0.38144 0.934174,-0.38132 -0.655934,-1.11734 -0.655887,-1.11727 0.747267,-0.30515 0.747324,-0.30508 -0.696917,-1.18707 -0.696974,-1.18719 0.498207,-0.20341 0.498197,-0.20341 -0.654357,-1.11457 c -0.611127,-1.04102 -0.638757,-1.12704 -0.417327,-1.30266 0.13026,-0.10358 0.697237,-0.5284 1.259864,-0.94424 0.562504,-0.41605 1.378141,-1.02409 1.812328,-1.35139 0.434237,-0.32729 1.047264,-0.68261 1.362524,-0.78925 0.507597,-0.17262 0.578724,-0.2592 0.622444,-0.76676 0.0424,-0.49121 0.12837,-0.6048 0.604877,-0.79939 0.30553,-0.12471 0.702497,-0.40484 0.882447,-0.62224 0.179847,-0.21749 0.372337,-0.37597 0.427837,-0.35201 0.0557,0.024 0.221927,-0.32031 0.370067,-0.76474 0.14807,-0.44444 0.418627,-0.94251 0.601197,-1.10682 0.479697,-0.43162 4.215546,-1.90845 4.862133,-1.92237 0.402207,-0.009 0.628857,0.0887 0.919434,0.39397 0.524383,0.55104 0.652326,0.44224 0.261911,-0.22269 -0.176731,-0.30105 -0.346331,-0.66251 -0.376391,-0.80346 -0.0701,-0.32651 0.14806,-0.65397 0.441799,-0.66311 z m -6.991174,77.77642 c 0.0821,0.13962 -0.002,0.26036 -0.25063,0.36206 -0.248987,0.10186 -0.414647,0.0827 -0.496647,-0.0569 -0.0821,-0.13961 0.002,-0.26035 0.25063,-0.36205 0.248967,-0.10186 0.414687,-0.0827 0.496647,0.0569 z m -1.934751,2.03529 c -0.10024,0.0851 -0.269757,0.15137 -0.376727,0.14734 -0.10677,-0.004 -0.0246,-0.0734 0.18249,-0.15444 0.206927,-0.0815 0.294537,-0.0779 0.194177,0.007 z"
       id="path881-5-67"
       inkscape:connector-curvature="0" />
    <path
       style="fill:#282c34;fill-opacity:1;stroke-width:0.249513"
       d="m -255.33507,-126.72041 c -0.14901,-0.1556 -0.52278,-0.39591 -0.83056,-0.53393 -0.41273,-0.18513 -0.88787,-0.89624 -1.81109,-2.71048 l -1.25151,-2.45953 -2.3651,0.85652 c -1.85822,0.67291 -2.53232,0.82171 -3.14557,0.69456 -0.66483,-0.13799 -1.36138,0.0487 -4.7012,1.25777 -5.604,2.02936 -6.22099,2.62082 -4.84793,4.64755 0.80151,1.18304 1.22323,2.9486 0.99384,4.16031 -0.0971,0.51229 -0.62588,1.51786 -1.17519,2.23454 -0.84452,1.10176 -0.99745,1.53059 -0.99006,2.77756 0.005,0.81105 -0.16728,2.35963 -0.3825,3.44136 -0.63917,3.21386 -0.69407,5.54102 -0.17407,7.38434 0.74895,2.65599 0.33253,3.54386 -1.92117,4.09407 l -1.33469,0.32589 -0.0268,1.404384 c -0.0148,0.77241 -0.36392,3.123544 -0.77576,5.224714 -0.67947,3.466035 -0.78199,4.339127 -0.66727,5.679713 0.0197,0.236384 -0.38899,0.842952 -0.90936,1.348039 -0.93568,0.90815 -0.94119,0.931344 -0.49777,2.086122 0.51559,1.342971 0.33937,1.916402 -1.37743,4.48295 -1.19995,1.793665 -1.87714,3.642548 -2.3013,6.282759 -0.32877,2.046691 -0.65102,2.756101 -1.51658,3.338924 -0.34818,0.234401 -0.65638,0.751643 -0.71277,1.196126 -0.1287,1.013281 -1.08197,1.973023 -2.77611,2.794855 l -1.35514,0.657307 0.78533,1.715343 0.78537,1.715225 -1.10269,0.399314 -1.10282,0.399364 0.84824,1.852397 0.84809,1.852331 -1.22527,0.443694 -1.2253,0.443702 0.84821,1.852392 c 0.6874,1.501288 0.77847,1.877579 0.48032,1.985594 -0.3022,0.108998 -0.19011,0.520538 0.62992,2.312367 l 0.99785,2.179264 -1.22528,0.443698 -1.22519,0.443657 0.79816,1.743394 0.79825,1.743468 -1.10267,0.399304 -1.10272,0.399327 0.89805,1.961405 0.89794,1.961311 -0.98008,0.355015 -0.98028,0.354903 0.84813,1.852414 0.84818,1.852372 -1.22522,0.443673 -1.22528,0.443698 0.79827,1.743432 0.79825,1.743393 -1.34775,0.488033 -1.34783,0.488068 0.79824,1.743384 0.79829,1.743524 -1.22527,0.443595 -1.22528,0.443695 0.84823,1.852393 0.84809,1.85243 -0.85765,0.310596 c -0.75152,0.272135 -0.82678,0.378061 -0.60825,0.855443 0.22672,0.495093 0.34461,0.510742 1.29251,0.170997 1.60781,-0.576481 1.88826,-0.443391 1.76554,0.836533 -0.12998,1.355617 -0.0616,1.495123 0.69459,1.416905 0.5333,-0.05545 0.45623,0.106833 -0.58917,1.237858 -1.70766,1.847442 -1.74189,1.9382 -1.18787,3.148173 l 0.4867,1.062925 -0.85764,0.310593 -0.85776,0.310645 0.89803,1.961285 0.89807,1.9614056 -0.85773,0.3105348 -0.85765,0.3105969 0.89802,1.9612735 0.89797,1.9614 -1.1027,0.3993147 -1.10271,0.3993189 0.89133,1.9468182 0.89146,1.94688548 -0.64232,0.31301212 c -0.62729,0.3057157 -0.62711,0.3591646 0.01,2.2998979 l 0.65207,1.9868846 -0.71044,0.2572124 c -0.57904,0.2096779 -0.71209,0.4208236 -0.71947,1.1415873 -0.005,0.4864493 0.21389,1.3713304 0.48659,1.9664905 0.46628,1.0185673 0.4576,1.1005489 -0.14689,1.3951481 -0.63642,0.310175 -0.6354,0.32966 0.10962,2.136731 l 0.75211,1.823644 -0.84784,0.306938 -0.84771,0.306979 0.94788,2.07028 0.94788,2.070369 -0.98016,0.354851 -0.98022,0.354976 0.89803,1.96127 0.89802,1.961417 -1.10267,0.399304 -1.10278,0.399348 0.84805,1.852318 0.8482,1.852405 -0.73521,0.266176 -0.73511,0.266232 0.89804,1.961295 0.89794,1.961422 -0.70644,0.255856 c -0.86227,0.312214 -0.83927,0.715172 0.16693,2.92473 l 0.71971,1.581259 -0.73509,0.266223 -0.73521,0.266277 0.89805,1.961279 c 0.89134,1.946821 0.89337,1.963095 0.28542,2.18323 -0.61046,0.221093 -0.60919,0.229298 0.33524,2.292156 l 0.94798,2.070291 -0.97065,0.351511 -0.97066,0.351512 0.80223,1.932528 0.8022,1.932449 -1.13359,0.487888 -1.13362,0.487895 3.73629,8.160379 c 3.66979,8.015078 3.72799,8.163397 3.24618,8.337848 -0.45372,0.164355 -0.42352,0.32278 0.40799,2.138793 l 0.89792,1.961383 -0.85767,0.3105 -0.85766,0.310612 0.94798,2.0703 0.94786,2.070309 -0.85766,0.310603 -0.85763,0.310591 0.54875,1.198577 c 0.37172,0.811865 0.64816,1.163859 0.85665,1.091017 0.21272,-0.07442 0.22672,-0.0071 0.0451,0.219477 -0.19724,0.24566 0.0107,0.990195 0.8363,2.996052 1.08548,2.635882 1.09188,2.671517 0.51659,2.879807 -0.5723,0.207289 -0.56591,0.246814 0.36555,2.281202 l 0.94791,2.070381 -0.98018,0.354863 -0.9802,0.354976 0.8481,1.852414 0.84809,1.852415 -0.81291,0.29427 c -0.76747,0.277937 -0.80621,0.367694 -0.69257,1.606989 0.0664,0.721863 0.26227,1.622658 0.43523,2.001805 0.17325,0.379066 0.2028,0.729948 0.0644,0.780007 -0.13804,0.05022 -0.2447,0.403001 -0.23689,0.784491 0.0247,1.20296 0.75038,5.17311 1.2948,7.0841 0.82844,2.90548 1.55842,7.06483 1.78384,10.15686 0.11406,1.56562 0.26327,3.14368 0.33154,3.50674 0.0687,0.36307 -0.0735,1.15756 -0.31489,1.76551 -0.77732,1.95714 -0.44911,2.59749 1.23577,2.41125 0.61814,-0.0682 1.12054,0.0156 1.20561,0.20136 0.11403,0.24843 -0.22459,0.45258 -1.53956,0.92881 -1.07663,0.38981 -1.73353,0.74601 -1.81881,0.98613 -0.23973,0.67477 0.1079,10.37851 0.44185,12.34249 0.23983,1.40968 0.68444,2.70508 1.69601,4.91163 1.15087,2.51831 1.31155,3.01837 1.00271,3.13023 -0.202,0.0736 -0.27933,0.32584 -0.17143,0.56139 0.4459,0.97409 -1.10374,3.45714 -2.46533,3.9503 -0.27301,0.0988 -0.8602,0.50998 -1.30499,0.91359 l -0.80866,0.73382 0.87449,1.91 0.87446,1.90991 -0.73506,0.26621 -0.73518,0.26627 0.898,1.96131 c 0.89135,1.94681 0.89335,1.963 0.28543,2.18322 -0.6105,0.22102 -0.60913,0.22937 0.33528,2.29217 0.94468,2.06302 0.94611,2.07104 0.33533,2.29219 -0.60809,0.22022 -0.606,0.23641 0.28543,2.18316 0.89132,1.94681 0.89334,1.96297 0.28542,2.18322 l -0.61267,0.22181 0.99782,2.17926 0.99782,2.17929 -0.7352,0.26617 -0.73513,0.26614 0.89796,1.96133 0.898,1.96137 -0.6301,0.22813 c -1.04658,0.37897 -1.11902,0.94309 -0.33961,2.64547 0.68614,1.49845 0.68867,1.54717 0.0931,1.76287 l -0.61265,0.2218 0.9978,2.17927 0.99785,2.17928 -0.7352,0.26627 -0.7351,0.26623 0.89795,1.96132 0.89806,1.9614 -0.74121,0.26835 c -0.93367,0.33811 -0.95174,1.02571 -0.0768,2.93647 0.54656,1.19355 0.5722,1.41567 0.19254,1.66839 -0.24079,0.1603 -0.35619,0.47264 -0.25632,0.69406 0.0999,0.22142 0.14701,1.02828 0.10494,1.79287 -0.0422,0.76462 0.0448,1.8193 0.1933,2.34362 0.35908,1.27004 0.47851,2.52925 0.24666,2.6131 -0.23613,0.0851 -0.0643,1.73076 0.34183,3.27394 0.36704,1.38807 0.92055,2.00106 1.75895,1.94178 0.47367,-0.0364 0.55111,0.0253 0.35447,0.27056 -0.1382,0.1724 -0.53189,0.41682 -0.87468,0.54314 -0.90497,0.3335 -1.01447,0.78505 -0.41553,1.71536 0.4752,0.73809 0.47188,0.91576 -0.0338,1.86495 -0.30745,0.5771 -0.47611,1.23237 -0.37461,1.45629 0.10164,0.22385 0.1,0.7806 -0.003,1.2371 -0.12709,0.56238 -0.019,1.19945 0.33467,1.97486 l 0.52197,1.14479 -0.85766,0.3106 -0.8577,0.31052 0.89808,1.9614 0.89801,1.9613 -0.73522,0.26628 -0.73506,0.26621 0.94789,2.07031 0.94788,2.07028 -0.82904,0.30024 c -0.99167,0.35922 -0.99227,0.69219 -0.005,2.86017 l 0.66987,1.47239 -0.98022,0.35488 -0.98015,0.35494 0.89795,1.96141 0.89802,1.96131 -0.98015,0.35495 -0.98023,0.35487 0.89806,1.9614 0.89802,1.96131 -0.9802,0.35496 -0.98025,0.35499 0.84818,1.85233 c 0.8381,1.83069 0.84071,1.85513 0.2356,2.07424 -0.6105,0.22102 -0.6093,0.22926 0.33526,2.29222 l 0.94789,2.0703 -0.98023,0.35497 -0.98018,0.35487 0.89806,1.96139 0.89793,1.96132 -0.8576,0.31067 -0.85771,0.31053 0.85065,1.85785 0.85064,1.85784 -0.67528,0.39689 -0.67525,0.39701 0.88551,1.93415 0.88562,1.93405 -0.85767,0.31061 -0.85767,0.3105 0.89792,1.96142 0.89802,1.9613 -1.10267,0.39931 -1.1027,0.39931 0.84808,1.85241 0.84811,1.85242 -1.34772,0.48802 -1.34773,0.48803 0.84809,1.85241 0.84807,1.85233 -1.7153,0.6212 -1.71528,0.62119 0.69852,1.5255 0.69848,1.52545 -0.94373,0.34175 -0.94374,0.34176 1.20874,3.06573 c 1.36785,3.46962 3.19194,6.63198 4.37811,7.59057 1.82149,1.47194 5.07027,11.55651 5.37918,16.69696 0.0791,1.31759 0.29564,2.44109 0.54237,2.8133 0.31963,0.48258 0.31754,0.73962 -0.01,1.1613 -0.35146,0.45282 -0.3352,0.72724 0.0991,1.6755 0.81001,1.76922 0.89218,3.54058 0.22651,4.90682 l -0.57846,1.18785 1.22901,2.68426 c 1.41088,3.08162 1.82394,3.46939 3.39654,3.18897 l 0.98289,-0.17523 -1.07017,0.70718 c -0.58858,0.38896 -1.13314,0.84023 -1.21021,1.00293 -0.2767,0.58406 0.42032,1.04493 1.6838,1.11336 l 1.28501,0.0695 -1.44797,0.7024 c -0.97633,0.47359 -1.51527,0.88205 -1.65455,1.2539 -0.1135,0.3033 -0.10664,2.09506 0.0153,3.98165 0.12204,1.88658 0.23693,4.49735 0.25537,5.80165 0.0214,1.52689 0.22632,2.91994 0.57485,3.91128 0.50875,1.447 0.51399,1.82918 0.0488,3.57002 -0.30635,1.14649 1.1648,5.20585 3.18268,8.78203 1.87642,3.3254 3.20332,4.96445 4.08595,5.04691 0.88042,0.0824 7.16508,-1.88432 9.99072,-3.12633 1.3734,-0.60365 2.51072,-1.11299 2.52729,-1.1318 0.0166,-0.0189 0.0708,-0.53483 0.12041,-1.14661 0.0495,-0.61185 0.50183,-2.17614 1.00504,-3.47629 1.40987,-3.64181 1.43774,-5.98459 0.12722,-10.68218 -0.17802,-0.63675 -0.0676,-1.31289 0.38536,-2.36594 0.40794,-0.94846 0.54697,-1.68707 0.38967,-2.07092 -0.20127,-0.49219 -0.11275,-0.67464 0.50658,-1.042 0.41301,-0.24501 0.81902,-0.5891 0.90223,-0.76471 0.0832,-0.1756 -0.14328,-1.17907 -0.50308,-2.22991 -0.64577,-1.8845 -0.74487,-2.95158 -0.28895,-3.11664 0.1283,-0.0461 0.23771,-0.45768 0.24343,-0.91387 0.006,-0.45617 0.33476,-1.74718 0.73128,-2.86895 0.39652,-1.12171 0.75567,-2.75174 0.79804,-3.62221 0.0714,-1.46838 0.35112,-2.16423 1.5144,-3.76913 0.24679,-0.34041 0.35923,-0.81414 0.25005,-1.05275 -0.10944,-0.23857 0.10119,-1.04239 0.46773,-1.78626 0.38318,-0.77783 0.57496,-1.55195 0.45135,-1.82203 -0.38773,-0.84673 -0.13905,-1.4054 0.86587,-1.94766 1.9874,-1.07215 4.99864,-5.20974 4.53248,-6.22791 -0.0859,-0.18654 0.0345,-0.76691 0.26654,-1.28958 0.25583,-0.5762 0.31572,-1.18222 0.15229,-1.53931 -0.49974,-1.09128 -0.40331,-2.13342 0.23298,-2.51726 1.23989,-0.74808 1.50462,-1.17772 1.64033,-2.66169 0.0765,-0.83626 0.28603,-1.79145 0.46575,-2.12276 0.17976,-0.33129 0.28575,-0.69221 0.23547,-0.80205 -0.0508,-0.10979 0.007,-0.40675 0.12643,-0.65977 0.15917,-0.33606 -0.009,-0.95461 -0.62283,-2.29682 l -0.84105,-1.83684 0.98025,-0.35499 0.98011,-0.35493 -0.8481,-1.85241 -0.84812,-1.8524 0.7351,-0.26623 0.73516,-0.26626 -0.84811,-1.8524 c -0.78161,-1.70707 -0.80972,-1.86628 -0.35814,-2.02984 0.45364,-0.16413 0.42362,-0.32278 -0.40113,-2.12417 -0.80365,-1.75527 -0.8494,-1.97768 -0.46456,-2.26247 0.38483,-0.28481 0.3391,-0.50721 -0.46459,-2.26254 -0.88413,-1.93115 -0.88662,-1.94835 -0.27866,-2.16849 0.61052,-0.22102 0.6093,-0.22924 -0.33524,-2.29213 -0.77605,-1.69499 -0.88125,-2.09445 -0.58049,-2.20342 0.30105,-0.10882 0.1958,-0.5084 -0.5805,-2.20342 l -0.94796,-2.07028 0.73521,-0.26618 0.73513,-0.26614 -1.8958,-4.14068 -1.89585,-4.14067 0.9802,-0.35497 0.98025,-0.3549 -0.84819,-1.85237 -0.84807,-1.85234 1.22526,-0.44369 1.22516,-0.44365 -0.84812,-1.85244 -0.84811,-1.8524 1.10272,-0.39932 1.10268,-0.39931 -0.89801,-1.9613 -0.89798,-1.9614 1.22528,-0.44369 c 1.14349,-0.41412 1.20856,-0.47994 0.97578,-0.98853 -0.18489,-0.40407 -0.37931,-0.49779 -0.75207,-0.36281 -0.34276,0.12429 -0.72762,-0.0189 -1.21012,-0.45096 -0.38929,-0.34808 -0.98238,-0.67524 -1.3182,-0.72701 -0.33591,-0.0517 -0.63834,-0.15455 -0.67222,-0.22854 -0.0333,-0.0743 0.59102,-0.44461 1.38861,-0.82369 2.58417,-1.22836 2.83572,-2.37902 0.67571,-3.09094 -0.97384,-0.3209 -1.24742,-0.54055 -1.58102,-1.26932 -0.41161,-0.89897 -0.21564,-1.86091 0.38403,-1.88529 0.18549,-0.005 0.46309,0.37367 0.66559,0.91356 0.26013,0.69327 0.4383,0.89371 0.70783,0.79604 1.48116,-0.5364 2.8887,-9.74378 1.95268,-12.7738 -0.2579,-0.83623 -0.24206,-1.3747 0.0606,-2.01372 0.58751,-1.24015 0.59363,-1.71016 0.0384,-2.92287 -0.62633,-1.36795 -1.49491,-2.24433 -2.17626,-2.19616 -0.92712,0.0626 -0.50307,-0.37943 0.98335,-1.03249 0.78872,-0.34674 1.51162,-0.79355 1.60618,-0.99314 0.27784,-0.58675 -0.50515,-1.87862 -1.30244,-2.14812 -1.05077,-0.35532 -1.85864,-2.34402 -1.06843,-2.63015 0.64107,-0.23219 1.39204,-2.01741 1.53833,-3.65664 0.0812,-0.90973 -0.0796,-3.1367 -0.35722,-4.94872 -0.79835,-5.21137 -0.89498,-9.91087 -0.22652,-11.02174 0.13824,-0.22974 0.5008,-0.43129 0.81553,-0.45352 0.52386,-0.0404 0.52557,-0.12992 0.0195,-1.23525 -0.34907,-0.76239 -0.45132,-1.26816 -0.28288,-1.39668 0.17862,-0.13609 -0.005,-0.86238 -0.5626,-2.23083 -0.63535,-1.55488 -0.74883,-2.05768 -0.4854,-2.15306 0.18887,-0.068 0.27578,-0.27136 0.19344,-0.45124 -0.0933,-0.20326 0.0818,-0.41061 0.46301,-0.54874 0.58217,-0.21077 0.58423,-0.28419 0.0416,-1.47584 -0.31276,-0.69017 -0.67113,-1.64661 -0.79333,-2.12639 -0.19817,-0.77141 -0.14131,-0.90148 0.4808,-1.12676 l 0.70311,-0.25457 -0.94789,-2.07028 -0.94797,-2.0704 0.85769,-0.31051 0.85763,-0.3106 -0.84809,-1.85237 c -0.49892,-1.08969 -0.7472,-1.88894 -0.60307,-1.94112 0.15372,-0.0556 -0.38777,-1.46877 -1.45119,-3.79352 l -1.6963,-3.7048 0.73509,-0.26622 0.7352,-0.26618 -0.94791,-2.07039 c -0.77602,-1.69494 -0.8812,-2.09442 -0.58045,-2.20331 0.30101,-0.10879 0.19569,-0.50843 -0.5805,-2.20345 l -0.94795,-2.07027 1.10267,-0.3993 1.10282,-0.39936 -0.84816,-1.85227 -0.84813,-1.85245 0.98025,-0.35488 0.98011,-0.35494 -0.89794,-1.96144 -0.89803,-1.96131 1.34773,-0.48802 1.34771,-0.48811 -0.79221,-1.73026 -0.79225,-1.73032 0.86274,-0.39116 0.86279,-0.39126 -0.79384,-4.66672 c -0.43666,-2.56668 -1.04096,-6.52084 -1.34314,-8.78686 -0.30212,-2.26607 -0.74153,-4.71417 -0.97657,-5.44025 -0.39392,-1.21806 -0.47226,-1.31471 -1.00975,-1.25184 -0.72363,0.0844 -0.8133,-0.0913 -0.4181,-0.82125 0.22486,-0.41536 0.18286,-0.84874 -0.1532,-1.58278 -0.43607,-0.95211 -0.42224,-1.03953 0.23764,-1.50754 0.38516,-0.27311 0.65913,-0.67478 0.60876,-0.89246 -0.13696,-0.59272 -1.40755,-0.96679 -2.24849,-0.66226 -0.89571,0.32436 -1.12266,0.0142 -0.35565,-0.48585 0.30661,-0.19997 0.57147,-0.66643 0.58849,-1.03666 0.0283,-0.61599 -0.0633,-0.69993 -1.0692,-0.98557 l -1.10001,-0.31224 0.88917,-0.47819 c 2.73336,-1.46993 2.85372,-1.82783 1.0763,-3.20226 -1.21954,-0.94315 -1.27556,-1.0275 -1.33526,-2.01174 -0.0452,-0.74719 0.0819,-1.10209 0.46606,-1.30113 0.46294,-0.23996 0.54029,-0.19759 0.62679,0.34469 0.13211,0.82576 0.56783,0.64883 1.59599,-0.64759 1.12176,-1.41442 1.33466,-2.09016 1.11969,-3.55285 -0.30733,-2.090323 -2.21503,-8.071985 -4.12321,-12.92817 -2.58303,-6.574009 -3.7445,-11.03553 -3.28655,-12.626187 0.4383,-1.523449 0.54147,-4.157105 0.2044,-5.221592 -0.29557,-0.93492 -0.25592,-1.079686 0.47228,-1.704208 0.98016,-0.840667 1.88519,-3.06088 1.72676,-4.235893 -0.065,-0.480932 -0.0428,-1.27601 0.0484,-1.766591 0.0915,-0.490609 0.0553,-1.134942 -0.0806,-1.431702 -0.19228,-0.420944 -0.12063,-0.585326 0.32825,-0.747814 0.38309,-0.1387 0.84029,-0.806793 1.36835,-1.99949 0.87506,-1.976609 0.9451,-2.713825 0.37603,-3.956816 -0.45412,-0.991718 -0.28594,-1.177378 1.72236,-1.904669 l 1.45015,-0.525248 -0.74831,-1.634517 -0.74828,-1.634459 0.98013,-0.354939 0.98022,-0.354976 -0.84821,-1.852388 -0.84809,-1.852331 1.10272,-0.399326 c 0.93938,-0.340158 1.07318,-0.463901 0.90322,-0.835194 -0.10981,-0.239706 -0.0894,-0.47574 0.0455,-0.524649 0.13815,-0.05023 -0.0377,-0.706126 -0.40319,-1.50531 -0.62536,-1.365652 -0.62659,-1.424476 -0.036,-1.638384 0.51728,-0.187292 0.5661,-0.323481 0.31329,-0.875572 -0.19922,-0.435928 -0.17925,-0.697713 0.0683,-0.786881 0.28592,-0.103253 0.2346,-0.423737 -0.23111,-1.440749 -0.33259,-0.726409 -0.48981,-1.346991 -0.35843,-1.395277 0.13473,-0.04881 0.11039,-0.382975 -0.0543,-0.742547 -0.26614,-0.581094 -0.2176,-0.683334 0.43573,-0.919998 l 0.73523,-0.266182 -0.94798,-2.070289 -0.94793,-2.070409 0.85771,-0.310524 0.85768,-0.310511 -0.94791,-2.070368 -0.94785,-2.070311 0.84805,-0.307124 0.84819,-0.307177 -0.80223,-1.932543 -0.80239,-1.932441 0.88801,-0.400422 0.88795,-0.400394 -0.84204,-1.839212 -0.84216,-1.839188 0.73514,-0.266342 0.73513,-0.266144 -0.94788,-2.070311 -0.94796,-2.070284 1.10278,-0.3993485 1.10269,-0.3993106 -0.84809,-1.8524218 c -0.83819,-1.8305527 -0.84079,-1.8550136 -0.23556,-2.0742306 0.57919,-0.2097421 0.58271,-0.2871997 0.0638,-1.4204309 -0.48221,-1.0532879 -0.48935,-1.2201074 -0.0586,-1.3760863 0.45564,-0.1649617 0.4235,-0.3227452 -0.45783,-2.24777079 l -0.94797,-2.07029441 0.73521,-0.2662738 0.73513,-0.2661432 -0.89806,-1.961306 c -0.73172,-1.5981329 -0.8299,-1.9860293 -0.52771,-2.0949973 0.28831,-0.1043418 0.23152,-0.4263357 -0.26325,-1.4925867 l -0.63109,-1.3593302 -0.40203,0.9752577 c -0.27016,0.6551655 -0.29734,1.2072293 -0.0832,1.6815203 0.49418,1.0935076 0.2886,1.5332094 -0.41883,0.8964649 -0.32525,-0.2927099 -0.90928,-0.5437619 -1.29799,-0.5578843 -1.00418,-0.036575 -1.19203,-0.6923024 -0.7113,-2.481432 0.24435,-0.9083915 0.31007,-1.9411975 0.16016,-2.5155005 -0.13779,-0.536383 -0.15446,-1.410721 -0.0323,-1.943943 0.13547,-0.591491 0.0554,-1.50387 -0.20558,-2.339168 -0.23554,-0.753158 -0.42184,-2.025453 -0.41554,-2.827101 0.0151,-1.816941 -0.0273,-1.90498 -1.04491,-2.16502 l -0.8303,-0.212159 0.45101,-0.460145 c 0.36632,-0.373621 0.36995,-0.600704 0.0195,-1.208359 -0.37436,-0.649145 -0.35596,-0.815684 0.13847,-1.257548 0.31352,-0.280138 0.76515,-0.855122 1.00369,-1.277806 0.39038,-0.691649 0.36846,-0.911154 -0.22004,-2.195391 -0.58679,-1.281705 -0.60345,-1.4451 -0.16341,-1.604456 0.45567,-0.164969 0.42353,-0.322781 -0.45781,-2.247809 l -0.94796,-2.070256 1.10278,-0.399348 1.1027,-0.399315 -0.89802,-1.961369 -0.89806,-1.961313 1.22527,-0.443694 1.22525,-0.443684 -0.84819,-1.852395 -0.84812,-1.852447 1.43283,-0.518877 1.43288,-0.518801 -0.9637,-2.509266 c -0.53003,-1.380061 -3.39906,-7.829534 -6.37561,-14.33218 l -5.41307,-11.822534 0.73519,-0.266266 0.73504,-0.266301 -0.94788,-2.070274 -0.94789,-2.070318 0.73512,-0.266141 0.73517,-0.266356 -0.94797,-2.070274 -0.94788,-2.070291 1.47028,-0.53239 1.47029,-0.532495 -0.74827,-1.63444 -0.74848,-1.634413 1.96046,-0.709988 1.96034,-0.709865 -0.59865,-1.307565 -0.59873,-1.30753 2.08282,-0.754251 2.08304,-0.754322 -0.39914,-0.871713 -0.39913,-0.871714 1.95564,-0.708166 c 1.82653,-0.661476 1.94945,-0.743649 1.86034,-1.245365 -0.0522,-0.295471 -0.30607,-1.546823 -0.56398,-2.780894 -0.25755,-1.234192 -0.62607,-3.030186 -0.81848,-3.991106 -0.19249,-0.96094 -0.57478,-2.17445 -0.85022,-2.69646 -0.443,-0.84149 -0.43986,-1.04335 0.0324,-1.77659 0.45692,-0.70982 0.46942,-0.96545 0.0877,-1.79925 -0.2448,-0.53456 -0.44054,-1.38747 -0.43559,-1.89536 0.005,-0.50789 -0.0663,-0.95183 -0.15904,-0.98642 -0.0931,-0.0348 0.0602,-0.69638 0.33923,-1.47052 0.27917,-0.77403 0.46396,-1.76729 0.4107,-2.2071 -0.14006,-1.15556 -3.18315,-7.62727 -3.96021,-8.42322 -0.48352,-0.49492 -0.86161,-0.63711 -1.5336,-0.57693 -1.21274,0.10863 -1.25664,-0.1911 -0.0899,-0.61351 0.52823,-0.19123 1.11006,-0.47258 1.29306,-0.62509 0.42408,-0.35362 0.49625,-1.05506 0.14616,-1.42043 z m -72.01539,112.713303 c -0.2451,0.08854 -0.26782,0.351027 -0.0683,0.786869 0.19922,0.435937 0.42194,0.609359 0.66693,0.520656 0.24511,-0.08854 0.26784,-0.351016 0.0683,-0.786857 -0.19921,-0.435922 -0.42188,-0.609463 -0.66694,-0.520672 z m 0.25983,5.0554542 c 0.0346,0.2345899 0.17341,0.5272926 0.30857,0.6504678 0.1347,0.1231568 0.10609,-0.068953 -0.0634,-0.4264961 -0.16889,-0.3580284 -0.27977,-0.4585984 -0.24491,-0.2241014 z"
       id="path881-5-6"
       inkscape:connector-curvature="0" />
  </g>
</svg>
