<?xml version="1.0" encoding="UTF-8" standalone="no"?>
<!-- Created with Inkscape (http://www.inkscape.org/) -->

<svg
   xmlns:dc="http://purl.org/dc/elements/1.1/"
   xmlns:cc="http://creativecommons.org/ns#"
   xmlns:rdf="http://www.w3.org/1999/02/22-rdf-syntax-ns#"
   xmlns:svg="http://www.w3.org/2000/svg"
   xmlns="http://www.w3.org/2000/svg"
   xmlns:sodipodi="http://sodipodi.sourceforge.net/DTD/sodipodi-0.dtd"
   xmlns:inkscape="http://www.inkscape.org/namespaces/inkscape"
   version="1.1"
   id="svg989"
   width="1136.1028"
   height="1089.2412"
   viewBox="0 0 1136.1028 1089.2412"
   sodipodi:docname="down.svg"
   inkscape:version="0.92.4 (unknown)">
  <metadata
     id="metadata995">
    <rdf:RDF>
      <cc:Work
         rdf:about="">
        <dc:format>image/svg+xml</dc:format>
        <dc:type
           rdf:resource="http://purl.org/dc/dcmitype/StillImage" />
        <dc:title></dc:title>
      </cc:Work>
    </rdf:RDF>
  </metadata>
  <defs
     id="defs993" />
  <sodipodi:namedview
     pagecolor="#ffffff"
     bordercolor="#666666"
     borderopacity="1"
     objecttolerance="10"
     gridtolerance="10"
     guidetolerance="10"
     inkscape:pageopacity="0"
     inkscape:pageshadow="2"
     inkscape:window-width="1853"
     inkscape:window-height="1025"
     id="namedview991"
     showgrid="false"
     fit-margin-top="0"
     fit-margin-left="0"
     fit-margin-right="0"
     fit-margin-bottom="0"
     inkscape:zoom="0.22627417"
     inkscape:cx="1562.9973"
     inkscape:cy="1063.902"
     inkscape:window-x="67"
     inkscape:window-y="27"
     inkscape:window-maximized="1"
     inkscape:current-layer="svg989" />
  <g
     id="g1565"
     transform="rotate(-180,-527.7812,886.82863)"
     style="fill:#ffffff;fill-opacity:1;stroke:#dbd8d8;stroke-opacity:1">
    <path
       inkscape:connector-curvature="0"
       id="path1544"
       d="m -1787.4362,1132.2489 c -9.2628,-9.2629 -5.9069,-22.3745 19.0035,-74.2462 13.3688,-27.8381 24.3068,-54.2328 24.3068,-58.65494 0,-4.4221 4.9331,-23.36203 10.9623,-42.08874 6.0293,-18.7267 17.0005,-60.89651 24.3805,-93.71068 24.1049,-107.17826 49.1403,-184.13135 58.1023,-178.59256 11.5477,7.13689 50.1176,97.32844 85.7333,200.47846 11.29,32.69802 28.2294,77.31614 37.6431,99.15137 l 17.1158,39.70039 -9.0045,14.5696 c -11.5242,18.6465 -26.4018,28.6627 -58.0998,39.1148 -13.9764,4.6085 -25.4116,9.6378 -25.4116,11.176 0,3.829 -24.551,11.2223 -79.5495,23.9558 -25.5222,5.909 -55.1061,13.8276 -65.7421,17.5968 -23.2419,8.2367 -32.3937,8.5963 -39.4401,1.5499 z"
       style="fill:#ffffff;fill-opacity:1;fill-rule:evenodd;stroke:#dbd8d8;stroke-width:0.43428606;stroke-miterlimit:4;stroke-dasharray:none;stroke-opacity:1;paint-order:stroke markers fill" />
    <path
       inkscape:connector-curvature="0"
       id="path1546"
       d="m -1629.221,1769.4796 c -54.4058,-3.5852 -64.651,-5.9349 -97.6232,-22.3897 -13.5866,-6.7804 -39.4401,-15.261 -57.4524,-18.8459 -33.2024,-6.608 -113.3257,-39.3653 -136.2995,-55.7241 -13.8849,-9.8869 -25.765,-35.4601 -29.654,-63.8333 -1.8567,-13.5462 0.4361,-26.7487 8.5548,-49.261 21.1315,-58.5953 62.3293,-154.6206 77.6609,-181.0151 34.0713,-58.6562 86.7179,-88.0905 177.361,-99.1613 27.306,-3.3351 39.4212,-6.8342 44.3619,-12.8127 5.4796,-6.6307 25.03,-13.5517 44.763,-15.8465 1.6204,-0.1885 4.4378,-1.8342 6.2608,-3.6572 1.823,-1.823 7.5034,-3.3146 12.6231,-3.3146 5.1196,0 29.1502,-5.19 53.4012,-11.5333 64.2045,-16.794 62.982,-16.6538 75.2273,-8.6304 27.6721,18.1315 53.67,76.1666 68.4255,152.7463 13.1127,68.053 28.7341,115.3795 46.9044,142.1 37.4253,55.0364 47.5831,94.9801 35.0859,137.9689 -11.8171,40.6492 -42.1011,64.3853 -99.791,78.2142 -8.5074,2.0394 -33.25,9.7501 -54.9836,17.135 -36.1089,12.2695 -97.3958,23.3627 -119.4675,21.624 -4.9251,-0.3879 -29.8365,-2.0814 -55.3586,-3.7633 z"
       style="fill:#ffffff;fill-opacity:1;fill-rule:evenodd;stroke:#dbd8d8;stroke-width:0.43428606;stroke-miterlimit:4;stroke-dasharray:none;stroke-opacity:1;paint-order:stroke markers fill" />
    <path
       inkscape:connector-curvature="0"
       id="path1548"
       d="m -2186.9081,1269.0299 c -6.306,-5.013 -6.1885,-10.2285 1.269,-56.3476 9.9969,-61.8232 11.6295,-68.1824 34.4634,-134.2429 9.9776,-28.8661 18.1411,-55.411 18.1411,-58.9887 0,-10.4399 72.1077,-111.96551 95.6237,-134.63561 53.948,-52.00719 195.5253,-151.44143 199.6997,-140.25539 3.3774,9.05043 -20.0912,83.58898 -54.136,171.94132 -44.8342,116.35268 -48.4702,127.57008 -60.0381,185.22028 -10.4725,52.1911 -15.3265,63.3526 -36.0363,82.8632 -18.288,17.2291 -40.0332,28.2346 -95.324,48.2447 -23.7379,8.5909 -53.5706,21.4934 -66.2949,28.6724 -26.249,14.8095 -27.8121,15.1244 -37.3676,7.5283 z"
       style="fill:#ffffff;fill-opacity:1;fill-rule:evenodd;stroke:#dbd8d8;stroke-width:0.43428606;stroke-miterlimit:4;stroke-dasharray:none;stroke-opacity:1;paint-order:stroke markers fill" />
    <path
       inkscape:connector-curvature="0"
       id="path1550"
       d="m -1787.4362,1132.2489 c -9.1343,-9.1343 -6.0252,-21.3441 19.0035,-74.6303 13.3688,-28.462 24.3068,-55.6177 24.3068,-60.34599 0,-4.72827 4.1047,-20.34345 9.1215,-34.70038 5.0169,-14.35693 16.9199,-59.59899 26.4513,-100.53791 26.9436,-115.72804 48.822,-182.67191 57.8723,-177.07854 10.8761,6.7218 49.5563,96.09195 81.1219,187.43139 20.1523,58.31322 40.9479,112.12849 51.7529,133.92723 8.2559,16.6558 8.2463,16.9541 -1.029,31.9617 -9.5959,15.5266 -30.4692,32.9849 -39.437,32.9849 -2.7645,0 -18.3674,6.2521 -34.6731,13.8936 -16.3057,7.6414 -53.5116,19.4565 -82.6798,26.2557 -29.1681,6.7992 -61.7352,15.4627 -72.3712,19.2521 -23.2196,8.2727 -32.3851,8.6414 -39.4401,1.5865 z"
       style="fill:#ffffff;fill-opacity:1;fill-rule:evenodd;stroke:#dbd8d8;stroke-width:0.43428606;stroke-miterlimit:4;stroke-dasharray:none;stroke-opacity:1;paint-order:stroke markers fill" />
    <path
       inkscape:connector-curvature="0"
       id="path1552"
       d="m -1349.9498,969.50653 c -15.1429,-9.23236 -31.5126,-38.32785 -31.6868,-56.32005 -0.053,-5.51318 -9.7803,-29.37804 -21.6153,-53.033 -11.8351,-23.65497 -24.7619,-54.25317 -28.7263,-67.996 -8.0102,-27.76846 -10.045,-72.4204 -2.7884,-61.19167 2.3562,3.64602 4.3145,5.08031 4.3517,3.18732 0.091,-4.64787 104.4303,50.31042 146.7417,77.29306 33.722,21.50504 79.6655,65.9752 91.5248,88.58971 5.6738,10.81939 5.2454,13.00814 -5.2361,26.75002 -13.2349,17.35194 -47.4051,35.68839 -84.023,45.08852 -34.4348,8.8397 -51.1042,8.26383 -68.5423,-2.36791 z"
       style="fill:#ffffff;fill-opacity:1;fill-rule:evenodd;stroke:#dbd8d8;stroke-width:0.43428606;stroke-miterlimit:4;stroke-dasharray:none;stroke-opacity:1;paint-order:stroke markers fill" />
    <path
       inkscape:connector-curvature="0"
       id="path1554"
       d="m -1164.1703,1492.5671 c -10.3454,-4.1624 -18.6985,-27.3096 -29.5851,-81.9824 -5.9437,-29.8492 -25.9768,-100.6031 -44.5182,-157.2308 -26.4776,-80.866 -32.6047,-104.2932 -28.5535,-109.1746 2.837,-3.4183 15.6694,-9.2708 28.5165,-13.0056 12.8472,-3.7348 25.957,-9.9215 29.133,-13.7483 3.6986,-4.4566 9.502,-6.0224 16.1432,-4.3555 7.1209,1.7872 11.209,0.4124 13.0516,-4.3893 1.5295,-3.9859 5.5285,-5.8998 9.3019,-4.4518 3.6405,1.397 8.8529,0.8594 11.5831,-1.1947 2.7303,-2.054 14.3893,-7.2165 25.9089,-11.4721 11.5196,-4.2557 24.785,-12.6197 29.4787,-18.5868 5.3213,-6.7649 9.6467,-9.0489 11.4895,-6.0671 2.0935,3.3873 4.6092,3.4096 8.6254,0.076 4.2927,-3.5626 6.7886,-1.7362 10.2758,7.5194 24.9012,66.0917 23.543,124.2795 -5.6748,243.1086 -8.5125,34.6201 -15.4772,67.8897 -15.4772,73.9324 0,22.8036 -19.2164,69.87 -35.5272,87.0163 -15.4939,16.2874 -21.9372,18.9283 -34.1716,14.0058 z"
       style="fill:#ffffff;fill-opacity:1;fill-rule:evenodd;stroke:#dbd8d8;stroke-width:0.43428606;stroke-miterlimit:4;stroke-dasharray:none;stroke-opacity:1;paint-order:stroke markers fill" />
    <path
       inkscape:connector-curvature="0"
       id="path1556"
       d="m -1631.4307,1769.2301 c -52.357,-3.6193 -61.8286,-5.8608 -100.1569,-23.7023 -13.7648,-6.4074 -38.624,-14.3973 -55.2428,-17.7554 -37.1114,-7.4989 -121.4663,-43.9861 -138.5187,-59.9154 -16.0025,-14.9486 -28.5438,-56.0638 -24.6082,-80.6753 3.6659,-22.9256 66.0133,-174.3487 85.96,-208.7712 33.9691,-58.6214 86.6631,-88.0884 177.3239,-99.1613 27.306,-3.3351 39.4212,-6.8342 44.3619,-12.8127 5.4796,-6.6307 25.03,-13.5517 44.763,-15.8465 1.6204,-0.1885 4.4378,-1.8342 6.2608,-3.6572 1.823,-1.823 7.5034,-3.3146 12.6231,-3.3146 5.1196,0 29.1502,-5.19 53.4012,-11.5333 64.2045,-16.794 62.982,-16.6538 75.2273,-8.6304 14.3539,9.4051 37.8641,46.2865 49.4767,77.6162 4.9552,13.3687 13.3376,46.1829 18.6275,72.9203 14.2771,72.1627 29.2242,117.8375 47.2257,144.3098 46.278,68.055 52.7128,124.8023 19.3709,170.8295 -13.128,18.1227 -49.0215,38.0077 -81.4267,45.1104 -9.9645,2.1841 -35.8993,10.0088 -57.6329,17.3882 -36.0463,12.2392 -97.2462,23.3251 -119.4675,21.6406 -4.9251,-0.3733 -30.8308,-2.1911 -57.5683,-4.0394 z"
       style="fill:#ffffff;fill-opacity:1;fill-rule:evenodd;stroke:#dbd8d8;stroke-width:0.43428606;stroke-miterlimit:4;stroke-dasharray:none;stroke-opacity:1;paint-order:stroke markers fill" />
  </g>
</svg>
