<?xml version="1.0" encoding="UTF-8" standalone="no"?>
<!-- Created with Inkscape (http://www.inkscape.org/) -->

<svg
   xmlns:dc="http://purl.org/dc/elements/1.1/"
   xmlns:cc="http://creativecommons.org/ns#"
   xmlns:rdf="http://www.w3.org/1999/02/22-rdf-syntax-ns#"
   xmlns:svg="http://www.w3.org/2000/svg"
   xmlns="http://www.w3.org/2000/svg"
   xmlns:sodipodi="http://sodipodi.sourceforge.net/DTD/sodipodi-0.dtd"
   xmlns:inkscape="http://www.inkscape.org/namespaces/inkscape"
   width="422.47275mm"
   height="386.05908mm"
   viewBox="0 0 422.47276 386.05908"
   version="1.1"
   id="svg8"
   inkscape:version="0.92.5 (2060ec1f9f, 2020-04-08)"
   sodipodi:docname="downboat.svg">
  <defs
     id="defs2" />
  <sodipodi:namedview
     id="base"
     pagecolor="#ffffff"
     bordercolor="#666666"
     borderopacity="1.0"
     inkscape:pageopacity="0.0"
     inkscape:pageshadow="2"
     inkscape:zoom="0.45254834"
     inkscape:cx="575.4528"
     inkscape:cy="743.40986"
     inkscape:document-units="mm"
     inkscape:current-layer="layer1"
     showgrid="false"
     fit-margin-top="0"
     fit-margin-left="0"
     fit-margin-right="0"
     fit-margin-bottom="0"
     inkscape:window-width="1858"
     inkscape:window-height="1016"
     inkscape:window-x="62"
     inkscape:window-y="27"
     inkscape:window-maximized="1" />
  <metadata
     id="metadata5">
    <rdf:RDF>
      <cc:Work
         rdf:about="">
        <dc:format>image/svg+xml</dc:format>
        <dc:type
           rdf:resource="http://purl.org/dc/dcmitype/StillImage" />
        <dc:title />
      </cc:Work>
    </rdf:RDF>
  </metadata>
  <g
     inkscape:label="Layer 1"
     inkscape:groupmode="layer"
     id="layer1"
     transform="translate(215.44424,-58.747721)">
    <path
       style="fill:#202020;fill-opacity:1;stroke:#6c70a0;stroke-width:0;stroke-miterlimit:4;stroke-dasharray:none;stroke-opacity:1"
       d="m 31.067667,299.98214 c 0,0 -25.3317356,36.25107 -40.4262194,51.85259 -27.9493806,20.18069 -70.2945006,64.10783 -21.3704896,15.67733 l -0.683654,-0.49993 c -5.58561,-4.08493 -7.615834,-5.95952 -10.835807,-10.00515 -3.40923,-4.28344 -3.029339,-3.94661 -4.83504,-4.28701 -3.355871,-0.63267 -5.945877,0.26561 -8.499239,2.94759 -0.859091,0.90234 -2.02603,2.62727 -3.715564,5.49221 -2.156487,3.65772 -2.59825,4.27209 -3.550156,4.94427 -4.240934,2.99466 -14.186291,5.24932 -30.778434,6.97767 -6.374384,0.66403 -16.495694,1.41494 -17.854204,1.32466 -0.62532,-0.0415 -5.35714,-0.67996 -10.51521,-1.4187 l -9.37831,-1.34324 -2.31405,3.60992 c -7.40426,11.55061 -20.99375,25.99958 -34.29555,36.46465 -8.46033,6.65606 -18.4542,12.4262 -25.1457,14.51816 l -1.86015,0.58156 2.23669,-2.50673 c 14.39949,-16.1381 23.19327,-35.30574 22.68716,-49.45086 -0.0992,-2.77395 -0.82924,-6.60883 -1.54339,-8.10783 -0.36241,-0.76079 -0.45038,-0.81438 -1.80785,-1.09554 -1.40212,-0.29066 -1.43302,-0.31125 -1.78691,-1.19023 -0.5186,-1.28832 -0.44317,-2.52454 0.17248,-2.84257 0.27607,-0.14258 14.61951,1.79439 32.76531,4.42463 17.75082,2.57303 32.42336,4.63879 32.60563,4.59063 0.18226,-0.0482 10.406638,-13.82217 22.720805,-30.60881 12.314179,-16.78671 22.77557,-30.84791 23.247547,-31.24714 1.772321,-1.49915 4.697727,-3.18711 6.368835,-3.67484 1.295033,-0.378 2.233789,-0.41286 3.735524,-0.13954 2.96406,0.53979 4.505034,0.26822 6.771486,-1.19354 2.062195,-1.32995 2.226629,-1.51486 8.593628,-9.66317 11.226168,-14.3669 22.936187,-33.07832 22.936187,-33.07832 l 13.723317,20.45167 26.374304,-13.07694 10.994431,24.30301 c 0,0 -2.738768,3.84726 -4.737417,7.2695 -2e-6,-10e-6 -9e-6,-3e-5 -10e-6,-4e-5 z m -168.958577,70.72055 c -1.08944,-0.15347 -8.32419,-1.16344 -16.07726,-2.24442 l -14.0965,-1.96539 1.94491,1.01679 c 4.29076,2.24326 10.95876,4.51394 15.36059,5.23081 3.11363,0.50708 6.75938,0.56381 9.21711,0.14345 1.91209,-0.32707 5.33212,-1.39144 5.52459,-1.71937 0.059,-0.10063 -0.78402,-0.30842 -1.87344,-0.46187 z M -35.230789,252.37358 c -3.606721,-2.21608 -5.528592,-3.06287 -8.758158,-3.86065 -8.593781,-2.12286 -15.698032,2.43781 -20.952399,13.45071 -3.289184,6.89393 -5.561664,13.77099 -10.422932,31.5417 -4.19107,15.32078 -6.286836,21.92758 -9.191619,28.97612 -1.533156,3.72021 -4.760635,10.13119 -5.020024,9.97162 -0.08343,-0.0513 -0.488558,-1.0431 -0.900246,-2.20394 -6.875789,-19.3884 -22.982153,-31.20722 -45.358143,-33.28373 -7.36401,-0.68338 -15.02863,-0.43876 -21.81975,0.69639 -2.27103,0.37955 -2.86098,0.60449 -3.86491,1.47306 -0.65164,0.56378 -1.2452,0.90521 -1.31926,0.75825 -0.6079,-1.20662 18.30534,-28.85205 42.82398,-62.59566 15.55562,-21.40835 29.286071,-33.30224 42.272236,-36.618 5.309919,-1.35578 9.812469,-1.29919 14.935126,0.1878 2.863923,0.83129 8.565951,4.25734 11.080446,6.65762 2.287928,2.18403 5.668811,6.24524 7.509001,9.02008 6.629989,9.99734 11.824311,25.85063 12.065878,36.82552 l 0.01994,0.9067 -3.099408,-1.90403 z m -77.136621,-35.09075 c -9.8311,-6.0472 -16.90995,-4.84475 -21.93236,3.72556 -2.52096,4.30118 -4.34186,9.81388 -7.23939,21.91333 -2.78543,11.63122 -3.36211,13.86505 -4.81852,18.6648 -1.54933,5.10597 -3.16455,9.17103 -4.64908,11.70026 l -1.05332,1.79458 -1.29239,-2.80508 c -5.19933,-11.28494 -14.30611,-19.32299 -26.7046,-23.57069 -7.7159,-2.64345 -17.63249,-3.84278 -26.29866,-3.18061 -3.97581,0.30385 -4.16594,0.33469 -4.40218,0.71483 -0.11181,0.17982 -0.50621,0.50638 -0.87655,0.72563 l -0.67335,0.39859 0.23633,-0.79575 c 0.51593,-1.73722 7.31623,-11.68649 18.24916,-26.69967 9.74238,-13.3783 16.03788,-21.73809 18.69328,-24.82283 13.6455,-15.85174 26.27648,-21.67164 38.39136,-17.68929 3.18666,1.04751 7.9227,4.08939 10.80053,6.93699 7.1885,7.11302 12.97075,18.0096 15.47143,29.15569 0.41362,1.84353 0.78415,3.84732 0.82344,4.45287 l 0.0714,1.10097 z"
       id="path32"
       inkscape:connector-curvature="0"
       sodipodi:nodetypes="ccccccccsscccccscssccccscscccsccccccccccccsccccscscscccsccsccccccsssscssccccssscscccss" />
    <path
       style="fill:#202020;fill-opacity:1;stroke:#6c70a0;stroke-width:0;stroke-miterlimit:4;stroke-dasharray:none;stroke-opacity:1"
       d="M 27.461456,247.53093 38.868467,227.8982 c 0,0 43.186297,-5.80088 63.083353,-12.29827 24.00688,-7.8395 45.74446,-19.01276 65.7735,-33.80801 9.49457,-7.01359 15.7809,-12.38447 25.16817,-21.50313 3.56837,-3.46629 6.18819,-5.86853 5.82182,-5.33833 -3.26902,4.73053 -12.53795,17.09121 -19.18799,25.58843 -19.88849,25.41272 -49.00546,59.06276 -76.03071,87.86738 -2.75946,2.94118 -5.115486,5.50766 -5.235654,5.70338 -0.161474,0.26294 -0.05188,0.32053 0.419534,0.2207 4.32318,-0.91572 11.00078,-2.16474 11.08661,-2.07379 0.0607,0.0643 -2.88765,1.07038 -6.55168,2.23581 -25.27662,8.03995 -78.767246,13.7849 -78.767246,13.7849 L 44.214202,264.8848 Z m 91.674364,-46.09987 c -0.24287,-7.833 -2.56766,-12.56964 -7.36643,-15.00852 -2.77202,-1.40884 -5.06255,-1.87653 -9.61766,-1.96361 -6.825095,-0.13039 -11.64362,0.69951 -30.809757,5.30708 -17.526462,4.21337 -23.190369,5.24276 -30.600447,5.56165 -2.098795,0.0904 -3.855852,0.12629 -3.90458,0.0799 -0.04917,-0.0461 0.69347,-1.05364 1.649374,-2.23826 10.762997,-13.33901 12.240444,-28.536 4.416709,-45.4312 -2.66659,-5.75849 -5.892231,-10.8398 -10.228824,-16.11324 -1.25595,-1.52728 -1.741725,-1.90977 -2.832056,-2.23003 -3.787554,-1.11256 3.021918,-1.0648 16.572495,0.11627 15.722928,1.3704 46.910774,4.67069 53.911736,5.70491 18.86833,2.78737 31.63799,7.90934 38.8359,15.57725 7.36796,7.8491 8.21294,17.8878 2.4865,29.541 -4.20593,8.55912 -12.07107,17.72675 -19.62593,22.87616 -2.98091,2.03182 -2.76472,2.16506 -2.88697,-1.77948 z m -7.79286,-70.41804 c -0.18284,-4.95106 -1.0618,-7.88863 -3.04187,-10.16624 -1.38209,-1.58977 -3.1761,-2.60888 -5.59699,-3.17954 -4.748696,-1.11942 -10.207879,-0.2722 -25.023943,3.88356 -9.19189,2.57824 -12.866333,3.497 -16.63145,4.15849 -2.926789,0.51421 -8.923094,1.06351 -9.136795,0.83699 -0.06107,-0.0649 0.65759,-1.25129 1.597192,-2.63651 2.863049,-4.22054 4.722498,-8.60737 5.745487,-13.55484 0.618411,-2.99092 0.587423,-9.9345 -0.05973,-13.384963 -1.189202,-6.340779 -3.962117,-13.377101 -7.52503,-19.094993 -2.742811,-4.401717 -3.896326,-5.84406 -4.862002,-6.079351 -0.488598,-0.119056 -0.753219,-0.32288 -0.644323,-0.496399 0.44025,-0.701552 15.418159,0.680422 40.344927,3.722563 13.215148,1.612796 19.030877,2.775363 25.356357,5.068691 10.35936,3.755817 16.85498,10.307437 18.26247,18.420066 1.56957,9.046556 -3.56173,21.212546 -13.04251,30.923006 -2.15949,2.21175 -5.08486,4.72801 -5.48847,4.72078 -0.0756,-10e-4 -0.18946,-1.41499 -0.25329,-3.14137 z"
       id="path32-5"
       inkscape:connector-curvature="0"
       sodipodi:nodetypes="ccsscccccccccccccscscsccsscccccssccscsccccssccscs" />
  </g>
</svg>
