<?xml version="1.0" encoding="UTF-8" standalone="no"?>
<!-- Created with Inkscape (http://www.inkscape.org/) -->

<svg
   xmlns:dc="http://purl.org/dc/elements/1.1/"
   xmlns:cc="http://creativecommons.org/ns#"
   xmlns:rdf="http://www.w3.org/1999/02/22-rdf-syntax-ns#"
   xmlns:svg="http://www.w3.org/2000/svg"
   xmlns="http://www.w3.org/2000/svg"
   xmlns:sodipodi="http://sodipodi.sourceforge.net/DTD/sodipodi-0.dtd"
   xmlns:inkscape="http://www.inkscape.org/namespaces/inkscape"
   width="125.14031mm"
   height="99.708252mm"
   viewBox="0 0 125.14031 99.708252"
   version="1.1"
   id="svg8"
   inkscape:version="0.92.5 (2060ec1f9f, 2020-04-08)"
   sodipodi:docname="explode.svg">
  <defs
     id="defs2" />
  <sodipodi:namedview
     id="base"
     pagecolor="#ffffff"
     bordercolor="#666666"
     borderopacity="1.0"
     inkscape:pageopacity="0.0"
     inkscape:pageshadow="2"
     inkscape:zoom="0.98994949"
     inkscape:cx="55.344995"
     inkscape:cy="212.66442"
     inkscape:document-units="mm"
     inkscape:current-layer="layer1"
     showgrid="false"
     fit-margin-top="0"
     fit-margin-left="0"
     fit-margin-right="0"
     fit-margin-bottom="0"
     inkscape:window-width="1858"
     inkscape:window-height="1016"
     inkscape:window-x="62"
     inkscape:window-y="27"
     inkscape:window-maximized="1" />
  <metadata
     id="metadata5">
    <rdf:RDF>
      <cc:Work
         rdf:about="">
        <dc:format>image/svg+xml</dc:format>
        <dc:type
           rdf:resource="http://purl.org/dc/dcmitype/StillImage" />
        <dc:title></dc:title>
      </cc:Work>
    </rdf:RDF>
  </metadata>
  <g
     inkscape:label="Layer 1"
     inkscape:groupmode="layer"
     id="layer1"
     transform="translate(-51.442556,-90.87256)">
    <path
       style="fill:#202020;fill-opacity:1;stroke-width:0.26458332"
       d="m 159.92172,190.36702 c 0,-0.11759 -1.53291,-1.12998 -3.40647,-2.24976 -3.25413,-1.94494 -5.8778,-3.93723 -5.58401,-4.24025 0.27985,-0.28866 9.31124,5.23403 9.84632,6.02102 0.32557,0.47885 0.228,0.68278 -0.32668,0.68278 -0.29104,0 -0.52916,-0.0962 -0.52916,-0.21379 z m -89.530744,-0.71934 c -0.58177,-0.58177 -0.55146,-0.70337 0.39811,-1.59706 0.45414,-0.42741 1.57354,-1.76203 2.48757,-2.96584 1.53006,-2.01512 1.65083,-2.27108 1.52262,-3.22697 -0.12085,-0.90099 -0.004,-1.2232 0.88586,-2.43736 0.56382,-0.76951 1.82608,-2.29393 2.80503,-3.3876 1.81667,-2.02958 2.29449,-3.26748 1.39451,-3.61284 -0.80827,-0.31016 -1.75528,0.22376 -3.81746,2.15229 -1.39329,1.30299 -2.25296,1.92375 -2.52144,1.82072 -0.22406,-0.086 -0.40739,-0.26265 -0.40739,-0.3926 0,-0.12995 -0.30833,-0.23628 -0.68519,-0.23628 -0.38865,0 -0.89108,-0.25426 -1.16092,-0.58749 -0.69513,-0.85846 -2.5004,-0.69727 -3.57784,0.31945 -0.43657,0.41195 -1.23297,0.86731 -1.76979,1.0119 -0.53681,0.14459 -1.38149,0.57216 -1.87705,0.95014 -0.98273,0.74956 -1.51254,0.87361 -1.51254,0.35414 0,-0.18321 1.25999,-1.70126 2.79997,-3.37344 2.42121,-2.62905 2.93295,-3.05822 3.78295,-3.17262 0.99098,-0.13337 1.34992,-0.45986 4.49467,-4.08841 0.88913,-1.02593 0.89209,-1.02698 1.32291,-0.46929 0.28093,0.36366 0.79442,0.5873 1.46967,0.64009 0.86479,0.0676 1.07814,0.20271 1.27924,0.81001 0.19971,0.6031 0.12526,0.86683 -0.43152,1.52852 -0.65304,0.7761 -0.68718,1.54659 -0.0713,1.61043 0.70438,0.073 1.15448,-0.13809 2.3874,-1.11976 0.80156,-0.63821 1.99119,-1.24656 3.09072,-1.58053 2.1137,-0.64202 3.95242,-1.9406 3.95242,-2.79137 0,-0.79954 -3.11573,-4.85844 -3.72948,-4.85844 -0.10235,0 -0.77013,0.39303 -1.48396,0.87341 -0.71383,0.48037 -2.24384,1.20281 -3.40003,1.60542 -1.29691,0.45162 -2.31742,0.98952 -2.66412,1.40424 -0.36124,0.43209 -0.62672,0.56745 -0.74322,0.37894 -0.28203,-0.45633 -1.28033,-0.35079 -3.48291,0.3682 -1.11448,0.3638 -2.30878,0.66146 -2.65401,0.66146 -0.76844,0 -0.84142,-0.67614 -0.0941,-0.87157 0.7637,-0.19971 1.75335,-2.49916 1.35212,-3.14164 -0.51351,-0.82225 -0.33555,-1.2063 0.8924,-1.92593 1.93439,-1.13363 1.47577,-2.17518 -0.5302,-1.20411 -1.41632,0.68563 -1.88873,0.62538 -2.60281,-0.33195 -0.39864,-0.53444 -0.46494,-0.80664 -0.24905,-1.02253 0.279,-0.279 4.42823,-1.04638 8.3651,-1.54708 1.71545,-0.21817 2.25955,-0.39559 2.00224,-0.6529 -0.0629,-0.0629 -4.3088,-0.3669 -9.43533,-0.67555 -5.39491,-0.32481 -9.93996,-0.72241 -10.79055,-0.94396 -0.80827,-0.21053 -1.52331,-0.38278 -1.58897,-0.38278 -0.0657,0 -0.11939,-0.12799 -0.11939,-0.28442 0,-0.31709 9.54873,-0.15171 17.93688,0.31066 2.662,0.14674 5.07302,0.19284 5.35782,0.10245 0.5295,-0.16806 0.70021,-0.77848 0.28881,-1.03273 -0.12594,-0.0778 -3.07274,-0.61463 -6.54843,-1.19287 -5.5444,-0.92239 -6.62773,-1.18501 -8.83299,-2.14128 -1.38245,-0.59947 -2.93026,-1.26592 -3.43959,-1.481 -0.50932,-0.21509 -1.22292,-0.61622 -1.58577,-0.8914 -1.48607,-1.12701 0.33852,-0.86556 8.02595,1.15006 4.24327,1.11258 7.93331,2.02243 8.2001,2.02191 0.98113,-0.002 0.22215,-0.67908 -1.43134,-1.277 -1.26463,-0.4573 -10.58119,-2.95593 -11.02612,-2.95712 -0.0364,-1e-4 -0.0661,-0.26919 -0.0661,-0.59799 0,-0.3288 -0.24274,-0.74941 -0.53943,-0.9347 -0.76612,-0.47844 -0.40093,-0.84874 0.83702,-0.84874 0.58306,0 1.29885,-0.12776 1.59064,-0.28393 0.37804,-0.20231 0.76562,-0.20197 1.34843,0.001 0.98102,0.34199 1.13507,0.24196 0.74624,-0.48457 -0.2726,-0.50935 -0.24596,-0.53005 0.37723,-0.29311 0.3688,0.14021 1.02101,0.43617 1.44936,0.65768 0.93688,0.48448 1.06968,0.49581 1.06968,0.0913 0,-0.17131 -0.37728,-0.62643 -0.83839,-1.01138 -0.92986,-0.77641 -0.84155,-1.32312 0.21372,-1.32312 0.36686,0 1.65783,0.34971 2.86883,0.77714 2.10041,0.74135 2.22137,0.75551 2.62679,0.30753 0.39149,-0.4326 0.38637,-0.50457 -0.065,-0.91302 -0.26948,-0.24387 -1.7178,-0.85689 -3.2185,-1.36228 -1.5007,-0.50539 -2.94004,-1.11027 -3.19852,-1.3442 -0.64841,-0.5868 -0.34499,-1.16934 0.60906,-1.16934 0.52782,0 0.96492,-0.21792 1.30546,-0.65084 0.43959,-0.55885 0.60153,-0.61003 1.14568,-0.36209 0.34856,0.15881 0.81992,0.2173 1.04749,0.12997 0.55148,-0.21162 0.54064,-1.74339 -0.0207,-2.92047 -0.23892,-0.50104 -0.362,-1.09966 -0.2735,-1.33029 0.34906,-0.90963 1.6696,0.34468 5.81483,5.52319 2.33295,2.91449 4.3226,5.33264 4.42144,5.37368 0.0988,0.041 0.47887,-0.37569 0.84451,-0.92604 0.36564,-0.55036 1.09835,-1.51793 1.62825,-2.15016 0.52991,-0.63224 0.96347,-1.3077 0.96347,-1.50104 0,-0.19334 -1.20413,-2.79146 -2.67583,-5.77358 -1.7871,-3.62122 -2.72124,-5.82488 -2.81254,-6.6349 -0.0752,-0.66707 -0.0267,-1.21285 0.10786,-1.21285 0.13451,0 0.77455,1.08126 1.42231,2.40279 1.42074,2.89853 1.66106,3.14569 2.22373,2.28696 0.37588,-0.57367 0.37765,-0.75055 0.0177,-1.77077 -0.21995,-0.62338 -0.40251,-1.44588 -0.40571,-1.82776 -0.003,-0.38189 -0.2535,-1.23012 -0.55623,-1.88497 -0.77766,-1.68214 -0.96757,-4.27535 -0.3789,-5.17377 0.43434,-0.66288 0.47434,-0.67246 0.96275,-0.23045 0.28028,0.25365 0.63416,0.92381 0.78642,1.48925 0.26541,0.98564 1.3277,1.86724 1.74596,1.44898 0.0939,-0.0939 0.0491,-0.97643 -0.0994,-1.96121 -0.29255,-1.93893 -0.1693,-4.30405 0.22428,-4.30405 0.4529,0 0.73154,1.26756 1.02818,4.6774 0.56893,6.53966 1.61446,14.77632 2.00474,15.79338 0.21358,0.55658 0.40962,0.54429 1.96058,-0.12292 l 1.28832,-0.55422 -0.13787,-1.89317 c -0.0758,-1.04125 -0.48468,-5.73334 -0.90855,-10.42688 -0.8822,-9.76867 -0.93366,-11.17775 -0.40822,-11.17775 0.45254,0 0.91297,2.23467 1.2162,5.90278 0.14852,1.79651 0.49618,3.53131 1.04191,5.19899 0.50448,1.54163 0.81902,3.05011 0.81902,3.92791 0,0.98059 0.15826,1.64734 0.50739,2.13765 0.593727,0.83381 1.149627,3.59696 1.037127,5.1551 -0.0599,0.82937 0.0223,1.10744 0.3458,1.16974 0.23339,0.0449 0.49027,-0.09 0.57083,-0.3 0.0806,-0.20994 0.0401,-2.74587 -0.0899,-5.63538 -0.30217,-6.71572 -0.78375,-22.23981 -0.78375,-25.26461 v -2.32203 l 2.47081,-2.856434 c 3.201967,-3.701694 3.421867,-3.857419 2.324057,-1.645778 -0.752287,1.515568 -0.909287,2.116809 -0.877437,3.360302 0.1358,5.30157 0.0753,5.96228 -0.74037,8.08045 -0.64423,1.67304 -0.79581,2.46662 -0.79581,4.16649 0,2.26569 0.26003,2.61165 0.99736,1.32693 0.46188,-0.80479 1.818747,-1.60836 2.715787,-1.60836 0.64117,0 0.66463,0.54015 0.0959,2.20919 -0.37242,1.09299 -0.37747,1.31559 -0.0413,1.82184 0.34165,0.51455 0.32656,0.67226 -0.13995,1.46294 l -0.52288,0.88621 0.6965,0.72699 c 0.90712,0.94683 0.87906,1.26786 -0.19732,2.25749 -0.4916,0.45199 -1.15842,1.46703 -1.481827,2.25565 -0.55017,1.34157 -0.58621,1.8099 -0.56,7.27604 l 0.028,5.84219 0.723757,0.52916 c 0.39807,0.29105 1.5759,1.34116 2.6174,2.3336 1.0415,0.99244 1.96789,1.68427 2.05866,1.53742 0.44443,-0.71912 4.33589,-17.6535 4.10891,-17.8807 -0.85148,-0.85235 0.21151,-5.89793 2.01517,-9.56521 l 1.18443,-2.40824 -0.95011,-2.00066 c -1.05659,-2.22487 -1.60892,-5.16578 -1.2386,-6.5949 0.31117,-1.20087 0.79668,-1.09722 1.47419,0.31472 0.73936,1.54082 1.83435,2.01503 2.56614,1.11131 0.75074,-0.92712 1.11058,-3.1123 0.77112,-4.682752 -0.60158,-2.783109 -0.61774,-4.283803 -0.0564,-5.235258 0.28776,-0.487707 0.73032,-1.510322 0.98346,-2.272477 0.38427,-1.156921 0.55424,-1.372344 1.02935,-1.304627 0.38124,0.05434 0.65264,0.364939 0.82223,0.941006 0.22802,0.774517 0.3528,0.859896 1.25677,0.859896 1.3852,0 1.31937,0.587298 -0.24373,2.174261 l -1.24736,1.266396 0.48561,0.822075 c 0.66402,1.124088 0.51279,1.9551 -1.53546,8.43727 -0.94264,2.98318 -2.36971,7.74568 -3.17127,10.58333 -0.80156,2.83766 -1.6956,5.84399 -1.98674,6.68073 -0.29114,0.83675 -0.43745,1.52136 -0.32512,1.52136 0.28592,0 3.03109,-4.71296 5.35387,-9.19161 1.07472,-2.07221 2.04333,-3.76885 2.15247,-3.77032 0.48,-0.006 0.0567,1.07966 -2.08826,5.35809 -2.82441,5.63369 -7.15911,14.78543 -7.66571,16.18444 -0.27416,0.75709 -0.29719,1.11694 -0.0847,1.32292 0.51979,0.50378 2.00144,-1.55682 9.6232,-13.38342 9.49797,-14.7379 17.41244,-26.705561 17.56204,-26.555964 0.0645,0.06454 -0.41983,0.985188 -1.07638,2.045876 -0.65656,1.060688 -1.96787,3.297746 -2.91404,4.971238 -0.94616,1.67349 -2.33137,4.04821 -3.07823,5.27716 -0.74687,1.22895 -1.31855,2.3526 -1.27042,2.497 0.22022,0.66065 0.75781,0.33326 1.90863,-1.16232 0.6844,-0.88942 1.30491,-1.55657 1.37891,-1.48257 0.19608,0.19608 -0.65185,1.49455 -4.44485,6.80657 -1.86479,2.6116 -4.11913,6.02481 -5.00965,7.58491 -1.82719,3.20105 -6.59592,10.20772 -11.99552,17.62492 -2.8124,3.86328 -3.62085,5.15549 -3.55897,5.68854 0.18595,1.60196 -0.0744,1.86488 14.78657,-14.93178 4.88713,-5.52368 9.81017,-10.99556 10.94009,-12.15973 l 2.05441,-2.11666 -1.40752,1.85208 c -0.77413,1.01865 -1.97123,2.55827 -2.66022,3.42138 -1.13499,1.42183 -1.24035,1.67046 -1.12118,2.64583 0.12526,1.02523 0.0364,1.18967 -1.86372,3.45017 -1.09738,1.30549 -1.99524,2.45932 -1.99524,2.56407 0,0.62577 0.85588,0.0798 4.8976,-3.12416 2.47231,-1.95985 6.9059,-5.43184 9.85242,-7.71553 2.94652,-2.2837 5.84315,-4.53921 6.43695,-5.01225 1.05967,-0.84417 2.24271,-1.33073 2.53205,-1.04139 0.26847,0.26847 -0.18914,0.7077 -3.43237,3.29451 -1.77157,1.41301 -6.61431,5.4859 -10.76165,9.05088 -4.14735,3.56499 -8.70149,7.35115 -10.12032,8.4137 -1.41882,1.06255 -2.57968,2.04653 -2.57968,2.18662 0,0.36304 0.088,0.34005 1.97678,-0.51637 0.93532,-0.42409 2.39122,-0.97139 3.23533,-1.21622 2.03051,-0.58893 3.8669,-1.36594 8.89356,-3.76305 2.69809,-1.28666 4.27479,-1.90419 4.44002,-1.73896 0.16522,0.16523 -0.23999,0.56741 -1.14109,1.13255 -3.31202,2.07716 1.76453,0.74354 6.42042,-1.68666 1.8226,-0.95132 3.78578,-1.89973 4.36263,-2.10757 0.57684,-0.20784 3.17038,-1.41176 5.76341,-2.67538 2.95632,-1.44065 4.87984,-2.23408 5.15765,-2.12747 0.38334,0.1471 0.35414,0.23831 -0.21669,0.67688 -0.36285,0.27877 -0.73318,0.50951 -0.82295,0.51274 -0.0898,0.003 -2.02864,0.89886 -4.30861,1.99026 -2.27998,1.09141 -4.18937,1.98438 -4.2431,1.98438 -0.0537,0 -2.63923,1.20735 -5.74555,2.68299 -3.19242,1.51655 -7.87722,3.47204 -10.77571,4.49792 -2.82032,0.99821 -5.1718,1.81492 -5.22552,1.81492 -0.0537,0 -0.0977,0.30311 -0.0977,0.67358 0,0.37047 -0.29765,1.23272 -0.66145,1.91612 -0.36381,0.6834 -0.66146,1.3709 -0.66146,1.52776 0,0.37578 -1.76883,2.43395 -2.36683,2.75399 -0.29808,0.15953 -0.82181,0.15283 -1.44209,-0.0184 -0.82162,-0.22686 -1.11187,-0.18375 -1.85493,0.27549 -1.18762,0.73398 -1.84563,0.68718 -3.50502,-0.24933 -0.87797,-0.49549 -1.7838,-0.79375 -2.41069,-0.79375 -0.926,0 -1.13577,0.15638 -2.69227,2.00711 -1.45995,1.73592 -1.7806,1.98917 -2.3732,1.87433 -0.57435,-0.1113 -0.93111,0.13112 -2.20547,1.49862 -1.47262,1.58026 -1.99696,2.43568 -1.6845,2.74814 0.19853,0.19853 1.33716,-0.15242 11.67145,-3.59736 4.80219,-1.60081 12.06501,-3.99043 16.13959,-5.31026 8.48118,-2.74721 7.9918,-2.41554 9.62633,-6.5241 1.25494,-3.15443 1.3739,-3.27981 3.11183,-3.27981 1.18061,0 1.78331,0.17893 3.11928,0.92604 0.91075,0.50932 1.94212,0.92457 2.29194,0.92277 0.71229,-0.004 1.53256,-1.07704 2.07007,-2.70883 0.41026,-1.24543 1.16002,-1.47175 2.80036,-0.8453 l 1.21318,0.46331 0.93742,-0.90035 c 0.51558,-0.49519 1.16753,-1.34683 1.44878,-1.89254 0.32995,-0.6402 0.69717,-0.99219 1.03514,-0.99219 0.28809,0 0.52379,0.0963 0.52379,0.21401 0,0.1177 0.41672,0.90603 0.92605,1.75184 0.50932,0.84582 0.92604,1.74785 0.92604,2.00453 0,0.65707 -1.07887,1.28737 -3.21832,1.88024 -1.93767,0.53696 -6.50878,2.70894 -7.6296,3.62523 -0.52685,0.43072 -0.59491,0.60844 -0.33442,0.87335 0.26218,0.26663 1.02295,0.1384 3.83646,-0.64666 5.21893,-1.45626 5.11483,-1.4476 6.10521,-0.5075 0.76901,0.72997 1.03727,0.81138 3.02697,0.9186 2.04317,0.1101 2.72308,0.28185 2.39894,0.60598 -0.075,0.075 -2.14862,0.43215 -4.60815,0.79378 -2.45954,0.36163 -5.32564,0.84211 -6.36912,1.06772 l -1.89723,0.41022 -0.17809,1.05411 c -0.28392,1.68049 -0.0838,1.76701 3.74532,1.6195 2.40239,-0.0925 3.29623,-0.0465 3.1667,0.16305 -0.31467,0.50914 -2.50118,0.97125 -11.48708,2.42771 -1.79077,0.29026 -3.8446,0.78097 -4.56406,1.09047 l -1.30812,0.56274 v 1.39537 c 0,1.24635 -0.14661,1.61022 -1.3728,3.407 -1.11412,1.63258 -1.50051,2.01054 -2.05052,2.00582 -0.84474,-0.007 -2.67328,-0.82232 -3.15751,-1.40747 -0.19972,-0.24134 -0.65878,-0.4388 -1.02014,-0.4388 -0.36136,0 -1.01076,-0.29766 -1.44311,-0.66146 -0.48759,-0.41028 -1.11447,-0.66146 -1.65084,-0.66146 -0.53576,0 -1.05148,-0.20636 -1.35561,-0.54242 -0.41621,-0.4599 -0.44496,-0.66409 -0.18901,-1.3422 0.44642,-1.18269 0.20332,-1.53885 -0.94412,-1.38322 -6.29878,0.85431 -14.7858,2.86003 -21.14722,4.99767 -2.37647,0.79857 -4.77704,1.44517 -5.36536,1.44517 -0.64415,0 -1.66261,0.29989 -2.57849,0.75925 -0.83259,0.41758 -1.7817,0.84232 -2.10912,0.94387 -1.230417,0.38159 -0.64124,-0.91943 1.59444,-3.5208 1.20436,-1.40137 2.33932,-2.74339 2.52213,-2.98228 0.27736,-0.36244 0.18863,-0.70026 -0.53611,-2.04094 -0.8263,-1.52857 -0.92631,-1.61463 -2.05911,-1.77181 -0.65484,-0.0909 -1.581,-0.26511 -2.05812,-0.38723 -1.266667,-0.32418 -2.054817,0.47077 -2.689587,2.71276 -0.52582,1.85722 -0.44533,3.75096 0.24001,5.64647 0.24398,0.67482 0.20201,1.03022 -0.24474,2.07246 -0.29657,0.69187 -0.53922,1.77826 -0.53922,2.41419 0,1.15321 -0.43755,2.50406 -0.81108,2.50406 -0.10834,0 -0.525,-0.56555 -0.92592,-1.25677 -2.287917,-3.94462 -5.134247,-6.94387 -6.592827,-6.94706 -0.43907,-9.5e-4 -1.15549,-0.2383 -1.59205,-0.52742 -1.05085,-0.69595 -1.69722,-0.66517 -2.77812,0.13229 -0.5741,0.42356 -1.24706,0.66146 -1.87109,0.66146 -1.23387,0 -1.61426,0.46161 -1.77712,2.15657 l -0.12927,1.34526 2.08718,-0.0973 c 1.93918,-0.0904 2.09267,-0.0588 2.16472,0.44463 0.0622,0.43457 -0.21452,0.66296 -1.39707,1.1531 -1.81071,0.7505 -2.37925,1.60567 -1.8669,2.80811 0.1848,0.43371 0.59563,1.02012 0.91297,1.30313 0.52763,0.47057 0.67212,0.4841 1.68979,0.1582 0.61206,-0.19601 1.73373,-0.36803 2.4926,-0.38228 1.29584,-0.0243 1.46534,-0.1104 2.78644,-1.41497 0.77368,-0.76398 1.64106,-1.3851 1.92753,-1.38026 0.28646,0.005 1.41381,0.77768 2.50522,1.71741 2.446577,2.10659 2.962697,2.17218 3.592867,0.4566 0.25389,-0.69122 0.61485,-1.64372 0.80213,-2.11666 l 0.3405,-0.8599 h 2.201967 2.20198 l 1.81461,-1.32292 1.8146,-1.32291 2.41307,0.002 c 7.38476,0.006 35.20139,0.56544 39.71931,0.799 5.95099,0.30765 15.08403,0.97419 16.63073,1.21374 0.71312,0.11044 1.43801,0.53628 2.40765,1.4144 1.4831,1.3431 1.88463,1.4586 7.28766,2.09637 1.53843,0.1816 1.62214,0.22003 0.79375,0.36441 -1.55124,0.27037 -5.99238,0.72486 -7.06215,0.72272 -1.81835,-0.004 -4.31027,-0.94377 -5.48485,-2.06927 -1.28604,-1.2323 -2.76469,-1.58632 -5.57696,-1.33522 -1.01864,0.0909 -5.27439,0.2589 -9.45722,0.37321 -6.65681,0.18194 -7.66307,0.15724 -8.06979,-0.19811 -1.00687,-0.87969 -9.67542,-0.59856 -10.81944,0.3509 -0.2085,0.17304 -0.66205,0.22044 -1.08692,0.1136 -1.4733,-0.37048 -3.98256,-0.69804 -7.07913,-0.92412 -1.74625,-0.12749 -4.93306,-0.38312 -7.0818,-0.56806 -2.82285,-0.24297 -3.98693,-0.25614 -4.19559,-0.0475 -0.73452,0.73452 0.62996,0.96593 24.50656,4.15636 7.78478,1.04022 17.71092,2.1455 22.62187,2.51896 3.1229,0.23748 5.02709,0.66507 5.02709,1.12883 0,0.34472 -0.63951,0.23215 -1.29689,-0.2283 -0.51944,-0.36383 -1.07448,-0.4092 -3.39718,-0.27766 -1.52697,0.0865 -2.83801,0.21892 -2.91342,0.29433 -0.34958,0.34958 0.83102,1.46826 1.9741,1.87056 0.69727,0.2454 1.65779,0.61386 2.1345,0.81881 0.4767,0.20495 1.87569,0.45019 3.10885,0.54498 1.23317,0.0948 2.24212,0.2843 2.24212,0.42115 0,0.13684 -0.44648,0.18371 -0.99219,0.10414 -0.5457,-0.0796 -2.00422,-0.21774 -3.24114,-0.30707 -2.37849,-0.17177 -14.67114,-2.18746 -26.59063,-4.36021 -8.77421,-1.5994 -20.81098,-3.58356 -23.21719,-3.82714 -1.62965,-0.16498 -1.78593,-0.13772 -1.78593,0.31142 0,0.57818 -0.0799,0.54482 7.18237,2.99705 4.95886,1.67443 5.6542,1.84362 7.54062,1.83479 1.14293,-0.005 2.88106,-0.16515 3.86252,-0.35513 1.60194,-0.31008 1.89125,-0.2976 2.82848,0.12201 0.5742,0.25708 1.55713,0.92985 2.18428,1.49504 2.14494,1.93304 2.53264,2.13885 4.39173,2.33124 0.97659,0.10107 2.17712,0.34817 2.66783,0.54912 0.49071,0.20095 1.24624,0.36536 1.67895,0.36536 0.4327,0 1.14217,0.25309 1.57659,0.56243 0.68151,0.48527 0.8756,0.51652 1.41505,0.22782 0.53348,-0.28551 0.85058,-0.2451 2.16141,0.27543 2.81953,1.11963 4.69637,2.16942 6.39128,3.57492 0.96426,0.79961 2.33605,1.63237 3.21975,1.95458 0.84683,0.30877 1.8172,0.79268 2.15639,1.07535 l 0.6167,0.51395 -1.09551,0.009 c -0.60253,0.005 -2.22237,-0.28398 -3.59964,-0.64182 -1.46909,-0.3817 -3.69562,-0.71839 -5.38678,-0.81458 -4.54414,-0.25844 -9.29847,-1.85986 -21.40348,-7.20941 -8.5877,-3.79514 -11.37512,-4.90181 -15.875,-6.30272 -7.01774,-2.18477 -6.53381,-1.4872 1.98437,2.86044 6.40004,3.26655 25.3567,13.28652 32.8082,17.34151 3.90358,2.12426 4.52066,2.71339 3.57014,3.40843 -0.38903,0.28446 -0.65657,0.18497 -1.81471,-0.67484 -2.24665,-1.66787 -3.6378,-2.34125 -5.72404,-2.77066 -1.94973,-0.40132 -1.99187,-0.39863 -2.41354,0.15375 -0.26395,0.34577 -0.592,0.49971 -0.85214,0.39989 -0.42578,-0.16339 -2.81974,-3.24023 -2.81974,-3.62408 0,-0.26211 -3.2914,-1.97035 -6.87917,-3.5703 -1.52797,-0.68139 -3.07578,-1.51411 -3.43958,-1.85047 -0.3638,-0.33637 -1.25031,-0.98079 -1.97003,-1.43205 -1.15134,-0.72189 -1.53916,-0.82047 -3.22768,-0.82047 -1.8871,0 -1.93105,-0.0156 -2.63475,-0.93825 -0.98815,-1.29553 -1.35513,-0.83396 -0.76045,0.95645 0.55393,1.66773 1.79601,2.96803 6.42742,6.72867 1.79215,1.45521 3.51856,2.86859 3.83646,3.14085 l 0.57799,0.49501 -0.59531,0.39715 c -0.32743,0.21844 -0.59532,0.54914 -0.59532,0.7349 0,0.18576 1.39899,1.56635 3.10886,3.06799 4.06196,3.56727 4.85966,4.46723 3.95962,4.46723 -0.52222,0 -6.70839,-5.51061 -8.77457,-7.81635 -2.03019,-2.26557 -6.91963,-6.54309 -13.14483,-11.49972 -2.23673,-1.78093 -4.97117,-4.17603 -6.07653,-5.32245 -1.25469,-1.30131 -2.21819,-2.0844 -2.5646,-2.0844 -0.73201,0 -3.686627,2.75173 -4.152927,3.86776 -0.23491,0.56221 -0.46663,2.93625 -0.64808,6.63961 -0.3816,7.78849 -0.48999,8.99964 -1.10926,12.3943 -0.71688,3.9298 -1.20604,4.65283 -1.4753,2.18067 -0.15308,-1.4055 0.76096,-10.19609 1.68265,-16.1825 0.75626,-4.91197 0.7209,-5.11266 -0.83523,-4.74013 -0.43657,0.10451 -1.719947,0.15455 -2.851967,0.11119 -1.80353,-0.0691 -2.1964,0.003 -3.175,0.58301 -2.19563,1.3012 -7.50754,7.68495 -7.24142,8.7026 0.0965,0.36891 -0.84366,1.62931 -3.47097,4.65337 -4.33984,4.99521 -8.30744,9.41022 -8.5526,9.51703 -0.0984,0.0429 -0.37133,-0.11445 -0.6065,-0.34962 z m 36.614074,-28.44904 c -0.7792,-0.60941 -1.70875,-0.90015 -2.10163,-0.65734 -0.234,0.14462 -0.41963,1.19149 -0.21347,1.20391 0.0364,0.002 0.54239,0.17216 1.12447,0.37771 0.92172,0.32548 1.10957,0.32334 1.45521,-0.0166 0.35212,-0.34632 0.32228,-0.44868 -0.26458,-0.90767 z m -54.327774,10.15578 c -0.55112,-0.55112 0.0976,-0.92499 4.05695,-2.33826 1.52797,-0.5454 3.07578,-1.19629 3.43958,-1.44641 0.81286,-0.55888 7.0504,-3.60142 7.87135,-3.83947 0.92224,-0.26743 0.74915,0.51251 -0.28955,1.30477 -0.48668,0.37121 -1.02246,0.67492 -1.19063,0.67492 -0.52887,0 -0.33212,0.53647 0.27976,0.76282 0.56988,0.21081 0.57165,0.22386 0.0661,0.48902 -0.28565,0.14984 -1.15462,0.40665 -1.93104,0.57069 -0.77643,0.16404 -3.64772,1.13077 -6.38066,2.14828 -4.91526,1.83003 -5.57816,2.01738 -5.9219,1.67364 z m 3.39567,-6.17331 c -0.0898,-0.14536 0.1653,-0.84892 0.56697,-1.56348 0.62392,-1.10991 0.68609,-1.39623 0.42678,-1.96536 -0.2954,-0.64834 -0.35735,-0.66211 -2.31305,-0.5142 -2.18307,0.16511 -3.31109,-0.17622 -3.31109,-1.00189 0,-0.35399 0.37359,-0.52206 1.65365,-0.74397 3.31231,-0.5742 10.29816,-1.3838 11.25508,-1.30437 l 0.98189,0.0815 -1.11706,0.75786 c -0.61439,0.41683 -1.41318,1.26314 -1.7751,1.8807 -0.36191,0.61756 -0.95994,1.32065 -1.32894,1.56244 -0.36901,0.24178 -0.83583,0.83428 -1.03739,1.31666 -0.31559,0.75532 -0.58444,0.93823 -1.93696,1.31772 -1.84519,0.51774 -1.85338,0.51843 -2.06478,0.17638 z m 85.473454,-38.6145 c 0.71462,-0.70967 16.3025,-10.06914 16.76982,-10.06914 0.15542,0 0.28258,0.15237 0.28258,0.3386 0,0.39157 -16.20144,9.98015 -16.86306,9.98015 -0.27741,0 -0.34756,-0.0925 -0.18934,-0.24961 z"
       id="path826"
       inkscape:connector-curvature="0"
       sodipodi:nodetypes="scccsscccccccscsscccsscccsccccccssccccsscccccscsscsscccccccccccscscccccscscccscscccccccccsscssccccccsscscccccsscsscccccscccccscsccccscccccsccscccccsccccsccccscsscsccsccccccssssccccccccscccssscsccscccccccccscssscsccccscccssssscccccccsscsccccsscsccccccccscccscscccssccccccccccssccccsccscssccccccccccccccsccccccccccccccscsccssccsccccsccccccsscccsccccccsssccccscssccscccsccscscscscscccccccccccccccccccscccsccccccccscscccccccccccsssc" />
  </g>
</svg>
