<?xml version="1.0" encoding="UTF-8" standalone="no"?>
<!-- Created with Inkscape (http://www.inkscape.org/) -->

<svg
   width="228.15474mm"
   height="228.67899mm"
   viewBox="0 0 228.15474 228.67898"
   version="1.1"
   id="svg8"
   inkscape:version="1.2.1 (0f2f062aeb, 2022-09-21, custom)"
   sodipodi:docname="gear.svg"
   xmlns:inkscape="http://www.inkscape.org/namespaces/inkscape"
   xmlns:sodipodi="http://sodipodi.sourceforge.net/DTD/sodipodi-0.dtd"
   xmlns="http://www.w3.org/2000/svg"
   xmlns:svg="http://www.w3.org/2000/svg"
   xmlns:rdf="http://www.w3.org/1999/02/22-rdf-syntax-ns#"
   xmlns:cc="http://creativecommons.org/ns#"
   xmlns:dc="http://purl.org/dc/elements/1.1/">
  <defs
     id="defs2">
    <filter
       style="color-interpolation-filters:sRGB"
       inkscape:label="Greyscale"
       id="filter848"
       x="0"
       y="0"
       width="1"
       height="1">
      <feColorMatrix
         values="0.21 0.72 0.072 0 0 0.21 0.72 0.072 0 0 0.21 0.72 0.072 0 0 0 0 0 1 0 "
         id="feColorMatrix846" />
    </filter>
  </defs>
  <sodipodi:namedview
     id="base"
     pagecolor="#ffffff"
     bordercolor="#666666"
     borderopacity="1.0"
     inkscape:pageopacity="0.0"
     inkscape:pageshadow="2"
     inkscape:zoom="0.25"
     inkscape:cx="1526"
     inkscape:cy="520"
     inkscape:document-units="mm"
     inkscape:current-layer="layer1"
     showgrid="false"
     fit-margin-left="-0.4"
     fit-margin-top="0"
     fit-margin-right="0"
     fit-margin-bottom="0"
     inkscape:window-width="1515"
     inkscape:window-height="859"
     inkscape:window-x="1776"
     inkscape:window-y="303"
     inkscape:window-maximized="0"
     inkscape:showpageshadow="0"
     inkscape:pagecheckerboard="1"
     inkscape:deskcolor="#d1d1d1" />
  <metadata
     id="metadata5">
    <rdf:RDF>
      <cc:Work
         rdf:about="">
        <dc:format>image/svg+xml</dc:format>
        <dc:type
           rdf:resource="http://purl.org/dc/dcmitype/StillImage" />
        <dc:title />
      </cc:Work>
    </rdf:RDF>
  </metadata>
  <g
     inkscape:label="Layer 1"
     inkscape:groupmode="layer"
     id="layer1"
     transform="translate(322.39845,-153.85247)">
    <g
       id="g828"
       transform="translate(-348.71829,299.46305)"
       style="opacity:0.97;fill:#fbf8f8;fill-opacity:1;filter:url(#filter848)">
      <path
         style="fill:#fbf8f8;fill-opacity:1;stroke-width:0.264583"
         d="m 108.60202,62.987985 c -2.95366,-0.522894 -6.58088,-1.577973 -8.51366,-2.476434 -3.154417,-1.466345 -7.5967,-4.816639 -8.911806,-6.721131 l -0.756719,-1.095854 0.154956,-3.307291 c 0.164658,-3.514368 0.859761,-8.932902 2.446512,-19.071248 l 0.976458,-6.238954 -1.005766,-2.095421 c -1.392613,-2.901378 -3.924792,-5.398217 -7.011847,-6.913985 l -2.248959,-1.104255 -3.042708,0.50636 C 70.509359,16.163756 57.660266,17.726634 56.04109,17.467718 54.518392,17.224227 53.052362,16.006527 50.981125,13.264854 47.11907,8.1526942 44.925901,2.1232319 44.866645,-3.5450821 c -0.02683,-2.5666249 0.02458,-2.8739887 0.632252,-3.7796839 0.939057,-1.3996087 9.8752,-8.43054 20.27441,-15.951848 1.838703,-1.329859 1.895991,-1.406853 2.700023,-3.628905 1.36911,-3.783716 1.37006,-6.226884 0.0041,-10.558436 l -0.563745,-1.787689 -2.674586,-1.902185 c -6.871153,-4.886817 -17.75845,-13.308469 -19.132262,-14.799386 -1.431959,-1.554019 -1.680996,-3.405502 -1.009377,-7.504297 0.933111,-5.69464 2.767047,-9.951325 6.148445,-14.270939 3.169995,-4.049554 3.880856,-4.279458 10.665058,-3.44927 5.198015,0.636085 14.333657,1.92904 17.757159,2.513148 l 3.126314,0.5334 2.055876,-0.802836 c 3.850516,-1.503656 6.386026,-3.829182 8.242922,-7.560262 l 0.891313,-1.790922 -0.696913,-4.25491 c -1.009155,-6.161281 -1.912734,-12.586727 -2.51451,-17.880947 -0.626885,-5.51514 -0.502309,-6.55608 0.980363,-8.19169 2.761414,-3.04624 9.059203,-6.66426 13.673533,-7.85531 2.0606,-0.53188 3.35165,-0.6908 5.83685,-0.71849 2.99502,-0.0334 3.25154,0.005 4.17627,0.62591 1.4869,0.99824 9.28617,10.95497 15.64756,19.97604 1.43663,2.03729 2.69331,3.80075 2.79262,3.9188 0.16428,0.19529 11.866,0.32412 12.01573,0.13229 0.0354,-0.0453 1.29505,-1.80875 2.79932,-3.9188 6.81203,-9.55528 14.21301,-18.98222 15.77041,-20.08743 0.9061,-0.64302 1.13868,-0.68109 4.03431,-0.66031 5.26103,0.0377 10.02023,1.55232 14.8769,4.73445 3.37133,2.20893 5.5571,4.35423 6.01253,5.90123 0.27529,0.93508 0.2598,1.81221 -0.0888,5.02708 -0.51237,4.72523 -1.502,11.943547 -2.41921,17.645487 -0.37389,2.324375 -0.62454,4.716515 -0.55698,5.315867 0.1834,1.627132 1.73414,4.53797 3.23536,6.072997 1.41613,1.448007 5.39532,3.652748 7.20554,3.992346 0.53557,0.100475 1.87291,0.03946 2.97185,-0.135586 4.26918,-0.680022 13.04779,-1.908125 17.21162,-2.407859 8.26267,-0.991666 8.62136,-0.876845 12.22438,3.913195 3.63975,4.838883 6.02683,11.688114 6.03081,17.304117 0.002,2.720295 -0.46444,3.35588 -5.29061,7.210422 -3.13385,2.502924 -12.55995,9.620776 -15.7194,11.870049 -1.44042,1.025462 -1.90011,1.534944 -2.38725,2.645834 -1.78273,4.065341 -1.54962,7.767523 0.80179,12.733781 0.61124,1.290947 1.02732,1.69133 3.90131,3.754125 4.1023,2.94441 8.8212,6.535266 13.59699,10.346645 2.63002,2.0989314 3.97788,3.3676878 4.47033,4.2079991 0.67511,1.1519746 0.69838,1.3171884 0.54838,3.8921106 -0.39874,6.8448552 -3.44367,13.9359133 -7.99027,18.6078173 -2.17857,2.23861 -2.77368,2.377403 -7.78153,1.814835 -5.85855,-0.658135 -13.0972,-1.647555 -18.60301,-2.54276 l -4.95328,-0.80537 -1.69849,0.810617 c -3.25662,1.554239 -5.25361,3.927038 -7.04685,8.372993 l -0.86226,2.137818 0.9495,6.196557 c 1.93191,12.607705 2.63568,19.166836 2.24968,20.96672 -0.37073,1.728645 -2.02759,3.398888 -5.92522,5.973061 -3.34001,2.2059 -5.86613,3.298288 -9.55446,4.131699 -5.25494,1.187397 -8.07062,1.133353 -9.74933,-0.187127 -1.44534,-1.136904 -9.98464,-12.163186 -15.94042,-20.582902 l -2.33673,-3.303439 -5.89292,-0.0078 -5.89293,-0.0078 -2.54646,3.575839 c -5.5386,7.777519 -13.86548,18.578686 -15.44433,20.033524 -1.53931,1.418402 -3.54571,1.680287 -7.5043,0.979485 z m 38.00645,-68.8568178 c 7.37307,-1.950876 13.59533,-6.9191792 17.05518,-13.6180852 2.93865,-5.689764 3.8597,-11.215264 2.85622,-17.134908 -0.87755,-5.176803 -3.23053,-9.854189 -6.91538,-13.746784 -6.61831,-6.991429 -15.98619,-9.98393 -25.20559,-8.051744 -14.70985,3.082862 -24.23272,18.394727 -20.52657,33.004785 2.5515,10.05831 10.97238,17.9352254 21.26128,19.8878661 2.88283,0.5471054 8.78053,0.3717767 11.47486,-0.3411299 z"
         id="path842"
         inkscape:connector-curvature="0" />
      <path
         style="fill:#fbf8f8;fill-opacity:1;stroke-width:0.264583"
         d="m 109.15751,62.740681 c -6.43229,-1.03405 -10.655607,-2.884794 -15.365748,-6.73359 -2.346106,-1.917073 -3.034364,-3.098228 -3.043304,-5.222774 -0.0098,-2.31915 1.846686,-16.082237 3.273343,-24.267521 0.310637,-1.78225 0.311097,-2.256695 0.003,-3.129828 -1.298827,-3.681267 -3.990071,-6.659192 -7.816919,-8.649607 l -2.268948,-1.180121 -6.3216,0.988642 C 66.109262,16.345646 57.404991,17.321366 55.71551,17.001006 53.243984,16.532358 48.303335,9.5756207 46.584165,4.1435266 c -0.754933,-2.38538 -1.349851,-6.0566032 -1.349851,-8.3299058 0,-2.3356437 0.391848,-3.0103682 3.047264,-5.2471053 2.309622,-1.9454595 11.284003,-8.7530435 15.935788,-12.0882065 3.955775,-2.836148 4.383564,-3.427049 5.404853,-7.465702 0.660914,-2.613562 0.514305,-4.838954 -0.536538,-8.144079 l -0.715039,-2.248958 -2.241603,-1.656429 c -13.131308,-9.703366 -19.273184,-14.493597 -20.209248,-15.761784 -0.487177,-0.660035 -0.550622,-1.102029 -0.531696,-3.704167 0.04331,-5.955588 2.057302,-11.64732 5.913776,-16.712916 3.180665,-4.177895 3.716203,-4.358346 10.556314,-3.556973 5.046496,0.591238 13.953758,1.845331 17.975091,2.530792 1.372359,0.233929 2.908538,0.358246 3.413731,0.276265 1.783445,-0.289412 5.307047,-2.235385 6.921955,-3.822772 1.71323,-1.684033 3.69519,-4.811265 3.915392,-6.177893 0.07898,-0.490162 -0.397127,-4.403548 -1.058011,-8.696412 -1.570196,-10.199431 -2.366772,-16.928691 -2.229149,-18.831291 0.140946,-1.94856 0.854319,-2.8837 4.062947,-5.32602 4.794634,-3.64954 10.542059,-5.84993 16.114779,-6.1695 3.59303,-0.20604 4.23509,0.14374 7.38033,4.02074 3.08419,3.80173 9.42249,12.23769 12.81634,17.05789 l 2.70983,3.8487 6.07447,-0.0292 c 3.34096,-0.0161 6.11467,-0.0811 6.1638,-0.14453 0.0491,-0.0634 1.44369,-2.02034 3.09904,-4.34867 3.89073,-5.47253 7.67845,-10.50708 11.60767,-15.42867 3.91295,-4.90122 4.44762,-5.23666 7.95038,-4.98803 6.14232,0.436 11.20118,2.31662 16.09955,5.985 3.6351,2.72231 4.29132,3.69001 4.29132,6.32815 0,2.44526 -1.38215,13.06412 -2.81111,21.597296 -0.36553,2.182812 -0.59767,4.307371 -0.51588,4.721243 0.2419,1.224026 1.67365,4.011488 2.77816,5.408803 1.20805,1.528297 3.74711,3.203495 6.56669,4.332509 l 2.01529,0.806961 4.25165,-0.678042 c 10.16101,-1.620446 21.04064,-2.906109 22.41638,-2.648979 1.48093,0.276791 2.53726,1.103921 4.29328,3.361745 2.28855,2.942532 3.95816,5.930267 4.9031,8.774001 1.59606,4.803248 2.09893,10.307497 1.09249,11.958113 -0.80173,1.314865 -7.57427,6.703174 -17.24786,13.722582 -4.5314,3.288104 -4.97944,3.686114 -5.4928,4.879475 -1.00227,2.329841 -1.42406,4.481213 -1.2705,6.480336 0.15123,1.968741 1.65856,6.62868 2.52472,7.805208 0.26783,0.363802 2.50073,2.135677 4.96199,3.937503 5.74598,4.206475 13.37244,10.126508 15.01532,11.655628 0.70393,0.6551876 1.44807,1.5165095 1.65364,1.914046 0.8029,1.5526331 0.1912,7.421541 -1.20871,11.5969886 -0.82672,2.4658028 -2.50794,5.5077964 -4.49729,8.1373974 -2.29454,3.033006 -3.31169,3.824592 -5.10557,3.973354 -1.72824,0.143319 -11.27929,-0.96543 -19.24174,-2.233713 -8.79317,-1.400601 -8.57411,-1.396251 -10.82245,-0.214786 -3.17608,1.668986 -5.38245,4.513828 -6.984,9.005019 -0.54369,1.524659 -0.62539,2.081559 -0.44637,3.042708 1.1133,5.97739 3.17157,21.643498 3.17157,24.139762 0,2.187472 -0.52378,3.113064 -2.89116,5.109041 -4.71946,3.979066 -9.74561,6.106292 -16.46575,6.968828 -2.42881,0.31174 -3.97048,0.130268 -5.08234,-0.598247 -1.56241,-1.023728 -9.53492,-11.248257 -16.79152,-21.534656 l -1.90626,-2.702168 -5.86883,-0.07596 c -4.9218,-0.0637 -5.93911,-0.01191 -6.30431,0.320916 -0.23952,0.218281 -1.60795,2.06375 -3.04096,4.101042 -4.91632,6.98946 -11.95839,16.184318 -14.25146,18.6082 -0.59613,0.630135 -1.39267,1.308172 -1.7701,1.506752 -1.08516,0.570944 -3.08812,0.659739 -5.63745,0.249912 z m 36.79108,-68.0065919 c 10.17041,-2.1007545 18.58839,-10.9338181 20.83884,-21.8663851 0.52487,-2.549766 0.54727,-8.171048 0.042,-10.528342 -1.15681,-5.396571 -3.80375,-10.034468 -8.01932,-14.051216 -2.46498,-2.34873 -4.31194,-3.603755 -7.55786,-5.135642 -4.08176,-1.926349 -6.18155,-2.361723 -11.42935,-2.369777 -4.97065,-0.0076 -6.41515,0.254823 -10.25215,1.862727 -4.2617,1.785879 -8.89508,5.539637 -11.66874,9.453496 -3.81757,5.386895 -5.87239,12.76183 -5.20275,18.673124 1.62092,14.308804 14.21379,25.1301002 28.51123,24.5002437 1.49077,-0.065672 3.62294,-0.3078771 4.73814,-0.5382286 z"
         id="path840"
         inkscape:connector-curvature="0" />
      <path
         style="fill:#fbf8f8;fill-opacity:1;stroke-width:0.264583"
         d="m 110.18952,62.832637 c -4.80758,-0.584406 -9.5571,-2.181532 -12.889108,-4.334242 -4.21667,-2.724264 -6.160045,-4.735357 -6.451039,-6.675837 -0.22225,-1.482082 1.010623,-11.567173 2.581981,-21.120978 l 1.09329,-6.647156 -1.097798,-2.268042 C 92.023882,18.887858 90.124748,16.822436 87.39987,15.231679 83.945142,13.214845 84.462564,13.265074 77.898926,14.309352 71.383638,15.345937 68.049734,15.805177 61.506189,16.567428 55.369837,17.282242 54.811114,17.12912 52.292156,14.04224 49.26255,10.329577 46.90434,5.3908968 46.194878,1.2730146 c -0.350837,-2.03635235 -0.3127,-2.8071312 0.125492,-2.5363116 0.132533,0.08191 0.23686,-0.8736065 0.23686,-2.1693584 v -2.3157443 l 1.407433,-1.3632048 c 1.449522,-1.4039743 6.696742,-5.3803915 15.898315,-12.0479735 5.108319,-3.701552 5.289847,-3.864859 6.017668,-5.413608 1.26796,-2.69813 1.906796,-5.73496 1.722829,-8.189793 -0.16896,-2.254586 -0.981282,-5.466273 -1.782099,-7.045925 -0.352628,-0.695576 -1.484407,-1.668349 -4.135752,-3.554706 -7.651194,-5.443611 -18.751344,-13.872847 -19.208621,-14.586653 -0.467989,-0.730525 -0.474355,-0.732115 -0.333353,-0.08329 0.123912,0.570172 0.09099,0.551916 -0.238567,-0.132292 -0.497528,-1.032944 -0.497565,-2.593112 -1.35e-4,-5.688541 0.854194,-5.315521 2.425787,-9.091887 5.518422,-13.260173 2.166226,-2.919655 3.213111,-3.729788 5.012627,-3.879019 1.946108,-0.161385 11.659444,1.030573 22.365481,2.74455 l 4.066122,0.650962 1.429591,-0.534877 c 4.585087,-1.715502 7.234632,-4.074567 9.309182,-8.288577 l 0.859894,-1.746687 -0.923878,-5.636318 c -1.143315,-6.975075 -2.133372,-14.108365 -2.567723,-18.500315 -0.410916,-4.15496 -0.135734,-5.13105 1.971889,-6.99445 5.271167,-4.66036 12.324395,-7.55568 18.581485,-7.62762 2.42702,-0.0279 2.74826,0.0277 3.64711,0.63086 1.51459,1.01641 8.51459,9.95545 15.47269,19.7587 l 3.22604,4.54517 h 6.07396 6.07396 l 2.83577,-4.016 c 6.21076,-8.79561 14.21073,-19.05401 15.73778,-20.18063 1.20208,-0.88687 2.33857,-1.02803 5.40599,-0.67147 5.10029,0.59287 9.54133,2.2217 13.65502,5.00823 4.18344,2.83378 5.51129,4.50007 5.51129,6.91599 0,1.84343 -1.38244,12.58713 -2.50457,19.464467 -0.51426,3.151769 -0.93501,6.08049 -0.93501,6.508273 0,1.704052 2.04416,5.548273 3.82768,7.198257 1.15401,1.067612 3.43493,2.40711 5.50845,3.234899 2.11256,0.84337 1.79108,0.858096 11.11205,-0.509045 7.92341,-1.162153 14.94986,-2.01027 16.66813,-2.011894 0.69589,-5.3e-4 1.6537,0.161096 2.12845,0.35946 2.14854,0.89772 6.33204,7.054222 7.86367,11.572311 1.21232,3.576187 1.96663,9.805622 1.31032,10.821196 -0.22799,0.352777 -0.25704,0.352777 -0.26153,0 -0.003,-0.218282 -0.22763,-0.03969 -0.4997,0.396875 -0.27206,0.436562 -1.16542,1.27 -1.98524,1.852083 -0.81982,0.582083 -4.68837,3.439583 -8.59677,6.35 -3.90841,2.910416 -8.13908,6.040799 -9.40149,6.956408 -1.26242,0.91561 -2.53051,2.046703 -2.81799,2.513542 -0.76533,1.242825 -1.7956,4.671433 -1.97999,6.589178 -0.20422,2.123945 0.73825,5.965393 2.18185,8.893092 0.91724,1.860209 1.19701,2.177399 3.25252,3.687511 12.28962,9.028763 17.98552,13.4611161 18.89844,14.7061208 0.45226,0.6167755 0.54844,1.1387746 0.54844,2.9766444 0,1.6482033 0.0893,2.2286885 0.34272,2.228625 0.39502,-9.52e-5 0.30556,0.73457858 -0.51546,4.2332512 -0.96571,4.115239 -4.44295,10.2246186 -7.1844,12.6227196 -1.63264,1.428163 -2.32313,1.487038 -8.68527,0.740561 -6.75607,-0.792697 -9.92088,-1.23576 -16.19915,-2.267823 -2.59869,-0.427188 -4.96533,-0.776708 -5.2592,-0.776708 -0.86299,0 -3.82399,1.580417 -5.15336,2.750582 -1.61836,1.424535 -2.98942,3.58944 -4.18284,6.604716 l -0.97254,2.457199 0.80986,5.007813 c 1.47234,9.10427 2.67838,18.431991 2.68073,20.733133 0.002,2.358858 -1.4876,4.162486 -5.89977,7.141554 -4.20495,2.839148 -10.39035,4.784026 -15.29641,4.809648 -3.17483,0.01659 -3.44235,-0.213143 -9.84966,-8.457993 -2.6072,-3.354919 -10.40228,-14.021733 -11.98791,-16.404293 -0.11286,-0.169577 -11.93035,-0.109387 -12.20795,0.06218 -0.14698,0.09084 -1.37763,1.742993 -2.73477,3.671456 -5.74093,8.157675 -13.94021,18.7576 -15.57067,20.129541 -1.20663,1.01531 -2.65123,1.260917 -5.42979,0.923158 z m 46.43438,-35.32104 c 6.12317,-1.277628 14.46331,-5.312389 19.26286,-9.318916 1.9101,-1.594495 1.90297,-1.650412 -0.37716,-2.954964 -1.71462,-0.981009 -1.86826,-0.665311 2.25126,-4.6257 6.61743,-6.3617945 12.14629,-14.4666934 14.31043,-20.978004 l 0.55745,-1.67722 -1.53211,-1.844043 c -0.84266,-1.014222 -1.7994,-2.224003 -2.12609,-2.688402 -0.32669,-0.464399 -0.88609,-1.20155 -1.24311,-1.638112 -2.94946,-3.606662 -4.3306,-5.342191 -4.81504,-6.050523 -0.3117,-0.455753 -0.93677,-1.237041 -1.38906,-1.736193 -0.45229,-0.499153 -0.82235,-0.982295 -0.82235,-1.073648 0,-0.09135 -0.72462,-0.933114 -1.61026,-1.870575 -0.88565,-0.937463 -1.82987,-2.121196 -2.09827,-2.630519 -0.2684,-0.509323 -1.28154,-1.81901 -2.2514,-2.910416 -2.03224,-2.286897 -2.18687,-2.555796 -3.14927,-5.476491 -1.05254,-3.194249 -1.43484,-3.625263 -5.22038,-5.885588 -2.59251,-1.547968 -3.73953,-2.423392 -5.08035,-3.877405 -4.3447,-4.711451 -9.56175,-7.846721 -15.70474,-9.438012 -1.83041,-0.474152 -3.10044,-1.043604 -5.46319,-2.449579 -1.69311,-1.007499 -3.07839,-1.915591 -3.07839,-2.017987 0,-0.102394 0.68461,-0.329018 1.52136,-0.503608 2.33367,-0.486932 7.30345,-0.168775 10.60608,0.678979 1.50409,0.386088 2.77815,0.658542 2.83124,0.605456 0.0531,-0.05309 -0.53676,-0.755562 -1.31077,-1.561052 -0.77401,-0.805492 -1.56136,-1.753931 -1.74966,-2.107642 -0.37012,-0.695224 -4.36693,-5.764463 -4.88857,-6.200256 -0.17477,-0.146013 -0.57571,-0.771091 -0.89097,-1.389062 -0.31527,-0.617971 -0.74939,-1.123585 -0.96471,-1.123585 -0.21533,0 -0.3915,-0.108947 -0.3915,-0.242107 0,-0.133159 -0.23673,-0.520113 -0.52607,-0.859896 -0.28934,-0.339783 -1.01385,-1.242867 -1.61001,-2.006851 -0.59616,-0.763984 -1.18728,-1.389062 -1.3136,-1.389062 -0.12631,0 -0.41587,-0.392407 -0.64345,-0.872011 -0.22759,-0.479608 -0.73919,-1.228556 -1.1369,-1.664333 -0.3977,-0.435774 -0.92563,-1.101854 -1.17317,-1.480177 -0.24755,-0.378325 -1.12695,-1.418957 -1.95423,-2.312521 -0.82728,-0.893562 -1.44853,-1.680269 -1.38057,-1.74824 0.18559,-0.185587 3.90379,-1.109028 5.32145,-1.32162 0.68285,-0.102399 1.24155,-0.277741 1.24155,-0.389647 0,-0.302191 -3.0863,-2.2534 -4.80811,-3.039755 -1.44841,-0.661501 -1.58236,-0.675468 -3.83646,-0.400034 -4.48175,0.547639 -9.00081,1.81978 -13.84501,3.897447 -3.83776,1.646005 -8.20209,4.196905 -8.20209,4.794027 0,0.109289 0.71309,0.609246 1.58464,1.111015 0.87155,0.501769 1.58228,1.03137 1.57941,1.17689 -0.003,0.145521 -1.34014,1.276615 -2.97169,2.513542 -3.29733,2.499796 -9.188189,8.180805 -9.188189,8.860877 0,0.240572 0.871149,1.530215 1.935889,2.865868 1.06474,1.335654 4.27268,5.364062 7.12875,8.952018 2.85608,3.587954 5.32282,6.603871 5.48166,6.702034 0.16041,0.09914 1.32351,-0.806191 2.61648,-2.036617 2.39637,-2.280462 4.61189,-3.905803 6.26626,-4.597046 0.91297,-0.381463 0.99522,-0.366209 2.45001,0.45433 2.68747,1.515805 2.63763,1.30099 0.6386,2.752439 -5.93489,4.309186 -9.91298,9.868907 -12.10959,16.92422 -0.54369,1.74625 -1.02764,3.220895 -1.07545,3.276986 -0.0478,0.05609 -0.82313,-0.336563 -1.72293,-0.872569 -1.83904,-1.095513 -2.03665,-1.038535 -2.36937,0.683157 -0.56474,2.922227 -0.0858,8.334885 0.99019,11.190956 0.46278,1.228331 0.65829,1.410007 3.0006,2.788232 2.30633,1.357051 2.63205,1.655059 4.09609,3.747654 2.2946,3.279727 3.85336,5.009199 6.22496,6.906714 4.16044,3.3287681 8.82893,5.4050857 13.83003,6.1509355 5.08627,0.7585498 5.25166,0.8088921 7.78593,2.3698808 2.42072,1.49104604 2.44868,1.50034879 3.96875,1.3202945 0.84197,-0.099732 2.24523,-0.3451992 3.11835,-0.5454808 0.87313,-0.2002816 1.72292,-0.3659082 1.88844,-0.3680592 0.24648,-0.0032 4.77985,5.4003229 6.84138,8.1545638 0.29026,0.3877865 1.00741,1.3003794 1.59367,2.0279835 0.58626,0.7276042 1.39837,1.7716819 1.8047,2.3201739 0.40632,0.548489 1.04342,1.322395 1.41577,1.719791 0.37236,0.397394 0.95255,1.139254 1.28932,1.648577 0.33678,0.509322 0.98737,1.341215 1.44578,1.848651 l 0.83347,0.92261 -1.01564,0.857523 c -1.24611,1.052115 -5.96438,3.39576 -9.35001,4.644318 -1.38245,0.50982 -4.20826,1.379014 -6.27959,1.93154 -2.07132,0.552527 -3.73819,1.032026 -3.70416,1.065551 0.034,0.03353 1.12427,0.727665 2.42276,1.542532 2.60756,1.636366 2.26635,1.594479 6.23807,0.765762 z m 0.99219,-35.4392531 c -0.83675,-0.504325 -1.52136,-1.063461 -1.52136,-1.2425283 0,-0.1790647 0.90703,-1.2155616 2.01561,-2.3033276 5.07811,-4.982736 8.01585,-10.576451 9.22053,-17.55668 0.22304,-1.292368 0.41493,-2.661587 0.42642,-3.042708 0.0115,-0.381122 0.0809,-0.544119 0.15434,-0.362218 0.0734,0.181901 0.24831,0.33073 0.38869,0.33073 0.32868,0 3.20512,1.829564 3.48711,2.21798 0.39294,0.541243 -0.0401,4.759807 -0.73649,7.174727 -1.33283,4.621911 -3.86839,9.071475 -7.01871,12.316899 -1.64386,1.6934895 -4.02399,3.4492195 -4.61586,3.4049441 -0.15341,-0.011483 -0.96354,-0.4334933 -1.80028,-0.9378182 z M 85.980148,-12.201132 c 0,-0.112792 -0.363509,-1.69037 -0.807797,-3.505729 -1.756741,-7.178021 -2.561233,-14.61899 -2.250361,-20.814217 l 0.175157,-3.490648 -0.741312,-0.454329 c -0.407723,-0.24988 -1.192297,-0.752229 -1.743501,-1.116327 -0.652735,-0.431168 -1.09237,-0.571823 -1.260817,-0.403376 -0.142242,0.142243 -0.458634,1.14382 -0.70309,2.225725 -0.577419,2.555521 -0.655632,13.117197 -0.119391,16.122311 0.484963,2.717755 1.28111,5.844108 1.907543,7.490634 0.486802,1.279525 0.679601,1.46663 2.83451,2.750825 2.352387,1.401874 2.709059,1.559224 2.709059,1.195131 z M 201.4377,-29.227045 c 0.31366,-1.568296 0.16429,-8.687818 -0.24475,-11.665643 -0.65507,-4.768966 -2.47872,-11.226892 -3.69419,-13.081936 -0.46505,-0.709766 -5.03301,-3.794347 -5.61904,-3.794347 -0.26379,0 -0.32779,0.147765 -0.20055,0.463021 3.05778,7.575746 4.59793,13.775639 5.30744,21.365103 0.23126,2.473854 0.47029,4.736042 0.53116,5.027083 0.093,0.44449 3.03738,2.504837 3.5892,2.511534 0.091,0.0011 0.23978,-0.370062 0.33073,-0.824815 z"
         id="path838"
         inkscape:connector-curvature="0" />
      <path
         style="fill:none;fill-opacity:1;stroke:#151111;stroke-width:10.965;stroke-dasharray:none;stroke-opacity:1"
         d="M 109.79265,62.704362 C 101.79643,61.364988 88.754787,57.181398 91.252155,46.872969 91.297663,38.374654 95.717356,29.590374 93.371032,21.375427 90.864563,16.621376 85.363732,11.570358 79.67185,13.79056 71.559407,14.812372 63.286996,17.008971 55.157832,16.383666 49.464057,10.992212 45.292645,0.51932297 48.313036,-6.9937674 55.155574,-13.540448 64.972012,-17.134666 70.549084,-24.744484 c 4.853449,-9.562118 -1.754187,-18.846682 -10.311099,-23.058653 -6.435108,-4.992612 -17.017236,-9.823581 -12.310459,-19.725701 -0.0046,-9.845464 9.05989,-16.329546 18.291778,-12.401112 6.20172,-0.12251 12.788829,3.655423 18.714562,1.748903 13.732281,-4.408265 7.970778,-19.078997 6.713589,-29.311043 -4.782568,-11.70984 8.677885,-18.3815 18.346335,-19.31455 10.40798,0.14226 13.84438,13.74831 20.48385,20.18476 4.88244,9.093622 18.888,5.17586 21.82399,-3.99354 5.73285,-5.55854 8.90745,-17.92314 18.57731,-16.0278 7.39455,1.40247 20.18273,5.55878 17.87983,15.30584 -0.5871,7.71807 -2.5896,15.460731 -3.13723,23.075097 2.14576,8.536843 11.83762,12.534638 19.73423,9.488071 7.88247,-0.03622 19.29542,-6.302768 23.87927,3.033797 3.36914,6.882331 7.02133,18.618502 -2.59561,22.272706 -6.57732,6.421389 -18.58758,10.217061 -18.1717,21.03106 -0.17224,11.610823 12.30857,15.213989 19.32428,21.974609 7.15659,5.2332248 3.9575,14.8165442 1.69865,21.03491 -4.00447,11.072096 -17.05893,3.729455 -25.40143,3.849119 -4.14177,-0.296698 -8.74789,-2.810486 -12.22183,0.677468 -7.36322,5.101716 -6.22004,14.389465 -4.46683,21.965522 1.64046,8.323211 3.8273,19.066188 -6.57212,22.36981 -7.83352,4.852412 -18.5213,4.89727 -22.45187,-4.818203 -4.24481,-5.457125 -8.2938,-11.062712 -12.23982,-16.738686 -4.09926,-0.0081 -8.19852,-0.01629 -12.29778,-0.02444 -5.96408,8.267881 1.22245,47.900504 -18.6769,24.245349 -1.57637,1.117122 -3.58716,0.699806 -5.36943,0.605553 z m 70.85149,-7.158614 c 8.92095,-4.749635 -8.42644,-7.972552 -10.97924,-12.251544 -7.49548,-3.671791 -13.90016,-10.845773 -21.91105,-12.472894 -12.25246,-0.974259 3.1604,5.637793 6.25425,8.392641 8.42578,5.828209 17.27531,10.944784 25.71,16.774029 z m -34.0363,-25.223665 c 12.58042,-1.862169 25.86235,-6.742614 34.23346,-16.640563 -6.72512,-4.189378 6.91943,-10.5212447 7.88472,-16.4823254 4.21826,-8.4511166 11.81311,-20.6909376 2.01362,-28.0528526 -15.05062,-19.194708 -30.79323,-37.878483 -45.49284,-57.326864 2.89717,-3.237182 -10.15064,-7.583399 -14.67015,-5.222177 -9.85727,1.597492 -20.05877,5.301629 -27.26412,12.353952 8.19335,5.271707 -17.435955,13.3685 -5.093295,20.950258 4.987825,3.495924 10.813375,20.980869 15.417435,9.152459 0.74745,-5.062924 13.94302,-8.555641 8.62766,-2.162644 -6.76219,3.236052 -6.41784,17.471165 -13.67632,14.404954 -1.84242,7.938748 -1.28953,19.130742 7.32132,22.846879 7.66,7.3645877 17.59273,10.9917664 26.87888,15.66482116 8.95909,2.41982954 12.6626,13.68739684 19.12327,20.00764984 -6.04912,4.905883 -18.55915,4.184186 -22.86207,6.527877 6.5229,2.074759 1.55624,4.679198 7.55843,3.978576 z m 12.73267,-39.7617535 c -0.64208,-5.2004995 8.35347,-12.3311195 8.46827,-19.8453505 8.70489,2.12459 -2.33012,22.3175169 -8.46827,19.8453505 z m 3.97677,-40.5919025 c -6.31119,-4.946917 -18.30758,-9.614882 -21.57901,-13.825709 10.69182,-0.225433 21.73296,6.236486 25.95768,16.12987 -1.56982,-0.542341 -2.94118,-1.500781 -4.37867,-2.304161 z M 111.35318,14.39613 C 103.00875,4.3343459 95.12183,-6.0899401 86.854273,-16.212929 90.016887,-9.5338221 96.090571,-4.3817331 100.2949,1.7838958 103.09978,4.3357799 111.4273,17.310943 111.35318,14.39613 Z M 90.393305,-3.5955355 C 84.518777,-16.318163 82.143348,-30.443298 83.70789,-44.372821 c -6.497818,-6.781014 -5.122627,8.006019 -6.049069,11.687361 0.01108,8.786032 0.804165,18.479941 5.842778,25.8941659 2.158172,0.653324 5.05534,3.8178643 6.891706,3.1957586 z M 81.393429,-7.8288687 C 80.771881,-14.64815 74.531331,-18.930866 69.049919,-20.919954 c -8.778251,3.103569 2.420657,6.235416 5.351459,8.868253 2.125557,1.220809 5.06772,4.1470177 6.992051,4.2228323 z M 201.05213,-24.100743 c 2.08195,-12.080755 0.26218,-25.019448 -5.77674,-35.753546 -3.46835,-2.99123 -10.89152,-7.559397 -5.46521,-0.260988 5.72986,10.714459 7.72712,23.072246 6.77073,35.114234 1.37672,0.384612 4.09243,3.7554 4.47122,0.9003 z m 22.31092,-28.329368 c -1.25157,-3.509959 -10.19147,-6.757715 -14.1279,-10.147233 -8.64771,-5.489971 -17.18512,-11.175505 -25.89201,-16.562313 6.89139,8.205626 17.07754,12.381251 25.60936,18.580118 4.9131,2.136177 9.38376,7.701589 14.41055,8.129428 z m -57.8467,-38.228898 c -5.10205,-1.5341 -12.62704,-11.798161 -16.59219,-8.649543 4.84175,3.542991 12.04334,7.798641 16.59219,8.649543 z m -51.64151,-31.734441 c -4.47438,-3.57611 -0.78865,1.49569 0,1e-5 z"
         id="path836"
         inkscape:connector-curvature="0"
         sodipodi:nodetypes="ccccccccccccccccccccccccccccccccccccccccccccccccccccccccccccccccccccccccccccccccccccccccsss" />
      <path
         style="fill:#fbf8f8;fill-opacity:1;stroke-width:0.264583"
         d="m 108.14123,62.337784 c -5.91169,-1.041098 -10.026433,-2.95811 -14.660261,-6.830044 -2.30319,-1.924499 -2.58776,-2.653725 -2.383176,-6.106998 0.186758,-3.15242 1.641633,-13.540237 2.825353,-20.173042 0.433538,-2.429277 0.788252,-4.665286 0.788252,-4.968911 0,-0.303623 -0.305774,-1.278525 -0.679495,-2.166448 -1.26419,-3.003585 0.387596,-2.315967 1.772219,0.737751 0.675404,1.489572 0.739555,1.866272 0.611952,3.593409 l -0.142545,1.9294 2.700192,1.719791 c 1.485109,0.945886 3.544639,2.266093 4.576749,2.933795 2.02802,1.311992 5.53507,3.577794 8.49114,5.485876 1.01864,0.657516 2.2688,1.450631 2.77812,1.76248 1.01226,0.619783 3.95823,2.519314 5.79018,3.733448 0.63798,0.422828 1.76908,1.151133 2.51354,1.618458 l 1.35357,0.849683 1.13493,-1.246558 c 0.62421,-0.685606 2.34235,-2.853901 3.8181,-4.818432 1.47574,-1.964531 2.92955,-3.777586 3.23069,-4.029012 0.48639,-0.406087 1.2896,-0.457795 7.19258,-0.46302 6.19024,-0.0055 6.6899,0.02939 7.30027,0.509508 0.36037,0.283466 1.70709,1.980107 2.99272,3.770312 3.29832,4.592809 9.93336,13.265647 13.00508,16.999275 3.06939,3.730791 3.19828,3.792437 6.94384,3.320981 4.94117,-0.621951 8.50157,-1.912752 12.21638,-4.428982 2.96709,-2.009764 4.43053,-3.400121 4.61525,-4.384768 0.36319,-1.935945 -2.25615,-21.281084 -3.3468,-24.717818 -0.20809,-0.655722 -0.77746,-1.188138 -2.43523,-2.277192 -1.19,-0.781756 -2.56918,-1.629698 -3.06484,-1.884317 -1.01054,-0.51911 -1.10888,-0.589362 -2.40609,-1.718898 l -0.92604,-0.806344 0.79375,-0.689496 c 5.83617,-5.069625 8.33437,-7.590845 8.33437,-8.411178 0,-0.170817 -0.65797,-0.709348 -1.46215,-1.1967367 -0.80419,-0.4873863 -1.51997,-0.9797017 -1.59063,-1.0940335 -0.0707,-0.1143317 0.93358,-1.566582 2.23164,-3.2272233 5.9628,-7.6283526 8.3615,-12.1762356 12.628,-23.9424095 0.22426,-0.618463 0.55224,-1.124479 0.72885,-1.124479 0.17661,0 0.97043,0.412917 1.76405,0.917593 l 1.44295,0.917594 0.44483,-0.985216 c 0.58909,-1.3047 1.43738,-5.573164 1.82526,-9.184346 0.45696,-4.254216 0.16207,-11.484802 -0.66901,-16.404166 -0.36876,-2.182812 -0.74492,-4.23664 -0.83591,-4.564062 -0.23998,-0.863584 0.13972,-0.751149 2.31891,0.686671 4.2238,2.786837 7.26292,4.742933 7.82998,5.039685 0.57238,0.299532 0.83812,1.086665 0.36686,1.086665 -0.34253,0 -1.65013,3.057363 -2.19895,5.141481 -0.97539,3.703973 -0.35411,7.846747 1.84774,12.321018 0.85037,1.727994 1.21233,2.155296 2.80155,3.307291 4.38426,3.178061 12.72183,9.476108 15.67006,11.8368814 4.09938,3.2825504 4.21553,3.5032949 3.81255,7.2461091 -0.50097,4.6529173 -1.96639,8.895368 -4.2509,12.3064345 -2.97315,4.439309 -3.88212,5.256572 -5.84316,5.253619 -2.50935,-0.0038 -13.69276,-1.512149 -22.84923,-3.081813 -3.8262,-0.65591 -4.01071,-0.664208 -5.35412,-0.240732 -1.73625,0.547302 -5.07,2.752003 -5.99487,3.964573 -1.25026,1.639178 -2.00074,3.364034 -1.6842,3.870883 0.21267,0.34055 0.14443,0.802476 -0.27672,1.873035 -1.24797,3.172325 -1.24648,2.982455 -0.0789,10.019966 1.36283,8.214066 2.40257,16.387207 2.40257,18.88599 0,1.718355 -0.0867,2.056434 -0.76937,2.998769 -1.02168,1.41039 -4.90281,4.302061 -7.6973,5.734941 -3.45531,1.771716 -7.13021,2.796244 -11.54363,3.218264 -2.23808,0.214009 -3.43958,-0.108656 -4.7769,-1.282845 -1.66459,-1.461526 -9.6725,-11.918396 -15.54177,-20.294702 -1.27457,-1.819011 -2.34946,-3.340322 -2.38863,-3.380695 -0.10043,-0.1035 -12.35311,-0.114753 -12.4283,-0.0114 -0.034,0.04665 -1.53282,2.168411 -3.33084,4.715026 -5.68116,8.046497 -12.69714,17.169381 -14.60298,18.988272 -1.5839,1.511633 -2.9973,1.666438 -7.68212,0.841404 z m 22.5535,-33.243137 C 120.70582,28.020203 109.95491,23.499477 101.59056,16.856438 99.296415,15.034403 95.00512,10.801829 93.127041,8.5087308 91.231595,6.1944257 89.314694,3.2524973 89.633043,3.1463809 c 0.262623,-0.08754 1.203389,0.4084981 4.792536,2.5269639 3.305331,1.9509474 4.766506,2.9776842 7.953271,5.5885902 5.57614,4.568515 11.99375,8.329842 18.79088,11.013238 2.59266,1.023535 3.8311,1.679384 7.01146,3.713075 1.01865,0.651378 2.09807,1.289796 2.39873,1.418706 0.30066,0.128913 0.98389,0.531106 1.51829,0.893763 0.74602,0.506256 0.87517,0.696396 0.5562,0.818801 -0.2285,0.08768 -0.55455,0.140369 -0.72455,0.11708 -0.17,-0.02328 -0.72581,-0.08717 -1.23513,-0.141951 z m 3.57188,-4.608745 c -2.89635,-0.420714 -4.38792,-1.334868 -5.2942,-3.244715 -0.23372,-0.492517 -0.8923,-1.356051 -1.46352,-1.918968 -0.57122,-0.562917 -1.04059,-1.13095 -1.04304,-1.262295 -0.002,-0.131347 -0.71883,-0.935667 -1.59195,-1.787379 -0.87313,-0.851713 -1.5875,-1.768824 -1.5875,-2.038027 0,-0.269203 -0.71438,-1.269077 -1.5875,-2.221937 -0.87313,-0.952862 -1.5875,-1.807157 -1.5875,-1.898433 0,-0.09128 -0.40863,-0.5247372 -0.90807,-0.9632497 -0.49944,-0.4385125 -1.16356,-1.325065 -1.47582,-1.9701165 -0.31227,-0.6450515 -0.94532,-1.4905275 -1.4068,-1.87883 -0.46147,-0.3883051 -1.06228,-1.0756952 -1.33512,-1.5275295 -0.27284,-0.4518368 -0.89805,-1.2142258 -1.38934,-1.6941958 -0.4913,-0.4799726 -1.28995,-1.49277643 -1.77477,-2.25067536 -0.48482,-0.75789892 -1.25871,-1.73402614 -1.71975,-2.16917314 -0.46103,-0.4351443 -0.83825,-0.9155985 -0.83825,-1.0676731 0,-0.1520772 -0.5456,-0.8073072 -1.21246,-1.4560681 -0.66685,-0.6487636 -1.43094,-1.60206 -1.69797,-2.1184367 -0.26702,-0.5163767 -1.09064,-1.5834147 -1.83025,-2.3711957 -0.7396,-0.7877814 -1.34474,-1.5213514 -1.34474,-1.6301564 0,-0.108804 -0.46895,-0.631719 -1.04212,-1.162034 -0.57317,-0.530315 -1.27902,-1.457849 -1.56855,-2.061186 -0.54661,-1.13901 -1.734152,-2.552184 -2.144703,-2.552184 -0.129826,0 -0.308007,-0.226724 -0.395957,-0.50383 -0.08795,-0.277106 -0.810347,-1.18078 -1.605328,-2.008161 -0.794983,-0.827381 -1.445421,-1.710825 -1.445421,-1.963208 0,-0.252384 -0.482219,-0.92629 -1.0716,-1.497568 -0.589377,-0.571281 -1.408636,-1.514941 -1.820574,-2.097024 -0.411937,-0.582083 -1.239406,-1.594062 -1.838819,-2.248842 -0.599411,-0.654778 -1.08984,-1.32066 -1.08984,-1.479735 0,-0.159076 -0.654844,-0.976225 -1.455209,-1.815886 -0.800364,-0.839663 -1.455208,-1.628806 -1.455208,-1.753655 0,-0.124847 -0.533765,-0.796034 -1.186143,-1.491523 -0.905571,-0.965414 -1.194144,-1.483571 -1.21997,-2.190567 -0.08854,-2.423782 0.08833,-4.960233 0.598773,-8.586544 l 0.556898,-3.956338 -0.602581,-0.409286 c -0.331419,-0.225111 -1.183968,-0.734981 -1.894549,-1.133047 l -1.291968,-0.723757 -0.514514,0.84605 c -0.523841,0.861386 -2.64803,7.071773 -2.64803,7.741915 0,0.381354 -1.082616,-0.24438 -5.144206,-2.973263 -1.137092,-0.763985 -2.200989,-1.390965 -2.364221,-1.393288 -0.16323,-0.0024 -0.703879,-0.363016 -1.201444,-0.801534 -0.497565,-0.438518 -2.02302,-1.478415 -3.3899,-2.310879 -1.36688,-0.832464 -2.983844,-1.832869 -3.593254,-2.223127 -0.609409,-0.390255 -1.703329,-1.076928 -2.430933,-1.525942 -0.727604,-0.449011 -2.156354,-1.409496 -3.175,-2.134412 -1.018646,-0.724913 -2.387865,-1.59149 -3.042709,-1.925725 -0.654843,-0.334235 -1.9203,-1.138044 -2.812126,-1.786239 -0.891823,-0.648197 -1.978263,-1.372817 -2.414307,-1.610267 -0.791665,-0.431102 -0.792618,-0.434533 -0.660556,-2.38125 0.367993,-5.42459 3.114077,-11.700073 6.844641,-15.641711 0.889595,-0.939927 1.025903,-0.992187 2.5879,-0.992187 2.091219,0 12.403815,1.338079 19.471648,2.526485 2.984029,0.501742 5.754876,0.912447 6.157437,0.91268 1.851572,0.0011 8.484711,-3.976709 7.983558,-4.787588 -0.07778,-0.125849 0.332211,-0.856205 0.911085,-1.62301 0.578877,-0.766804 1.482442,-2.29961 2.007921,-3.406229 l 0.955415,-2.012035 -1.200097,-7.248382 c -1.447691,-8.743785 -2.526625,-17.072395 -2.525278,-19.493335 0.0013,-2.14148 0.396131,-2.89553 2.412415,-4.60592 5.21761,-4.42603 11.235754,-6.93834 17.435624,-7.27859 3.90969,-0.21457 4.21761,-0.0319 8.01981,4.75692 3.90955,4.92405 7.57751,9.83063 11.61413,15.53609 l 3.27588,4.63021 h 6.18533 6.18533 l 2.50225,-3.57188 c 6.71473,-9.58506 15.05254,-20.20121 16.44745,-20.94179 2.33037,-1.23723 10.12374,0.0605 14.95308,2.48992 3.45573,1.73843 7.687,5.03791 8.51567,6.64039 0.80995,1.56625 0.34431,6.3514 -2.08525,21.429035 -0.97904,6.075804 -1.06649,6.972511 -0.78328,8.0314 0.4237,1.584164 1.70027,4.12364 2.72035,5.411607 0.96307,1.215973 0.87432,1.490303 -0.28773,0.889381 -0.94539,-0.488878 -2.87833,-3.308677 -3.70402,-5.40346 -0.62486,-1.585288 -0.65401,-2.437831 -0.22426,-6.560553 l 0.31501,-3.022084 -0.77803,-0.637267 c -0.42792,-0.350496 -0.99341,-0.710735 -1.25664,-0.800529 -0.26322,-0.08979 -1.21573,-0.658243 -2.11666,-1.263219 -0.90094,-0.604977 -1.83343,-1.219801 -2.07221,-1.366291 -0.23877,-0.14648 -1.30014,-0.84213 -2.35858,-1.54589 -1.05845,-0.70376 -2.29184,-1.47869 -2.74087,-1.72207 -0.44903,-0.24338 -1.41173,-0.85746 -2.13933,-1.36462 -1.75378,-1.22243 -4.11109,-2.64521 -4.38268,-2.64521 -0.11964,0 -0.3731,-0.21451 -0.56326,-0.4767 -0.19015,-0.26219 -1.11963,-0.91026 -2.06552,-1.44016 -0.94588,-0.52989 -2.66375,-1.62506 -3.81749,-2.43371 -1.15373,-0.80864 -2.24478,-1.47026 -2.42456,-1.47026 -0.51467,0 -6.28623,7.24152 -9.32807,11.70384 -0.46971,0.68905 -1.11741,1.39677 -1.43934,1.57272 -0.57363,0.31353 -12.9527,0.586893 -13.99986,0.30916 -0.24747,-0.0656 -1.72757,-1.92888 -3.28911,-4.14055 -3.52327,-4.99014 -8.25847,-11.30587 -12.20515,-16.27904 -3.64069,-4.58758 -3.77611,-4.66727 -7.26039,-4.27256 -1.34114,0.15192 -2.74095,0.34225 -3.11067,0.42295 -1.95837,0.42744 -4.90127,1.56409 -6.69257,2.58491 -2.104542,1.19932 -5.489039,3.74725 -5.489039,4.13228 0,0.20616 0.915109,0.83516 5.688539,3.91004 1.01865,0.65618 2.62599,1.69549 3.57188,2.30958 0.94588,0.61409 2.91041,1.86327 4.36562,2.77596 1.45521,0.91268 3.44739,2.20828 4.42707,2.87913 0.97967,0.67083 2.36743,1.57689 3.08389,2.01345 0.71647,0.43657 1.87945,1.14571 2.5844,1.57587 0.70495,0.43017 2.20358,1.41244 3.3303,2.182817 1.12671,0.770379 2.11456,1.400691 2.19522,1.400691 0.20661,0 6.18129,3.977274 6.32571,4.210957 0.0653,0.105635 -0.73833,0.409128 -1.78582,0.674426 -9.57434,2.4249 -15.99355,5.137091 -22.2697,9.409207 -4.00911,2.72896 -7.75326,6.083292 -7.223858,6.471753 0.03981,0.02921 0.756988,0.456703 1.593728,0.949989 0.83675,0.493284 1.52135,0.95926 1.52135,1.035505 0,0.07624 -0.96803,1.209286 -2.15119,2.517873 -2.399041,2.653358 -4.878978,5.783339 -6.532645,8.24498 -1.490274,2.218412 -3.222411,5.551246 -3.222411,6.200293 0,0.29233 0.343271,0.85222 0.762823,1.2442 0.419553,0.391981 0.950098,1.069877 1.178989,1.50644 0.228893,0.436562 0.897654,1.26116 1.486138,1.83244 0.588481,0.571278 1.069967,1.150872 1.069967,1.287987 0,0.137115 0.327422,0.632806 0.727604,1.10154 0.400182,0.468735 1.432542,1.764373 2.294131,2.879201 0.861586,1.114827 1.647462,2.026957 1.746387,2.026957 0.09893,0 0.540207,0.565546 0.980627,1.25677 0.44042,0.691224 1.14283,1.655003 1.56091,2.141733 0.41807,0.486728 1.3927,1.617822 2.16584,2.513542 0.77314,0.895718 1.59118,1.985767 1.81785,2.422329 0.22667,0.436563 0.56337,0.972344 0.74823,1.190625 0.23291,0.275029 0.37577,1.859023 0.46533,5.159375 0.10787,3.975184 0.24045,5.185441 0.80198,7.320899 1.132,4.304871 3.21374,8.49957 5.20777,10.493596 0.59002,0.590021 9.04139,5.8310915 13.76012,8.5332651 0.65616,0.375748 2.18402,1.2984823 3.39525,2.0505207 1.21123,0.7520384 2.2584,1.3673428 2.32705,1.3673428 0.0686,0 0.98265,0.5832633 2.0311,1.2961408 2.16941,1.47504935 5.10496,4.2865408 5.36826,5.141391 0.0972,0.3156612 0.72728,1.1824705 1.40011,1.926246 1.76641,1.9526646 2.41395,2.762988 2.41395,3.0207795 0,0.1249072 0.21578,0.3826828 0.47951,0.5728361 0.26374,0.1901508 0.76975,0.76168 1.12448,1.270063 1.11061,1.591668 3.75227,4.858031 4.66752,5.77129 0.48217,0.481135 1.11688,1.314572 1.41045,1.852084 0.29357,0.537511 1.05689,1.632137 1.69626,2.432502 0.63938,0.800364 1.0824,1.538944 0.9845,1.641287 -0.36867,0.3854 -5.3165,1.55235 -8.19346,1.932432 -3.20948,0.424013 -9.50194,0.476006 -12.09113,0.09991 z M 54.575497,14.131547 C 53.090177,12.596064 50.659788,8.7788042 49.577724,6.2818573 48.556957,3.9263619 48.005642,1.7031926 47.736793,-1.1416496 c -0.15635,-1.6544262 -0.12746,-1.9333632 0.176657,-1.7056575 0.449924,0.3368833 2.408558,1.6097514 6.125803,3.9810132 5.172871,3.2998171 8.778139,5.6226126 9.583603,6.1745017 1.812655,1.241999 4.847148,3.1853182 4.973875,3.1853182 0.07497,0 0.944227,0.530715 1.931676,1.179367 1.11752,0.734095 1.651248,1.226516 1.413655,1.304251 -2.351595,0.769368 -12.061947,2.276035 -14.680263,2.277803 -1.5342,0.0011 -1.642351,-0.04419 -2.686302,-1.1234 z M 161.51869,-10.514575 c -0.29104,-0.188565 -0.92038,-0.578072 -1.39852,-0.865571 l -0.86936,-0.522724 1.73552,-2.32787 c 2.7163,-3.6434 4.53473,-7.066039 5.80616,-10.928336 0.2515,-0.763985 0.537,-1.388571 0.63444,-1.387967 0.0975,5.29e-4 0.83202,0.394081 1.63239,0.874403 1.7645,1.058926 1.90891,1.675574 1.05262,4.494725 -1.07699,3.545774 -3.00124,6.867408 -5.51071,9.512588 -1.48799,1.568461 -2.09061,1.7934253 -3.08254,1.150752 z m 33.46979,-29.713426 c -0.3638,-0.514041 -1.08237,-1.426597 -1.59681,-2.027899 -1.49466,-1.747015 -4.03844,-4.887158 -4.70268,-5.805167 -0.33602,-0.4644 -0.94221,-1.20155 -1.34708,-1.638112 -0.40487,-0.436563 -1.01914,-1.210469 -1.36504,-1.719792 -0.34589,-0.509323 -1.26167,-1.699948 -2.03505,-2.645833 -0.77339,-0.945886 -1.94155,-2.374635 -2.59592,-3.175 -0.65437,-0.800365 -1.66519,-2.050521 -2.24627,-2.778125 -0.58108,-0.727604 -1.19574,-1.491213 -1.36592,-1.69691 -1.18695,-1.434664 -5.51339,-6.938756 -6.04198,-7.686598 -0.35642,-0.504262 -0.84275,-1.099574 -1.08072,-1.322917 -0.23798,-0.22334 -0.92631,-1.060918 -1.52964,-1.861283 -0.60333,-0.800364 -1.53972,-1.978371 -2.08086,-2.617792 -0.54115,-0.639424 -1.22203,-1.489089 -1.51307,-1.888146 -0.29104,-0.399056 -1.48167,-1.889141 -2.64583,-3.3113 -3.34837,-4.090406 -3.63209,-4.487066 -3.95453,-5.528802 -0.0649,-0.209804 -0.39237,-0.55005 -0.72761,-0.756105 -2.43961,-1.499492 -5.66377,-3.454855 -7.22411,-4.381228 -1.01865,-0.604768 -2.14974,-1.345334 -2.51354,-1.6457 l -0.66146,-0.546124 1.98437,0.167164 c 6.65711,0.560792 16.50373,4.081849 23.01875,8.23128 5.2586,3.349212 10.8285,8.211034 14.18976,12.385865 1.88567,2.342086 3.15734,4.327816 2.92216,4.562998 -0.0827,0.08266 -0.66267,-0.170762 -1.28892,-0.56316 -1.21772,-0.763013 -4.23795,-2.575568 -6.90883,-4.146256 -0.90097,-0.529839 -1.68471,-0.919816 -1.74165,-0.866614 -0.0569,0.0532 0.35978,0.649518 0.92604,1.325148 4.87541,5.817046 7.15967,9.195291 9.64428,14.263147 0.99882,2.037291 2.29811,5.149892 2.88732,6.916893 1.20666,3.618727 2.46311,9.412012 2.33867,10.783271 l -0.0824,0.907719 z m -83.67311,-0.419537 c -0.836,-0.467257 -1.5863,-1.052044 -1.66734,-1.299525 -0.23088,-0.705088 1.05045,-4.045979 2.44648,-6.378879 1.29718,-2.167686 5.05219,-6.395524 6.24931,-7.036204 0.60827,-0.325536 0.8008,-0.272857 2.27438,0.6223 0.88543,0.537866 1.60986,1.036293 1.60986,1.107614 0,0.07132 -0.84461,1.088173 -1.87692,2.259672 -2.37096,2.690645 -4.16676,5.429585 -5.82437,8.883276 -0.71589,1.491589 -1.38932,2.707328 -1.49652,2.701642 -0.10719,-0.0057 -0.87889,-0.392636 -1.71488,-0.859896 z m 43.72103,-16.498987 c -5.45703,-3.279103 -9.98141,-6.026539 -10.05417,-6.105416 -0.31602,-0.342586 3.449,0.286414 5.40133,0.902369 4.04262,1.275437 8.17241,3.69556 11.30265,6.623534 1.52545,1.426876 3.48882,3.92703 3.36331,4.282834 -0.0502,0.142274 -4.55609,-2.424221 -10.01312,-5.703321 z m 74.22083,-10.547101 c -0.87026,-0.653314 -1.67502,-1.187844 -1.78835,-1.187844 -0.19696,0 -2.24391,-1.322128 -6.55123,-4.23145 -1.09141,-0.737176 -2.34156,-1.496978 -2.77813,-1.688449 -0.43656,-0.191473 -0.95715,-0.545168 -1.15687,-0.785992 -0.19972,-0.240821 -0.47592,-0.437859 -0.61379,-0.437859 -0.49227,0 -2.63833,-1.64982 -2.42034,-1.860679 0.52111,-0.504056 6.99869,-1.829724 8.98397,-1.838611 0.70706,-0.0032 1.33348,0.187592 1.7867,0.544094 1.45359,1.143394 4.52693,5.983938 5.57057,8.773692 0.70189,1.876261 1.10339,3.907887 0.77146,3.903723 -0.12193,-0.0016 -0.93373,-0.537311 -1.80399,-1.190625 z"
         id="path834"
         inkscape:connector-curvature="0" />
      <path
         style="fill:#fbf8f8;fill-opacity:1;stroke-width:0.264583"
         d="m 110.18952,62.574375 c -5.60734,-0.700762 -10.896449,-2.740745 -14.842194,-5.724559 -2.965503,-2.242545 -3.995306,-3.43974 -4.214159,-4.89916 -0.212444,-1.416675 0.602928,-8.383558 1.879248,-16.057131 0.496184,-2.983177 0.902843,-5.520282 0.903693,-5.638011 7.94e-4,-0.117729 0.110434,-0.146751 0.243525,-0.0645 0.133091,0.08226 0.312311,-1.3e-5 0.398267,-0.182821 0.158374,-0.336831 0.03268,4.176111 -0.278742,10.008221 l -0.170706,3.196849 1.558242,0.991516 c 0.857036,0.545335 3.569706,2.303618 6.028166,3.907292 2.45845,1.603677 5.01829,3.221125 5.68854,3.594327 0.67024,0.373203 1.69487,1.025023 2.27696,1.448486 1.47871,1.075761 6.31402,4.167055 6.5204,4.168608 0.55513,0.0042 7.53025,-8.544629 13.22096,-16.203792 1.75723,-2.365073 3.41428,-4.419322 3.68233,-4.564996 0.55293,-0.300503 13.09364,-0.316688 13.79112,-0.01781 0.24076,0.103169 0.95197,0.923348 1.58047,1.822622 1.87754,2.68641 9.79606,13.15475 12.69215,16.779107 3.62576,4.537517 4.66104,5.587585 5.70131,5.782741 2.08268,0.390713 8.43781,-0.918374 11.63936,-2.39758 2.34853,-1.08509 6.20264,-3.693474 7.63648,-5.168228 l 1.05833,-1.088527 -0.0438,-2.167485 c -0.0241,-1.19212 -0.4014,-5.382175 -0.83846,-9.311238 -0.88023,-7.912956 -1.16691,-11.662769 -0.82936,-10.847916 0.15395,0.371621 0.23263,0.411007 0.26427,0.132292 0.16473,-1.450755 2.69424,14.528016 3.06648,19.370727 0.22849,2.972636 -0.0682,3.786621 -2.04865,5.620149 -4.35486,4.031837 -9.7284,6.483046 -16.18464,7.382827 -2.97041,0.413975 -4.68947,0.261327 -5.88599,-0.52266 -1.22444,-0.802283 -9.12806,-11.008087 -14.92014,-19.266095 -1.62641,-2.318851 -3.05871,-4.397626 -3.18288,-4.619501 -0.19204,-0.343153 -1.16222,-0.405481 -6.4957,-0.417295 l -6.26995,-0.01389 -0.71396,0.929222 c -0.39268,0.511072 -1.83221,2.536566 -3.19895,4.501097 -5.72776,8.232986 -13.65263,18.342562 -14.94953,19.070785 -1.06922,0.600376 -2.53856,0.744246 -4.7625,0.466315 z M 219.06557,14.826054 c -5.86847,-0.713136 -12.87925,-1.74512 -17.948,-2.641941 -5.61664,-0.993756 -5.71099,-0.990195 -8.86741,0.334558 l -1.54769,0.649573 -1.77361,-1.071634 c -2.97372,-1.796748 -2.82949,-1.616733 -2.31855,-2.8936867 0.24237,-0.605745 0.44067,-1.1478048 0.44067,-1.2045738 0,-0.056772 -0.77814,-0.5946616 -1.7292,-1.1953107 -1.0539,-0.6655964 -1.6574,-1.2082621 -1.54535,-1.3895651 0.10111,-0.1636104 1.28871,-1.943137 2.63909,-3.954502 2.91687,-4.3446064 4.40262,-7.0163185 6.67313,-11.9998197 0.9282,-2.037291 1.71976,-3.738155 1.75902,-3.779694 0.0393,-0.04154 0.80758,0.363021 1.70738,0.899027 0.9682,0.576758 1.7331,0.877462 1.87387,0.736685 0.37518,-0.375182 1.50694,-3.543025 2.1308,-5.964208 1.06461,-4.131725 1.60646,-8.171418 1.76145,-13.132323 0.0831,-2.659994 0.25152,-4.898411 0.37425,-4.974262 0.2413,-0.14913 2.41246,1.01455 3.27327,1.754373 0.29104,0.250134 0.78009,0.530645 1.08677,0.623353 0.46511,0.140602 0.58315,0.442216 0.71166,1.818364 0.30503,3.26652 2.59972,9.231344 4.05194,10.532639 0.42032,0.376634 1.83578,1.442035 3.14546,2.367555 7.19853,5.087009 12.31049,13.5202913 13.08082,14.7369513 0.47912,0.7567242 7.09681,1.9226812 4.57111,2.6810875 -17.27118,5.1861241 -1.09001,6.3178529 -2.30021,8.8680948 -1.72863,3.6427274 -4.91246,7.8679384 -6.29082,8.3484394 -0.9499,0.331137 -1.02618,0.328843 -4.95985,-0.14918 z m -56.48855,-27.250833 c -0.58208,-0.353883 -1.21716,-0.739942 -1.41128,-0.857909 -0.26934,-0.163674 0.0103,-0.771726 1.18037,-2.566794 0.84332,-1.29377 2.16922,-3.639568 2.94644,-5.212884 l 1.41314,-2.860577 1.57368,0.865143 c 1.84455,1.014042 1.89046,1.210026 0.90098,3.845808 -1.22162,3.254166 -4.18325,7.522091 -5.17362,7.45558 -0.20426,-0.01373 -0.84762,-0.314481 -1.42971,-0.668367 z m -50.59693,-30.35239 c -0.79684,-0.481523 -1.38639,-1.028954 -1.38906,-1.28982 -0.0161,-1.578406 3.02924,-6.687428 5.15326,-8.645289 l 1.21823,-1.122918 1.24371,0.72005 c 2.3363,1.352611 2.29996,1.048848 0.42483,3.551402 -0.92553,1.235196 -2.35369,3.466205 -3.17371,4.957794 -0.82002,1.491588 -1.62636,2.701493 -1.79188,2.688677 -0.16552,-0.01281 -0.92394,-0.39977 -1.68538,-0.859896 z M 84.618417,-53.510896 c -2.055689,-1.309333 -2.607019,-1.855446 -2.607019,-2.582342 0,-0.505801 -0.586881,-1.002045 -3.108855,-2.628743 -1.70987,-1.102881 -3.585104,-2.349344 -4.167187,-2.769918 -0.582084,-0.420574 -1.594115,-1.077499 -2.248959,-1.459838 -0.654843,-0.382336 -2.143125,-1.325737 -3.307291,-2.096447 -1.164167,-0.770708 -3.485886,-2.259232 -5.159375,-3.307834 -1.67349,-1.0486 -4.233334,-2.702806 -5.688542,-3.67601 -1.455208,-0.973206 -3.21138,-2.09623 -3.902604,-2.495608 -0.691224,-0.399378 -1.256771,-0.820801 -1.256771,-0.936498 0,-0.115697 0.482258,-0.883825 1.071684,-1.706949 0.70802,-0.988737 1.314058,-1.549556 1.785938,-1.652672 0.39284,-0.08584 0.863666,-0.202155 1.046284,-0.258469 0.718243,-0.221485 14.591699,1.503837 22.709233,2.82415 l 3.462096,0.56311 2.456006,-1.090155 c 4.619606,-2.050518 7.023417,-4.304366 9.204997,-8.630742 0.5231,-1.037384 0.936792,-2.257693 0.941798,-2.778125 0.01328,-1.38158 -0.576514,-3.246258 -0.978065,-3.092167 -0.243935,0.09361 -0.531667,-0.900856 -1.046207,-3.615912 -0.912241,-4.813607 -2.170909,-13.399565 -2.587747,-17.652225 -0.31814,-3.24574 -0.311761,-3.35287 0.27142,-4.55756 0.612405,-1.26506 2.228882,-2.70971 5.451105,-4.87165 4.060594,-2.72444 8.495944,-4.25802 13.671244,-4.727 2.63176,-0.23848 3.72124,-0.0111 4.90169,1.02281 1.77599,1.55559 9.3896,11.47072 15.12598,19.69841 1.64869,2.36471 3.1348,4.30406 3.30248,4.30966 0.16767,0.006 2.98376,0.0108 6.25798,0.0116 5.90053,0.001 5.95711,-0.004 6.40406,-0.6055 0.24801,-0.33379 1.48573,-2.09516 2.75048,-3.91417 5.26241,-7.56861 13.5187,-18.26697 15.1687,-19.65535 0.45527,-0.38308 1.2679,-0.77909 1.80587,-0.88001 1.37034,-0.25708 6.00227,0.32756 8.74207,1.10343 4.8243,1.36615 11.36068,5.38059 13.07576,8.03073 0.7735,1.19521 0.78365,1.25727 0.63157,3.86057 -0.317,5.42646 -3.12109,22.78516 -3.62987,22.470716 -0.3098,-0.191468 -0.29748,-2.9182 0.0251,-5.544322 0.37821,-3.079461 0.75067,-8.991294 0.61213,-9.716004 -0.11492,-0.60117 -0.4508,-0.86795 -3.64937,-2.8986 -0.7276,-0.46193 -2.69804,-1.7554 -4.37875,-2.87437 -1.6807,-1.11898 -3.76429,-2.42834 -4.6302,-2.90969 -0.86591,-0.48136 -2.11016,-1.27441 -2.76501,-1.76234 -0.65484,-0.48793 -2.4056,-1.66603 -3.89057,-2.618 -2.65703,-1.70335 -2.70961,-1.72345 -3.3073,-1.2649 -1.43471,1.10074 -6.26292,7.03896 -12.27454,15.09648 -2.07987,2.7877 -3.91636,5.15184 -4.08107,5.25364 -0.45541,0.28146 -13.29747,0.26203 -13.80079,-0.0209 -0.24183,-0.13593 -1.74274,-2.04657 -3.33537,-4.24587 -6.59168,-9.10263 -14.43609,-19.11852 -15.5401,-19.84189 -0.56555,-0.37056 -1.12216,-0.41888 -3.37837,-0.29329 -3.56286,0.19832 -6.35165,0.94396 -9.58841,2.56363 -3.248065,1.62533 -7.205814,4.56491 -7.919302,5.88198 -0.509104,0.93978 -0.510133,1.02196 -0.05429,4.3304 0.663549,4.81592 0.809146,5.18242 2.411968,6.07146 0.734947,0.40765 1.770121,1.07926 2.300383,1.49246 0.530265,0.4132 1.053383,0.75127 1.162487,0.75127 0.109103,0 2.074684,1.25015 4.367944,2.77812 2.29327,1.527972 4.28827,2.778128 4.43335,2.778128 0.14507,0 0.86998,0.446485 1.61092,0.992188 1.26786,0.933783 6.54307,4.393885 8.42661,5.527159 l 0.85709,0.515686 -4.30671,2.15115 c -6.81812,3.405571 -12.93795,7.727595 -16.921951,11.950842 -2.634345,2.792547 -2.625196,2.743515 -0.732761,3.926459 0.876763,0.54806 1.592437,1.056341 1.590389,1.129514 -0.0021,0.07317 -1.189074,1.740387 -2.637835,3.704918 -3.050344,4.136292 -5.099166,7.501868 -7.445748,12.231036 -0.919012,1.852123 -1.793529,3.411251 -1.943373,3.464729 -0.149844,0.05348 -0.944753,-0.330983 -1.766466,-0.854358 z m 71.299573,-5.382554 c -1.76973,-1.055026 -3.16695,-1.969201 -3.10494,-2.031502 0.21463,-0.215641 4.47671,2.11024 5.53064,3.018152 0.58208,0.501441 0.99841,0.916181 0.92516,0.921644 -0.0732,0.0055 -1.58113,-0.853268 -3.35086,-1.908294 z m 24.12153,-19.025271 c -0.7276,-0.455919 -1.62057,-1.030306 -1.98437,-1.276413 -0.3638,-0.246111 -1.25677,-0.77792 -1.98438,-1.181796 -0.7276,-0.403879 -2.7275,-1.584264 -4.44421,-2.623079 -1.71671,-1.038813 -4.09796,-2.47146 -5.29166,-3.18366 -7.06414,-4.214667 -7.4938,-4.616532 -3.17291,-2.967617 3.46176,1.321057 7.82193,3.579212 10.951,5.671584 2.81681,1.883559 7.38174,5.681364 7.38174,6.141249 0,0.342043 0.046,0.360371 -1.45521,-0.580268 z"
         id="path832"
         inkscape:connector-curvature="0"
         sodipodi:nodetypes="sssscssscssssssssssssscssssssssssscsssssssscssssssssssssssssssssssssssscssssscscssssssssssssssssssscssssssssscsccsssssssscssssssssssssssssssssssscssscsssssssscssssssssss" />
      <path
         style="fill:#fbf8f8;fill-opacity:1;stroke-width:0.264583"
         d="M 108.44882,62.224365 C 101.95836,61.130938 96.644766,58.47295 92.594731,54.293771 l -1.190625,-1.228592 0.01995,-2.83114 c 0.01712,-2.430457 0.300331,-5.073964 0.793451,-7.406023 0.07493,-0.354388 0.248859,-0.53154 0.418761,-0.426537 0.205018,0.126709 0.234482,1.535033 0.100052,4.782399 -0.234003,5.652722 -0.391856,5.300143 3.800941,8.489761 2.052772,1.561624 6.358959,3.640638 8.889779,4.291955 2.76734,0.712189 6.67598,1.185174 7.8986,0.95581 1.13972,-0.213815 1.7508,-0.891331 9.65912,-10.709391 6.644,-8.248425 6.31651,-7.859043 6.47677,-7.700727 0.34513,0.340931 -3.89548,6.50517 -9.18967,13.35828 -3.34334,4.327821 -4.82751,5.932921 -5.90664,6.387907 -1.02984,0.434205 -3.21506,0.421976 -5.91638,-0.03311 z m 57.03862,0.01528 c -0.43656,-0.19585 -1.22389,-0.816269 -1.74961,-1.378707 -2.29176,-2.451825 -10.25242,-13.059018 -12.01147,-16.004714 -0.55396,-0.927658 -1.18537,-1.895012 -1.40313,-2.149673 -0.23855,-0.278974 -0.27894,-0.463021 -0.10161,-0.463021 0.31254,0 1.51563,1.438648 6.40228,7.655811 1.67349,2.129142 4.32874,5.441836 5.90056,7.361544 3.45325,4.217543 3.6139,4.298569 7.51166,3.788619 5.5331,-0.723903 9.8548,-2.471528 14.1975,-5.741239 3.37046,-2.53769 3.41128,-2.626121 3.22198,-6.979319 -0.0854,-1.964531 -0.22455,-4.151722 -0.30917,-4.860427 -0.12136,-1.016423 -0.0778,-1.263253 0.20608,-1.168765 0.43569,0.145002 1.24716,5.189183 1.31941,8.201668 0.0424,1.766567 -0.0364,2.165561 -0.58756,2.97503 -1.25865,1.848609 -5.84967,5.176377 -9.16285,6.641621 -4.42308,1.956096 -11.3607,3.051717 -13.43407,2.121572 z M 91.83653,-109.03199 c -0.72399,-5.30387 -0.734221,-7.32552 -0.04282,-8.45947 1.096142,-1.79777 6.691524,-5.65803 10.33346,-7.12908 3.29913,-1.33257 9.16581,-2.42429 11.10506,-2.06651 1.61976,0.29883 2.56532,1.13302 5.55936,4.90455 5.43427,6.84545 12.52306,16.9177 11.90658,16.9177 -0.30832,0 -2.08699,-2.17092 -7.15364,-8.73125 -4.27211,-5.53155 -8.11191,-10.20127 -9.00886,-10.956 -0.72303,-0.60839 -1.04369,-0.68528 -2.84509,-0.68219 -3.88909,0.007 -8.55279,1.32572 -12.249052,3.46448 -1.900259,1.09954 -5.711254,3.85602 -6.262598,4.52972 -0.678296,0.82882 -0.834784,2.10084 -0.591023,4.8042 0.539332,5.98129 0.578434,7.57104 0.186229,7.57104 -0.275624,0 -0.512458,-1.05261 -0.937604,-4.16719 z m 57.20596,3.96875 c 4.00044,-6.46783 14.24702,-19.93398 15.99515,-21.02096 0.83199,-0.51733 5.63287,-15.44189 3.09563,-0.56183 6.57198,0.14562 13.92249,3.18913 18.6409,7.71835 2.16851,2.08157 2.27621,2.60361 1.5989,7.75011 -0.84231,6.40011 -0.82489,6.31277 -1.25881,6.31277 -0.32425,0 -0.36755,-0.2763 -0.23839,-1.52136 0.0868,-0.83674 0.23684,-3.31515 0.33341,-5.50757 l 0.1756,-3.98622 -0.89456,-1.02243 c -1.41812,-1.62086 -4.86159,-4.02868 -7.75614,-5.42344 -3.23509,-1.55884 -6.28968,-2.35557 -9.80716,-2.55799 -2.4473,-0.14084 -2.70026,-0.10888 -3.37129,0.42589 -0.80928,0.64495 -5.64549,6.40369 -9.45513,11.25874 -1.37024,1.74625 -2.83062,3.59172 -3.2453,4.10104 -0.41467,0.50933 -1.35459,1.67019 -2.0887,2.57969 -0.73412,0.90951 -1.44997,1.65365 -1.5908,1.65365 -0.14083,0 -0.20082,-0.0893 -0.13331,-0.19844 z"
         id="path830"
         inkscape:connector-curvature="0"
         sodipodi:nodetypes="sscssssssssssssssssssssssssssssssssssssscsssssscscssssscssssssssc" />
    </g>
  </g>
</svg>
