<?xml version="1.0" encoding="UTF-8" standalone="no"?>
<!-- Created with Inkscape (http://www.inkscape.org/) -->

<svg
   width="161.63837mm"
   height="167.28783mm"
   viewBox="0 0 572.73437 592.75214"
   id="svg2"
   version="1.1"
   inkscape:version="1.2.1 (0f2f062aeb, 2022-09-21, custom)"
   sodipodi:docname="lightning.svg"
   xmlns:inkscape="http://www.inkscape.org/namespaces/inkscape"
   xmlns:sodipodi="http://sodipodi.sourceforge.net/DTD/sodipodi-0.dtd"
   xmlns="http://www.w3.org/2000/svg"
   xmlns:svg="http://www.w3.org/2000/svg"
   xmlns:rdf="http://www.w3.org/1999/02/22-rdf-syntax-ns#"
   xmlns:cc="http://creativecommons.org/ns#"
   xmlns:dc="http://purl.org/dc/elements/1.1/">
  <defs
     id="defs4" />
  <sodipodi:namedview
     id="base"
     pagecolor="#ffffff"
     bordercolor="#666666"
     borderopacity="1.0"
     inkscape:pageopacity="0.0"
     inkscape:pageshadow="2"
     inkscape:zoom="0.70000001"
     inkscape:cx="316.42857"
     inkscape:cy="493.57142"
     inkscape:document-units="px"
     inkscape:current-layer="layer1"
     showgrid="false"
     fit-margin-top="0"
     fit-margin-left="0"
     fit-margin-right="0"
     fit-margin-bottom="0"
     inkscape:window-width="3763"
     inkscape:window-height="2096"
     inkscape:window-x="0"
     inkscape:window-y="27"
     inkscape:window-maximized="1"
     inkscape:showpageshadow="0"
     inkscape:pagecheckerboard="1"
     inkscape:deskcolor="#d1d1d1" />
  <metadata
     id="metadata7">
    <rdf:RDF>
      <cc:Work
         rdf:about="">
        <dc:format>image/svg+xml</dc:format>
        <dc:type
           rdf:resource="http://purl.org/dc/dcmitype/StillImage" />
        <dc:title />
      </cc:Work>
    </rdf:RDF>
  </metadata>
  <g
     inkscape:label="Layer 1"
     inkscape:groupmode="layer"
     id="layer1"
     transform="translate(-57.08934,-133.00506)">
    <path
       style="fill:#ffffff;fill-opacity:1;stroke:#ffffff;stroke-width:18.75000003;stroke-miterlimit:4;stroke-dasharray:none;stroke-opacity:1"
       d="M 57.112983,725.18341 C 102.27488,673.70312 150.8259,625.22694 197.65587,575.23697 c -28.13283,-1.23293 -57.1747,0.77364 -84.60197,-3.18048 66.44468,-65.64415 135.48608,-128.62382 202.48329,-193.70471 -41.80038,-2.05015 -83.65786,-3.04172 -125.46792,-4.66067 16.44037,-22.23631 44.15162,-44.21333 64.81028,-66.22626 58.35738,-56.86017 116.40285,-114.05047 175.47759,-170.16709 57.45602,-1.57518 114.91008,-4.2874 172.39244,-3.98267 -57.11972,2.77604 -114.32652,4.37204 -171.50375,5.68993 -79.23924,77.58143 -160.13003,153.58395 -237.75348,232.7335 41.71997,1.82857 83.4864,2.57307 125.18972,4.75811 -18.15932,21.93262 -42.17582,40.91017 -62.57158,61.64655 -46.89012,44.5064 -93.87983,88.90771 -140.81948,133.36185 28.16479,1.13143 56.70891,-0.16749 84.56613,3.16059 C 155.48379,624.49399 107.05205,672.06186 62.995333,721.23179 175.40681,661.84041 287.67916,602.1399 399.85714,542.29207 c -41.51812,-1.12292 -83.32406,2.23771 -124.66667,-0.4036 85.84104,-67.65611 173.49667,-132.99477 260.32553,-199.3834 -46.4775,-0.71778 -93.196,1.01141 -139.48088,-1.90084 76.96833,-69.94378 154.63204,-139.16113 232.94218,-207.59917 -18.65555,20.87029 -45.43195,41.26517 -67.12326,61.85162 -54.14582,48.26948 -108.38645,96.43248 -162.57996,144.64839 46.51622,0.67065 93.21288,-0.905 139.58306,1.8334 -85.38082,67.35095 -172.71321,132.2079 -258.95504,198.45547 41.39069,3.00289 83.51696,-1.82469 124.91421,1.33153 C 290.46214,604.22514 174.49173,664.39106 59.172523,725.71702 Z m 2.87172,-1.92834 c 3.089132,-4.50194 -5.581284,5.32311 0,0 z"
       id="path4149"
       inkscape:connector-curvature="0" />
    <path
       style="fill:#000000"
       d=""
       id="path4147"
       inkscape:connector-curvature="0" />
    <path
       style="fill:#ffffff;fill-opacity:1;stroke-width:1.70943"
       d="m 395.25521,267.1463 c -1.9175,-13.16494 -27.24457,5.76404 -9.50664,13.80985 3.83244,-4.12548 5.8623,-9.53257 9.50664,-13.80985 z m 30.17875,1.39536 c -19.01645,-15.40604 -37.6991,26.47208 -10.57141,11.34017 4.12152,-3.16403 7.54295,-7.14564 10.57141,-11.34017 z m -45.35917,-4.3343 c -5.96937,-14.10424 -32.61885,-8.02762 -14.4348,11.24473 8.82261,12.53133 14.66908,-3.24173 14.4348,-11.24473 z m 66.80665,5.98267 c -14.14814,-13.6165 -49.4283,20.98257 -20.48152,14.2085 7.79305,-3.0169 15.18641,-7.65505 20.48152,-14.2085 z m 2.05988,-0.0849 c -17.20055,7.06947 -19.27734,32.55358 3.06191,15.3546 12.29448,-5.88942 12.84843,-16.7499 -3.06191,-15.3546 z m -50.75953,-6.57026 c 20.72547,-16.19829 -13.85281,-11.66984 -5.9035,-0.9828 l 5.90353,0.98274 z m 23.6635,3.91427 c 25.63923,-8.66679 -30.90145,-6.66679 -4.15211,-0.53935 l 4.15217,0.53924 z m 10.55543,1.14143 c 19.29185,11.82274 44.84384,-35.77547 16.37589,-9.25396 -1.20009,1.94011 -35.8458,5.26272 -16.37589,9.25396 z M 380.7986,257.14306 c 20.76468,-22.88453 -39.09272,-29.52172 -12.40067,-2.7209 3.09982,1.32362 9.77959,8.27501 12.40067,2.7209 z m 70.47615,12.51978 c 10.78337,-3.19159 63.82103,-19.03202 26.01575,-19.59931 -12.47586,-5.685 -26.39467,16.16521 -26.01575,19.59931 z m -64.2,-19.94162 c 6.49465,-13.12316 -8.36807,7.84571 0,0 z m 43.32083,-3.2556 c 28.53778,1.65133 7.58859,-36.48989 -5.50236,-19.65433 -5.2013,10.92155 -16.68379,20.26216 5.50236,19.65433 z m -9.34537,-13.91496 c 16.76901,-30.10866 -27.16054,20.8944 -2.92508,5.23341 l 2.9252,-5.23339 z m -46.13389,1.90549 c 6.94957,-9.78684 30.6555,-2.5565 21.35129,-18.94489 -7.20076,-23.80705 -46.01401,12.97303 -21.35129,18.94489 z m 88.5182,15.08007 c 11.46514,-6.53921 21.83732,-29.99353 2.78869,-20.87076 9.51691,5.10407 -8.78907,21.30573 -2.78869,20.87076 z m 5.75083,0.0214 c 14.67873,8.17122 51.23168,-16.24255 31.67034,-22.31762 -19.27372,-6.25157 -32.00179,11.93765 -31.67034,22.31762 z m -73.9182,-20.51013 c 21.24086,-19.56589 -1.66214,-10.77022 0,0 z m 31.72919,-7.41581 c 6.44041,-8.12453 -8.70838,0.64243 0,0 z m 6.93202,1.29184 c 13.51294,-0.24575 -20.23533,-5.90729 0,0 z m -28.62969,-5.75307 c 9.04118,-5.95232 25.4916,-31.43818 6.56544,-20.11574 0.0901,4.23252 -17.89405,21.12993 -6.56544,20.11574 z m -0.75749,-8.46369 c 26.51191,-22.04141 -22.3013,-35.23971 -25.47598,-6.46279 -1.03539,9.65508 23.8183,20.79221 25.47598,6.46279 z m 64.06682,18.20086 c 19.58548,10.62478 29.36034,-45.98341 12.81147,-10.34678 0.60639,6.39579 -28.19016,8.65019 -12.81147,10.34678 z m 15.25899,0.52183 c 19.48045,6.97897 38.74237,-11.82367 33.53263,-27.30986 -21.51755,-1.48568 -35.22251,11.094 -33.53263,27.30986 z m 36.71247,-28.04371 c -9.01525,12.98086 -5.70188,33.93598 9.96983,13.68764 12.00104,-10.73364 3.42317,-19.83086 -9.96983,-13.68764 z m -68.37383,14.74624 c 43.14158,-13.75185 -39.5656,-18.49956 -7.18988,-1.3405 l 1.53765,0.48656 5.65208,0.85423 z m 13.09609,-6.40298 c 6.17487,-12.69617 -5.52347,6.47648 0,0 z m -14.73203,-7.47123 c 37.09619,12.07474 -7.19055,-26.86846 -5.66718,-0.84024 l 5.667,0.84064 z M 423.9758,195.1533 c 21.77046,-17.01253 -4.82151,-24.80708 -9.38353,-2.31851 3.0918,0.76358 6.12665,2.42399 9.38353,2.31851 z m -9.89222,-2.62614 c 15.90112,-14.9354 18.31628,-35.58079 -8.88687,-24.65289 -17.82819,8.21672 -5.43733,23.79445 8.88687,24.65289 z m 76.68098,10.23445 c 12.32154,-11.61514 8.10711,-37.03616 -10.38179,-21.59208 -9.14802,6.34212 11.3635,14.06585 10.38179,21.59208 z m 6.12473,-0.30935 c 19.34715,6.20758 32.97324,-15.8612 20.31168,-26.94876 -18.42989,-5.80462 -27.35345,20.12388 -20.31168,26.94876 z m 25.88429,-4.18836 c 19.61204,-0.10121 15.22025,-34.67391 -1.92114,-22.27896 3.72402,5.5317 -3.75142,22.01365 1.92114,22.27896 z m -54.52539,-17.62173 c 11.25148,-11.24625 -19.9492,-3.04876 0,0 z m -16.45826,-7.68255 c 13.47611,-9.18217 20.18075,-44.31966 -4.54868,-22.33194 -14.32397,13.98947 -19.1654,15.75245 4.54868,22.33194 z m 17.23258,2.66167 c 22.61075,-1.26493 12.53528,-47.98974 -4.83429,-20.53324 -16.03808,12.83181 20.69395,-3.54216 3.99211,13.41115 -3.30842,4.06417 -8.65489,7.64577 0.84218,7.12209 z m -37.54906,-8.84601 c 12.53993,-7.74198 30.88986,-37.74028 2.43673,-22.11931 -19.57065,8.03167 -32.06289,21.62035 -2.43673,22.11931 z m 56.08825,10.2304 c 30.76071,8.13613 -2.89095,-59.78985 -5.97135,-14.62448 -2.0425,7.16323 16.4899,5.90924 2.7423,14.30009 l 3.22906,0.32568 z m 15.503,-0.21143 c 39.60962,9.75877 -11.61774,-55.08805 -2.73343,-11.76983 2.32845,2.91467 -5.2064,14.61466 2.73343,11.76983 z m -79.11609,-27.07074 c -17.8222,19.98915 -40.76726,45.72404 -55.73062,62.50676 18.57688,-20.83558 37.15375,-41.67117 55.73062,-62.50676 z m 98.83683,24.02534 c 13.04656,-8.9515 -17.3574,-54.79673 -7.50091,-19.82345 3.11485,4.36786 1.16033,20.45132 7.50091,19.82345 z"
       id="path4168"
       inkscape:connector-curvature="0"
       sodipodi:nodetypes="cccsccccscccsscsccccssccccssccsccsscsscccssccscsssccscscsccsssccscccsscsccccsccscsscccsssscccscssscsscssssssccscsssscsssssscccsssscssscssscssccscscscccsccscssscscsssscscsssscsccsscscssssscccsssssccssssccccsscssssscssccssscsscsscsccssssccsccscssccssssssssssscsssssscscscscssscscscsssssssccsscsccssssscccsscscssssccccscscscssscccccscsssccsssscssssssscsccscccsssscscsscsccsccsccssscccccccccccccccccccc" />
  </g>
</svg>
