<?xml version="1.0" encoding="UTF-8" standalone="no"?>
<!-- Generator: Adobe Illustrator 18.0.0, SVG Export Plug-In . SVG Version: 6.00 Build 0)  -->

<svg
   xmlns:dc="http://purl.org/dc/elements/1.1/"
   xmlns:cc="http://creativecommons.org/ns#"
   xmlns:rdf="http://www.w3.org/1999/02/22-rdf-syntax-ns#"
   xmlns:svg="http://www.w3.org/2000/svg"
   xmlns="http://www.w3.org/2000/svg"
   xmlns:sodipodi="http://sodipodi.sourceforge.net/DTD/sodipodi-0.dtd"
   xmlns:inkscape="http://www.inkscape.org/namespaces/inkscape"
   version="1.1"
   id="Capa_1"
   x="0px"
   y="0px"
   viewBox="0 0 434.26678 151.55658"
   xml:space="preserve"
   sodipodi:docname="sunglasses.svg"
   inkscape:version="0.92.5 (2060ec1f9f, 2020-04-08)"
   width="434.26678"
   height="151.55658"><metadata
   id="metadata928"><rdf:RDF><cc:Work
       rdf:about=""><dc:format>image/svg+xml</dc:format><dc:type
         rdf:resource="http://purl.org/dc/dcmitype/StillImage" /><dc:title></dc:title></cc:Work></rdf:RDF></metadata><defs
   id="defs926" /><sodipodi:namedview
   pagecolor="#ffffff"
   bordercolor="#666666"
   borderopacity="1"
   objecttolerance="10"
   gridtolerance="10"
   guidetolerance="10"
   inkscape:pageopacity="0"
   inkscape:pageshadow="2"
   inkscape:window-width="3778"
   inkscape:window-height="2096"
   id="namedview924"
   showgrid="false"
   inkscape:zoom="1.1041569"
   inkscape:cx="241.18646"
   inkscape:cy="49.960658"
   inkscape:window-x="62"
   inkscape:window-y="27"
   inkscape:window-maximized="1"
   inkscape:current-layer="Capa_1"
   fit-margin-top="0"
   fit-margin-left="0"
   fit-margin-right="0"
   fit-margin-bottom="0" />
<g
   id="g891"
   style="fill:#ffffff"
   transform="translate(1.3808484e-4,-141.35542)">
	<path
   d="m 162.389,176.486 c -21.546,-5.984 -42.798,-8.893 -64.969,-8.893 -15.244,0 -31.05,1.445 -46.979,4.296 -2.528,0.453 -4.488,2.464 -4.875,5.003 -0.293,1.924 -6.917,47.419 15.916,73.994 10.466,12.182 25.26,18.358 43.965,18.358 0.002,0 0.086,0 0.088,0 46.796,0 64.079,-39.125 70.603,-53.962 0.904,-1.926 6.86,-15.436 1.632,-26.76 -1.909,-4.128 -6.134,-9.571 -15.381,-12.036 z m -93.58,11.762 c -0.37,5.516 -0.48,10.707 -0.326,15.43 0.108,3.313 -2.49,6.085 -5.802,6.192 -0.066,0.002 -0.133,0.003 -0.199,0.003 -3.224,0 -5.888,-2.559 -5.993,-5.805 -0.166,-5.119 -0.05,-10.713 0.348,-16.624 0.222,-3.306 3.079,-5.814 6.389,-5.585 3.304,0.222 5.805,3.083 5.583,6.389 z"
   id="path885"
   style="fill:#ffffff"
   inkscape:connector-curvature="0" />
	<path
   d="m 429.608,150.648 c -58.881,-13.516 -116.073,-12.331 -185.439,3.838 l -1.437,0.335 c -8.081,1.89 -18.707,4.149 -25.599,4.149 -7.008,0 -17.518,-2.26 -25.599,-4.149 l -1.437,-0.335 C 120.73,138.317 63.54,137.133 4.659,150.648 c -3.063,0.703 -5.063,3.648 -4.59,6.753 l 4.208,27.566 c 0.273,1.788 1.338,3.358 2.899,4.273 1.56,0.914 3.451,1.075 5.143,0.438 2.39,-0.897 4.281,-0.903 5.622,-0.015 1.589,1.054 2.685,3.465 2.791,6.143 1.358,34.088 7.998,57.215 20.895,72.783 13.53,16.333 34.279,24.29 63.433,24.323 0.042,0 0.083,0 0.126,0 57.981,-10e-4 80.766,-41.6 95.846,-69.134 2.096,-3.826 4.075,-7.439 5.986,-10.662 0.074,-0.125 0.144,-0.254 0.209,-0.385 3.354,-6.729 7.162,-9.121 9.637,-9.121 0.022,0 0.046,10e-4 0.068,10e-4 0.036,0.001 0.165,0.002 0.201,0.002 0.036,0 0.165,-0.001 0.201,-0.002 0.023,0 0.046,-10e-4 0.068,-10e-4 2.475,0 6.283,2.392 9.637,9.121 0.065,0.131 0.135,0.26 0.209,0.385 1.911,3.223 3.891,6.836 5.986,10.662 15.081,27.535 37.857,69.139 95.847,69.134 0.039,0 0.087,0 0.126,0 29.152,-0.033 49.901,-7.99 63.432,-24.323 12.896,-15.568 19.536,-38.695 20.895,-72.783 0.106,-2.678 1.202,-5.089 2.791,-6.143 1.341,-0.889 3.232,-0.883 5.622,0.015 1.694,0.637 3.584,0.476 5.143,-0.438 1.562,-0.914 2.626,-2.484 2.899,-4.273 l 4.208,-27.566 c 0.475,-3.105 -1.526,-6.05 -4.589,-6.753 z m -10.544,26.369 c -3.403,-0.074 -6.619,0.821 -9.372,2.646 -4.84,3.21 -7.886,9.066 -8.148,15.665 -1.249,31.321 -7.015,52.168 -18.146,65.606 -11.267,13.601 -28.49,19.949 -54.203,19.978 -0.039,0 -0.076,0 -0.115,0 -22.49,0 -40.778,-6.873 -55.903,-21.01 -13.267,-12.4 -21.847,-28.066 -29.417,-41.889 -2.107,-3.848 -4.1,-7.485 -6.08,-10.834 -7.169,-14.223 -16.739,-15.624 -20.523,-15.566 -0.003,0 -0.005,0 -0.008,0 -3.78,-0.053 -13.377,1.316 -20.561,15.566 -1.98,3.349 -3.973,6.986 -6.08,10.834 -7.57,13.822 -16.15,29.488 -29.417,41.889 -15.15,14.161 -33.493,21.035 -56.018,21.01 C 79.359,280.883 62.135,274.534 50.869,260.934 39.738,247.496 33.973,226.65 32.723,195.328 c -0.263,-6.599 -3.309,-12.455 -8.148,-15.665 -2.753,-1.826 -5.961,-2.723 -9.372,-2.646 l -2.424,-15.879 c 55.116,-11.79 109.244,-10.198 174.595,5.034 l 1.429,0.334 c 8.655,2.023 21.409,4.409 28.327,4.409 7.301,0 19.68,-2.386 28.335,-4.409 l 1.429,-0.334 c 65.351,-15.232 119.477,-16.824 174.595,-5.034 z"
   id="path887"
   style="fill:#ffffff"
   inkscape:connector-curvature="0" />
	<path
   d="m 271.938,176.47 c -9.307,2.482 -13.532,7.924 -15.44,12.053 -5.228,11.323 0.728,24.834 1.632,26.76 6.523,14.837 23.807,53.962 70.603,53.962 h 0.082 c 18.711,0 33.505,-6.177 43.971,-18.358 22.833,-26.575 16.209,-72.07 15.916,-73.994 -0.387,-2.539 -2.347,-4.55 -4.875,-5.003 -15.93,-2.851 -31.735,-4.296 -46.979,-4.296 -22.171,-0.001 -43.423,2.907 -64.91,8.876 z m 56.795,86.772 v 0 0.002 z"
   id="path889"
   style="fill:#ffffff"
   inkscape:connector-curvature="0" />
</g>
<g
   id="g893"
   transform="translate(1.3808484e-4,-141.35542)">
</g>
<g
   id="g895"
   transform="translate(1.3808484e-4,-141.35542)">
</g>
<g
   id="g897"
   transform="translate(1.3808484e-4,-141.35542)">
</g>
<g
   id="g899"
   transform="translate(1.3808484e-4,-141.35542)">
</g>
<g
   id="g901"
   transform="translate(1.3808484e-4,-141.35542)">
</g>
<g
   id="g903"
   transform="translate(1.3808484e-4,-141.35542)">
</g>
<g
   id="g905"
   transform="translate(1.3808484e-4,-141.35542)">
</g>
<g
   id="g907"
   transform="translate(1.3808484e-4,-141.35542)">
</g>
<g
   id="g909"
   transform="translate(1.3808484e-4,-141.35542)">
</g>
<g
   id="g911"
   transform="translate(1.3808484e-4,-141.35542)">
</g>
<g
   id="g913"
   transform="translate(1.3808484e-4,-141.35542)">
</g>
<g
   id="g915"
   transform="translate(1.3808484e-4,-141.35542)">
</g>
<g
   id="g917"
   transform="translate(1.3808484e-4,-141.35542)">
</g>
<g
   id="g919"
   transform="translate(1.3808484e-4,-141.35542)">
</g>
<g
   id="g921"
   transform="translate(1.3808484e-4,-141.35542)">
</g>
</svg>