<?xml version="1.0" encoding="UTF-8" standalone="no"?>
<!-- Created with Inkscape (http://www.inkscape.org/) -->

<svg
   width="163.02148mm"
   height="151.35757mm"
   viewBox="0 0 163.02148 151.35757"
   version="1.1"
   id="svg8"
   inkscape:version="1.2.1 (0f2f062aeb, 2022-09-21, custom)"
   sodipodi:docname="timecube.svg"
   xmlns:inkscape="http://www.inkscape.org/namespaces/inkscape"
   xmlns:sodipodi="http://sodipodi.sourceforge.net/DTD/sodipodi-0.dtd"
   xmlns="http://www.w3.org/2000/svg"
   xmlns:svg="http://www.w3.org/2000/svg"
   xmlns:rdf="http://www.w3.org/1999/02/22-rdf-syntax-ns#"
   xmlns:cc="http://creativecommons.org/ns#"
   xmlns:dc="http://purl.org/dc/elements/1.1/">
  <defs
     id="defs2" />
  <sodipodi:namedview
     id="base"
     pagecolor="#333333"
     bordercolor="#666666"
     borderopacity="1.0"
     inkscape:pageopacity="0"
     inkscape:pageshadow="2"
     inkscape:zoom="1.1417156"
     inkscape:cx="441.44092"
     inkscape:cy="381.44349"
     inkscape:document-units="mm"
     inkscape:current-layer="layer1"
     showgrid="false"
     inkscape:window-width="1917"
     inkscape:window-height="1282"
     inkscape:window-x="26"
     inkscape:window-y="23"
     inkscape:window-maximized="0"
     fit-margin-top="0"
     fit-margin-left="0"
     fit-margin-right="0"
     fit-margin-bottom="0"
     inkscape:showpageshadow="2"
     inkscape:pagecheckerboard="0"
     inkscape:deskcolor="#333333" />
  <metadata
     id="metadata5">
    <rdf:RDF>
      <cc:Work
         rdf:about="">
        <dc:format>image/svg+xml</dc:format>
        <dc:type
           rdf:resource="http://purl.org/dc/dcmitype/StillImage" />
        <dc:title />
      </cc:Work>
    </rdf:RDF>
  </metadata>
  <g
     inkscape:label="Layer 1"
     inkscape:groupmode="layer"
     id="layer1"
     transform="translate(144.98807,-63.160311)">
    <path
       style="fill:#ececec;fill-opacity:1;stroke:#170d0d;stroke-width:2.311;stroke-miterlimit:4;stroke-dasharray:none;stroke-opacity:1"
       d="m -143.2594,157.841 v -54.75445 l 17.33579,-19.518365 17.33579,-19.518362 h 61.279363 61.27937 l -1.42562,1.75414 c -0.78408,0.96478 -8.0550104,8.90614 -16.1576104,17.647461 l -14.7319996,15.893312 -45.25929,0.0076 -70.611503,0.235716 30.15579,-34.805624 -29.39462,34.147539 -4.49359,1.039715 -3.12122,3.557198 63.176118,-0.51418 h 60.462205 l 0.15689,51.97239 0.15689,51.97238 L -2.5632274,190.44731 16.447623,168.29387 3.3541116,183.10227 -13.37485,202.3726 -13.740567,138.33908 V 103.06969 L 1.6052626,85.966391 16.951093,68.863085 v 52.432945 52.43294 l -17.03387037,19.39235 -17.03386963,19.39236 -63.071385,0.0409 -63.071368,0.0409 z m 62.304078,43.13665 c 0,-3.06651 -0.19796,-3.90642 -0.92075,-3.90642 -0.68103,0 -0.96977,0.85285 -1.10907,3.27579 -0.21486,3.73751 0.15895,5.15556 1.26286,4.79061 0.50715,-0.16766 0.76696,-1.57686 0.76696,-4.15998 z m -21.450288,-5.84505 c 1.09697,-1.85647 1.42218,-2.94873 1.00204,-3.36542 -0.34212,-0.33931 -0.89615,-0.44889 -1.23118,-0.24353 -1.20845,0.74073 -3.88619,5.95486 -3.53039,6.87443 0.49839,1.28813 1.67034,0.27019 3.75953,-3.26548 z m 45.082873,3.0864 c 0,-1.54799 -3.1746,-6.93131 -4.08747,-6.93131 -1.32741,0 -0.93321,1.92017 1.0311,5.02254 1.86106,2.93931 3.05637,3.68581 3.05637,1.90877 z m -61.934793,-18.34619 c 2.82583,-1.57408 3.52656,-2.47774 2.61917,-3.37768 -0.73638,-0.73034 -7.80465,3.60962 -7.2717,4.46487 0.56953,0.91396 1.41443,0.71653 4.65253,-1.08719 z m 79.591083,0.93871 c -0.4092,-1.21752 -5.93847,-4.28607 -6.99713,-3.88316 -0.80975,0.30818 -0.84101,0.53291 -0.18343,1.31874 1.82668,2.18294 7.76514,4.30377 7.18056,2.56442 z m -39.266895,-23.41523 c 0.0993,-0.64978 -0.38413,-1.68819 -1.07421,-2.30757 -1.17439,-1.0541 -1.25468,-1.82133 -1.25468,-11.99009 0,-6.83676 -0.22755,-10.86393 -0.61384,-10.86393 -0.38674,0 -0.61383,4.09921 -0.61383,11.08005 0,6.52202 -0.22534,10.84213 -0.54777,10.50169 -0.30127,-0.3181 -4.05804,-6.60541 -8.34837,-13.97181 -8.55815,-14.69416 -8.14465,-14.04613 -8.645718,-13.54917 -0.195,0.19339 3.298728,6.60855 7.763818,14.25591 6.86229,11.75303 8.10035,14.25911 8.00197,16.19755 -0.0956,1.88383 0.13474,2.38976 1.29021,2.83385 1.70963,0.65708 3.77901,-0.46222 4.04242,-2.18648 z m -43.148808,-0.20105 c 0,-0.68752 -0.89434,-0.95896 -3.619,-1.09841 -3.63911,-0.18626 -5.17335,0.40332 -4.37664,1.68183 0.68363,1.09707 7.99564,0.56353 7.99564,-0.58342 z m 88.392003,0 c 0,-0.68752 -0.89434,-0.95896 -3.61901,-1.09841 -3.6391,-0.18626 -5.17335,0.40332 -4.37664,1.68183 0.68364,1.09707 7.99565,0.56353 7.99565,-0.58342 z m -9.09849,-21.04627 c 2.57919,-1.63634 3.25186,-2.34649 2.7212,-2.87279 -0.53066,-0.5263 -1.39579,-0.32759 -3.49977,0.80388 -3.21676,1.7299 -4.20443,2.7076 -3.64389,3.60712 0.55875,0.89665 0.61608,0.87671 4.42246,-1.53821 z m -73.462093,0.72632 c 0,-0.4612 -1.5089,-1.62208 -3.35311,-2.57972 -2.54302,-1.32051 -3.52507,-1.57061 -4.06489,-1.03522 -0.53982,0.53539 0.0107,1.15583 2.2789,2.56815 3.21415,2.00136 5.1391,2.39346 5.1391,1.04679 z m 14.57547,-15.04053 c 0.0827,-0.4745 -0.69841,-2.19749 -1.73583,-3.82887 -1.43053,-2.24953 -2.05819,-2.79558 -2.59801,-2.26018 -0.53982,0.53538 -0.28484,1.51469 1.05541,4.05353 1.6718,3.16686 2.94357,3.95649 3.27843,2.03552 z m 42.941143,-1.90216 c 1.48109,-2.67113 1.5856,-5.29901 0.17638,-4.43522 -1.03224,0.63272 -3.75127,6.38276 -3.33449,7.05159 0.65553,1.05196 1.52224,0.33393 3.15811,-2.61637 z m -22.221205,-6.62123 c 0,-3.06652 -0.19796,-3.90643 -0.92075,-3.90643 -0.68103,0 -0.96977,0.85285 -1.10907,3.2758 -0.21486,3.73751 0.15895,5.15556 1.26286,4.79061 0.50715,-0.16766 0.76696,-1.57687 0.76696,-4.15998 z"
       id="path885"
       inkscape:connector-curvature="0"
       sodipodi:nodetypes="ccccccssccccccccccccccccccccccccccsssssssssssssssssssssscsssssssssscsssssssssssssssscsscccssssssscss" />
    <path
       d="m -3.4540444,111.7194 c 0.397284,1.68668 0.464684,2.28257 0.313476,2.77147 -0.142471,0.46067 -0.313365,0.18689 -0.656411,-1.05156 -0.52916,-1.91041 -0.634675,-2.94322 -0.356457,-3.48921 0.127817,-0.25082 0.364745,0.3485 0.699392,1.7693 z m -3.730137,17.72442 c 0.47,0.27909 0.679541,0.65988 0.645631,1.17326 -0.02761,0.41806 -0.129317,0.85309 -0.226013,0.96676 -0.348769,0.41001 -1.584469,-0.64662 -1.629173,-1.39307 -0.06262,-1.04565 0.314433,-1.27849 1.209555,-0.74695 z m 9.031465,-32.19268 c 0.20055,0.851416 0.233861,5.95976 0.0428,6.57736 -0.277692,0.89787 -0.443995,-0.42486 -0.434985,-3.45999 0.0086,-2.875556 0.161874,-4.09468 0.392098,-3.117258 z m -10.579902,51.985 c 0.795093,-1.04567 1.058757,-1.02263 0.985526,0.086 -0.05944,0.89984 -2.100376,3.29389 -2.099686,2.46297 7.41e-4,-0.88796 0.203072,-1.35087 1.114157,-2.54909 z M 7.7961986,94.882583 c 0.07209,0.946467 -0.687044,6.374367 -0.960715,6.868857 -0.209324,0.37822 -0.244979,0.27577 -0.209221,-0.60128 0.09933,-2.436263 1.066889,-7.61968 1.169936,-6.267577 z m -5.181063,39.440027 c 0.104955,0.29023 0.138356,1.18838 0.07423,1.99586 -0.109121,1.37417 -0.02652,1.85046 1.290898,7.44353 0.885736,3.76042 1.359871,6.12938 1.279059,6.39068 -0.0809,0.2616 -0.659489,-1.83947 -1.563888,-5.6791 -0.844961,-3.58729 -1.451791,-5.81104 -1.47514,-5.4057 -0.02183,0.37876 0.0068,6.37811 0.06365,13.3319 0.113352,13.87107 0.11589,13.23494 -0.05333,13.30055 -0.06584,0.0256 -0.166074,-5.86621 -0.222733,-13.09275 -0.08709,-11.10627 -0.152745,-13.32214 -0.424462,-14.3218 -0.264057,-0.97149 -0.281417,-1.40557 -0.09723,-2.4314 0.272526,-1.51789 0.850455,-2.30199 1.128944,-1.53179 z m -9.000677,29.29745 c 0.08908,0.37813 -0.06285,1.1324 -0.614784,3.05211 -0.737173,2.56402 -1.134518,3.27755 -1.133484,2.03542 8.74e-4,-1.06584 1.599678,-5.7184 1.748268,-5.08753 z M 12.106045,103.82965 c 0.08908,0.37816 -0.06285,1.1324 -0.614788,3.05215 -0.737171,2.56403 -1.134516,3.27752 -1.133483,2.0354 8.73e-4,-1.06586 1.59968,-5.71839 1.748271,-5.08755 z m 0.823249,17.73043 c 0.751554,-0.84457 0.984287,-0.909 0.941456,-0.26057 -0.04283,0.64843 -0.249559,1.12434 -0.836299,1.92517 -0.897062,1.2244 -1.230345,1.35471 -1.229616,0.48078 7.22e-4,-0.87112 0.01529,-0.89892 1.124459,-2.14538 z m -15.4623514,49.29195 c 0.05976,0.25368 -0.105503,1.91286 -0.367238,3.68706 -0.360915,2.44649 -0.533965,3.24832 -0.71626,3.31898 -0.182299,0.0707 -0.147505,-0.64299 0.144029,-2.95405 0.413115,-3.27492 0.765015,-4.79267 0.939481,-4.05199 z m 4.997761,-1.58648 c 0.07877,0.20503 0.138587,1.68113 0.132912,3.28012 -0.0078,2.20496 -0.06838,2.92987 -0.250682,3.00053 -0.182296,0.0707 -0.255824,-0.64046 -0.304365,-2.94345 -0.06054,-2.87271 0.103214,-4.16728 0.422137,-3.3372 z m 9.2297084,-28.00016 c 0.655901,0.46738 1.01822,1.84208 0.611503,2.32019 -0.297914,0.35022 -1.611681,-0.97321 -1.611141,-1.62303 8.5e-4,-1.02201 0.275188,-1.21333 0.999638,-0.69716 z M 7.9035566,159.9382 c 0.397283,1.68664 0.464682,2.28255 0.313477,2.77146 -0.142471,0.46067 -0.313366,0.18688 -0.656414,-1.05158 -0.529163,-1.9104 -0.634675,-2.9432 -0.356457,-3.48919 0.127817,-0.25084 0.364732,0.34857 0.699394,1.76931 z"
       style="fill:#ececec;fill-opacity:1;stroke:#170d0d;stroke-width:1.04046;stroke-miterlimit:4;stroke-dasharray:none;stroke-opacity:1"
       id="path3148-3" />
    <path
       d="m -71.053652,93.952653 c 0.59513,-0.886534 0.55797,-1.131283 -0.17291,-1.138328 -0.68861,-0.0066 -1.14613,0.237103 -1.75724,0.936222 -0.94263,1.078422 -0.83985,1.49203 0.34723,1.397281 0.54538,-0.04353 1.08159,-0.448392 1.58292,-1.195175 z m -20.55584,-1.89895 c 1.46956,-0.526011 2.01038,-0.838616 1.66641,-0.963177 -0.28012,-0.101419 -0.81905,-0.138513 -1.19767,-0.08241 -1.36574,0.202362 -5.08538,1.68367 -4.90407,1.95299 0.25403,0.377256 1.6366,0.0944 4.43533,-0.907403 z m 44.988149,1.33183 c 0.300421,-0.447527 -1.864859,-2.034799 -2.78798,-2.043702 -1.342272,-0.01294 -1.31632,0.546026 0.06784,1.462079 1.31141,0.867903 2.375223,1.095374 2.720117,0.581627 z m -59.066947,-5.907761 c 3.16293,-0.427519 4.04688,-0.681934 3.304,-0.950955 -0.60289,-0.218321 -8.5925,0.967455 -8.21956,1.219903 0.3985,0.269779 1.29119,0.22094 4.91556,-0.268948 z m 80.299136,1.047377 c -0.1775,-0.355975 -5.173074,-1.297006 -6.321773,-1.190846 -0.878624,0.08119 -0.953833,0.145867 -0.441407,0.379462 1.423444,0.648899 7.016715,1.319933 6.76318,0.811384 z m -35.161725,-7.15222 c 0.226569,-0.186885 -0.06074,-0.49181 -0.638928,-0.677597 -0.982956,-0.316191 -0.915228,-0.538783 1.058292,-3.478585 1.326863,-1.976518 1.878366,-3.142998 1.487759,-3.146762 -0.39109,-0.0038 -1.416277,1.179102 -2.7711,3.197272 -1.265785,1.885528 -2.332066,3.13228 -2.592039,3.030714 -0.242608,-0.09494 -2.821474,-1.949199 -5.730127,-4.120664 -5.80207,-4.331544 -5.50971,-4.140169 -6.11281,-4.001381 -0.23473,0.05401 2.05302,1.942705 5.08388,4.197102 4.658041,3.464723 5.423576,4.201305 4.947879,4.760753 -0.462233,0.543686 -0.327561,0.692197 0.754588,0.83185 1.60123,0.20663 3.910999,-0.09678 4.51198,-0.592702 z m -43.592401,-0.478818 c 0.13341,-0.198762 -0.71824,-0.285954 -3.44632,-0.352835 -3.64366,-0.08933 -5.30946,0.06616 -4.75198,0.443549 0.47836,0.323829 7.9757,0.240874 8.19831,-0.0907 z m 89.380676,0.861804 c 0.133435,-0.198762 -0.71825,-0.285958 -3.446316,-0.352837 -3.643671,-0.08933 -5.309499,0.06616 -4.752003,0.443548 0.478365,0.32383 7.975717,0.240874 8.19833,-0.0907 z m -5.11564,-6.173217 c 2.925622,-0.447924 3.743621,-0.646668 3.309181,-0.803997 -0.434416,-0.157333 -1.347825,-0.108316 -3.694933,0.198281 -3.588471,0.468755 -4.776945,0.741779 -4.384706,1.007296 0.390973,0.26467 0.452807,0.259466 4.770458,-0.40158 z M -94.302972,75.07644 c 0.0895,-0.133334 -1.21099,-0.483657 -2.88996,-0.778492 -2.31517,-0.406555 -3.259678,-0.488436 -3.909438,-0.338917 -0.64976,0.149519 -0.21347,0.334258 1.806008,0.764669 2.86167,0.609934 4.73206,0.742057 4.99342,0.352735 z m 17.65753,-4.206133 c 0.17575,-0.136372 -0.27974,-0.642107 -1.01209,-1.123856 -1.00994,-0.66429 -1.53866,-0.828272 -2.18843,-0.678753 -0.64976,0.149518 -0.58199,0.435123 0.28052,1.182172 1.07588,0.931847 2.20863,1.172527 2.92005,0.620437 z m 43.790596,-0.13125 c 2.016082,-0.757789 2.631772,-1.516494 1.039129,-1.280509 -1.166573,0.172869 -5.03197,1.808691 -4.740329,2.006113 0.458688,0.310514 1.474449,0.111383 3.7012,-0.725604 z m -21.184692,-2.13086 c 0.595132,-0.886537 0.557962,-1.131285 -0.172898,-1.138333 -0.688614,-0.0066 -1.14614,0.237108 -1.757235,0.936225 -0.942651,1.078427 -0.839861,1.492031 0.347219,1.397285 0.545361,-0.04353 1.081589,-0.448399 1.582914,-1.195177 z"
       style="fill:#ececec;fill-opacity:1;stroke:#170d0d;stroke-width:1.25356;stroke-miterlimit:4;stroke-dasharray:none;stroke-opacity:1"
       id="path3148" />
  </g>
</svg>
