<?xml version="1.0" encoding="UTF-8" standalone="no"?>
<!-- Created with Inkscape (http://www.inkscape.org/) -->

<svg
   xmlns:dc="http://purl.org/dc/elements/1.1/"
   xmlns:cc="http://creativecommons.org/ns#"
   xmlns:rdf="http://www.w3.org/1999/02/22-rdf-syntax-ns#"
   xmlns:svg="http://www.w3.org/2000/svg"
   xmlns="http://www.w3.org/2000/svg"
   xmlns:sodipodi="http://sodipodi.sourceforge.net/DTD/sodipodi-0.dtd"
   xmlns:inkscape="http://www.inkscape.org/namespaces/inkscape"
   width="250.24921mm"
   height="518.94476mm"
   viewBox="0 0 250.24921 518.94476"
   version="1.1"
   id="svg864"
   inkscape:version="0.92.5 (2060ec1f9f, 2020-04-08)"
   sodipodi:docname="xmark.svg">
  <defs
     id="defs858" />
  <sodipodi:namedview
     id="base"
     pagecolor="#ffffff"
     bordercolor="#666666"
     borderopacity="1.0"
     inkscape:pageopacity="0.0"
     inkscape:pageshadow="2"
     inkscape:zoom="0.24748737"
     inkscape:cx="1005.5873"
     inkscape:cy="1330.8732"
     inkscape:document-units="mm"
     inkscape:current-layer="layer1"
     showgrid="false"
     fit-margin-top="0"
     fit-margin-left="0"
     fit-margin-right="0"
     fit-margin-bottom="0"
     inkscape:window-width="1462"
     inkscape:window-height="1196"
     inkscape:window-x="687"
     inkscape:window-y="483"
     inkscape:window-maximized="0" />
  <metadata
     id="metadata861">
    <rdf:RDF>
      <cc:Work
         rdf:about="">
        <dc:format>image/svg+xml</dc:format>
        <dc:type
           rdf:resource="http://purl.org/dc/dcmitype/StillImage" />
        <dc:title />
      </cc:Work>
    </rdf:RDF>
  </metadata>
  <g
     inkscape:label="Layer 1"
     inkscape:groupmode="layer"
     id="layer1"
     transform="translate(312.26054,142.49361)">
    <path
       style="fill:#282c34;fill-opacity:1;stroke-width:0.26458329"
       d="m -302.98576,-125.55853 c 0.0614,-0.22146 0.28649,-0.62402 0.50021,-0.89446 0.28656,-0.36271 0.38049,-1.28807 0.35805,-3.52714 l -0.0305,-3.03544 2.55071,-0.12327 c 2.00403,-0.0969 2.68586,-0.22924 3.18175,-0.61732 0.53753,-0.42088 1.25767,-0.52404 4.85938,-0.69856 6.04372,-0.29222 6.88352,0.0509 6.5987,2.69622 -0.16628,1.54413 0.28789,3.52223 1.07009,4.66118 0.33084,0.48145 1.28683,1.28403 2.12459,1.78337 1.28794,0.76758 1.62983,1.14043 2.21401,2.4151 0.37997,0.82907 1.26982,2.33567 1.97758,3.34804 2.10255,3.0079 3.25505,5.3578 3.65695,7.45661 0.57934,3.02399 1.3777,3.75388 3.68223,3.3652 l 1.36483,-0.23012 0.68975,1.42078 c 0.3794,0.78142 1.81013,3.03178 3.17925,5.00083 2.25858,3.248057 2.76527,4.095164 3.29648,5.510532 0.0941,0.249367 0.7522,0.695657 1.46344,0.991415 1.27886,0.531747 1.29485,0.553082 1.43992,1.917485 0.1688,1.586736 0.60034,2.097221 3.3734,3.990905 1.93814,1.323369 3.42835,2.923336 5.06408,5.436881 1.26799,1.948504 1.89638,2.536109 2.9575,2.765667 0.42682,0.09228 0.95142,0.489857 1.21317,0.919351 0.59686,0.979026 1.91613,1.555978 3.84192,1.680092 l 1.5404,0.0992 0.10063,2.080117 0.10053,2.080023 1.18922,-0.05753 1.18935,-0.05749 0.10852,2.246383 0.10862,2.24626 1.32141,-0.06393 1.32143,-0.06387 0.10855,2.246377 c 0.088,1.820581 0.18372,2.242667 0.50529,2.227174 0.3257,-0.01618 0.41906,0.450687 0.52446,2.62342 l 0.12773,2.642752 1.32142,-0.0639 1.32131,-0.06385 0.10229,2.114139 0.10223,2.114244 1.18919,-0.05747 1.18925,-0.05752 0.115,2.378545 0.11505,2.378391 1.05703,-0.05105 1.05716,-0.05118 0.10863,2.246361 0.10856,2.246344 1.32135,-0.0639 1.32142,-0.0639 0.1022,2.114219 0.1022,2.114167 1.45349,-0.07027 1.45358,-0.07029 0.1022,2.114168 0.10223,2.114317 1.32136,-0.06399 1.32141,-0.06392 0.10853,2.246382 0.10867,2.246354 0.92495,-0.04475 c 0.81049,-0.03917 0.92893,0.0371 0.95696,0.615992 0.029,0.600398 -0.0705,0.666047 -1.09111,0.719056 -1.73124,0.08971 -1.92251,0.343596 -1.20472,1.597048 0.76023,1.32758 0.76436,1.49864 0.0415,1.737553 -0.50991,0.168202 -0.36312,0.301209 1.12086,1.013997 2.42404,1.164252 2.49809,1.242368 2.56901,2.709676 l 0.0623,1.28899 0.92494,-0.04475 0.92508,-0.04467 0.11496,2.378412 0.11498,2.378549 0.925,-0.04477 0.92495,-0.04467 0.11497,2.378386 0.11507,2.378502 1.18922,-0.05747 1.18923,-0.05747 0.11419,2.360835 0.11409,2.360957 0.73083,0.04846 c 0.71373,0.04737 0.73889,0.101982 1.08092,2.349392 l 0.35015,2.3008612 0.76615,-0.037081 c 0.62447,-0.030175 0.84518,0.129039 1.19341,0.8609106 0.23505,0.4939289 0.45584,1.4885044 0.49055,2.2103325 0.0598,1.2351437 0.10652,1.3150824 0.79431,1.360755 0.72412,0.048107 0.73243,0.068381 0.91308,2.22506734 l 0.18207,2.17656506 0.91433,-0.044297 0.91422,-0.044169 0.1214,2.5105574 0.12145,2.510653 1.05702,-0.051147 1.05714,-0.051072 0.11496,2.3783899 0.11503,2.37854 1.18919,-0.05746 1.18931,-0.0575 0.10865,2.246222 0.10856,2.246378 0.79287,-0.03836 0.7928,-0.03825 0.11496,2.37842 0.11511,2.37851 0.76189,-0.03682 c 0.92991,-0.04497 1.09999,0.375609 1.2345,3.052767 l 0.0966,1.915738 0.79278,-0.03833 0.79292,-0.03826 0.11494,2.378414 c 0.11418,2.360835 0.12005,2.378284 0.77569,2.346564 0.65837,-0.03181 0.66111,-0.02293 0.78212,2.478644 l 0.12132,2.510605 1.04682,-0.05057 1.04682,-0.0506 0.18822,2.308713 0.1882,2.308615 1.25921,0.01984 1.25923,0.01978 0.47849,9.895838 c 0.46993,9.719645 0.48744,9.895416 1.00704,9.870272 0.48935,-0.02362 0.53702,0.150667 0.64348,2.352904 l 0.1151,2.378465 0.92493,-0.04475 0.92497,-0.04467 0.12132,2.510626 0.12144,2.510582 0.92496,-0.04467 0.92494,-0.04475 0.0703,1.453465 c 0.0476,0.984521 -0.0363,1.459956 -0.25989,1.473534 -0.22815,0.01375 -0.20879,0.08866 0.0631,0.242811 0.29528,0.167393 0.45951,1.014237 0.66127,3.407579 0.26463,3.145302 0.27571,3.184331 0.89612,3.154295 0.61723,-0.02976 0.63016,0.01317 0.74945,2.480243 l 0.12142,2.510686 1.05705,-0.05116 1.05712,-0.05107 0.10865,2.246357 0.10866,2.246333 0.87665,-0.04245 c 0.82769,-0.04005 0.90536,0.03523 1.38955,1.346833 0.28185,0.764076 0.53105,1.765177 0.55386,2.224706 0.0225,0.459543 0.16197,0.829791 0.31117,0.822537 0.14897,-0.0072 0.41288,0.307827 0.58656,0.700124 0.54765,1.237092 1.7708,5.591369 2.18261,7.769494 0.62548,3.31188 1.9344,7.8609 3.19514,11.1089 0.63843,1.64455 1.25088,3.31661 1.36101,3.7156 0.10975,0.39917 0.61513,1.14943 1.12215,1.66764 1.63232,1.66816 1.63811,2.45945 0.0219,2.97957 -0.59288,0.19098 -1.00881,0.48807 -0.99792,0.71338 0.0143,0.30138 0.41813,0.36686 1.8363,0.29834 1.16107,-0.0562 1.92558,0.0302 2.1167,0.23911 0.53715,0.58706 4.82002,10.62864 5.44781,12.77207 0.45049,1.53857 0.66112,3.04688 0.78933,5.72323 0.14961,3.05296 0.24086,3.6306 0.57394,3.61451 0.21809,-0.0101 0.40771,0.21456 0.42148,0.50023 0.0572,1.18119 2.63912,3.0602 4.10759,2.98927 0.2944,-0.0144 1.02174,0.15754 1.61636,0.38167 l 1.08107,0.4075 0.11201,2.31619 0.11199,2.3161 0.79275,-0.0383 0.79288,-0.0383 0.11501,2.37842 c 0.11416,2.36083 0.12002,2.37817 0.77567,2.34657 0.65838,-0.0319 0.66109,-0.0229 0.7821,2.47862 0.12086,2.50183 0.12337,2.51061 0.78205,2.47874 0.65581,-0.0317 0.66159,-0.0143 0.77565,2.3465 0.11419,2.36084 0.12002,2.37817 0.77569,2.34658 l 0.66071,-0.032 0.12776,2.64274 0.12776,2.64275 0.79286,-0.0384 0.79278,-0.0384 0.11505,2.37841 0.11503,2.37852 0.67952,-0.0329 c 1.12868,-0.0546 1.46168,0.49012 1.56154,2.55452 0.0878,1.81716 0.10859,1.86791 0.75093,1.83689 l 0.6607,-0.032 0.12778,2.64274 0.12773,2.64275 0.7929,-0.0383 0.7928,-0.0383 0.11505,2.37841 0.11499,2.37853 0.79934,-0.0387 c 1.00693,-0.0487 1.34914,0.64484 1.46114,2.96199 0.0699,1.44742 0.1519,1.68471 0.61596,1.78243 0.29432,0.062 0.54698,0.33185 0.56133,0.59973 0.0143,0.26788 0.35393,1.1105 0.75439,1.87246 0.40054,0.76191 0.82141,1.87406 0.93523,2.47127 0.27617,1.44641 0.76454,2.78079 1.01453,2.76859 0.25448,-0.0126 0.8784,1.73779 1.24137,3.48254 0.32488,1.57011 0.11339,2.42846 -0.67502,2.72131 -0.44685,0.16241 -0.48778,0.25809 -0.19326,0.42527 0.20702,0.11756 0.67987,0.20091 1.05059,0.18526 0.97872,-0.0413 1.29199,0.37301 1.18966,1.57406 -0.0812,0.95291 0.006,1.13269 0.91436,1.8875 0.55228,0.4589 1.01573,1.05603 1.02979,1.32713 0.0139,0.27111 0.27923,0.83814 0.58896,1.26023 0.38173,0.5199 0.58555,1.21508 0.63228,2.15483 l 0.0691,1.38732 0.92497,-0.0447 0.92496,-0.0448 0.11497,2.37853 0.11499,2.37841 0.79292,-0.0383 0.79275,-0.0383 0.12141,2.51058 0.1214,2.51056 0.8941,-0.0432 c 1.06953,-0.0516 1.22785,0.28769 1.36024,2.91429 l 0.0902,1.78371 1.05709,-0.0512 1.05707,-0.0511 0.11509,2.37849 0.11498,2.37842 1.05706,-0.0511 1.0571,-0.0512 0.11499,2.37854 0.11498,2.37842 1.05712,-0.0511 1.05717,-0.0511 0.10854,2.24626 c 0.10743,2.22 0.11664,2.246 0.76922,2.21444 0.65838,-0.0319 0.66119,-0.023 0.78214,2.47871 l 0.1214,2.51058 1.05715,-0.0511 1.057055,-0.0512 0.114978,2.37852 0.115065,2.3784 0.924957,-0.0446 0.924964,-0.0448 0.108925,2.25295 0.10892,2.25294 0.800461,0.12017 0.800482,0.12026 0.113466,2.34546 0.113308,2.3454 0.924967,-0.0447 0.924936,-0.0448 0.115127,2.37849 0.114975,2.37842 1.1892,-0.0575 1.189218,-0.0575 0.108667,2.24634 0.108639,2.24635 1.453465,-0.0703 1.453464,-0.0703 0.108658,2.24634 0.108646,2.24624 1.849911,-0.0894 1.849889,-0.0894 0.08944,1.84998 0.08942,1.84987 1.017777,-0.0492 1.017787,-0.0492 0.356544,3.63556 c 0.403614,4.11444 0.2479,8.10786 -0.37358,9.58522 -0.954367,2.26856 0.877995,13.92103 3.033674,19.29303 0.552578,1.37691 0.888612,2.61382 0.841232,3.09736 -0.06122,0.6268 0.06247,0.88802 0.559088,1.18012 0.533284,0.31363 0.64858,0.6003 0.704045,1.75028 0.103775,2.14547 0.868624,3.98639 2.119693,5.09903 l 1.087449,0.9675 0.157384,3.25512 c 0.180742,3.73696 -0.01013,4.30643 -1.569113,4.68321 l -0.974389,0.23549 1.305603,0.27015 c 0.718069,0.14858 1.425751,0.37929 1.572742,0.5127 0.527691,0.47899 0.113968,1.24268 -0.999416,1.84489 l -1.132383,0.61243 1.64594,0.10606 c 1.109822,0.0715 1.79212,0.26091 2.094635,0.5814 0.246645,0.26144 1.089451,2.09141 1.872806,4.06661 0.783286,1.97522 1.916218,4.68588 2.51754,6.02365 0.704067,1.56605 1.178371,3.0729 1.332054,4.23066 0.224286,1.68992 0.400641,2.08187 1.647448,3.66096 0.821086,1.04 1.410473,5.79935 1.275111,10.29641 -0.125921,4.18169 -0.552587,6.41223 -1.31394,6.86827 -0.759422,0.45493 -7.390688,1.09796 -10.54169,1.02221 -1.531544,-0.0368 -2.804289,-0.0769 -2.828237,-0.0891 -0.024,-0.0122 -0.31767,-0.51551 -0.652519,-1.11847 -0.334832,-0.60302 -1.486262,-2.00755 -2.558687,-3.12127 -3.00424,-3.11948 -4.139654,-5.4967 -5.177142,-10.83917 -0.140277,-0.72433 -0.560858,-1.36727 -1.470578,-2.25019 -0.819383,-0.79527 -1.29545,-1.48985 -1.334694,-1.94755 -0.05065,-0.58671 -0.217425,-0.73547 -0.95315,-0.84909 -0.490648,-0.0758 -1.021889,-0.25554 -1.180569,-0.39956 -0.158643,-0.14403 -0.428766,-1.26271 -0.600421,-2.48589 -0.307337,-2.19379 -0.723106,-3.32368 -1.214773,-3.29986 -0.138232,0.007 -0.432457,-0.36652 -0.653805,-0.82932 -0.221302,-0.46277 -1.131492,-1.64058 -2.022639,-2.61737 -0.891114,-0.97669 -1.989207,-2.48754 -2.440112,-3.35732 -0.760589,-1.46721 -1.343942,-2.05893 -3.159368,-3.20525 -0.38511,-0.24315 -0.71156,-0.67882 -0.72561,-0.96815 -0.0138,-0.28939 -0.58571,-1.02032 -1.27059,-1.62437 -0.71607,-0.63171 -1.25681,-1.34026 -1.27269,-1.66777 -0.0496,-1.02681 -0.53985,-1.4917 -1.70813,-1.62117 -2.31036,-0.25577 -7.00176,-3.20598 -7.06148,-4.44068 -0.0105,-0.22641 -0.39466,-0.7675 -0.85279,-1.20271 -0.50503,-0.47973 -0.84652,-1.07248 -0.86751,-1.50548 -0.0639,-1.32339 -0.64518,-2.34545 -1.40409,-2.46871 -1.4789,-0.24032 -1.92256,-0.56686 -2.74881,-2.02292 -0.4656,-0.82052 -1.10828,-1.70625 -1.42825,-1.96835 -0.32,-0.26206 -0.58714,-0.58543 -0.59359,-0.71864 -0.006,-0.13334 -0.19873,-0.41196 -0.42729,-0.61948 -0.30359,-0.27563 -0.4446,-0.97704 -0.52353,-2.60459 l -0.10767,-2.22749 -1.05717,0.0511 -1.05702,0.0511 -0.10865,-2.24634 -0.10863,-2.24635 -0.79279,0.0383 -0.79286,0.0383 -0.10863,-2.24631 c -0.10009,-2.07012 -0.15004,-2.24432 -0.63707,-2.2208 -0.48916,0.0237 -0.53711,-0.15064 -0.64277,-2.33511 -0.10293,-2.12854 -0.16683,-2.3746 -0.65078,-2.50284 -0.48394,-0.12825 -0.54786,-0.37431 -0.65078,-2.50293 -0.11329,-2.34181 -0.11919,-2.36041 -0.77484,-2.32869 -0.65839,0.0319 -0.66118,0.023 -0.78211,-2.47862 -0.0994,-2.05543 -0.19328,-2.50712 -0.51767,-2.49148 -0.32457,0.0158 -0.41847,-0.43591 -0.51766,-2.49149 l -0.12132,-2.51059 -0.79287,0.0384 -0.79278,0.0384 -0.24282,-5.02125 -0.24278,-5.02126 -1.05712,0.0511 -1.05712,0.0512 -0.10856,-2.24636 -0.10865,-2.24626 -1.32139,0.0639 -1.32129,0.0639 -0.10864,-2.24635 -0.10864,-2.24635 -1.18925,0.0575 -1.1892,0.0575 -0.11498,-2.37842 -0.11506,-2.3785 -1.32142,0.0639 c -1.23323,0.0596 -1.32343,0.0199 -1.35332,-0.59682 -0.0238,-0.48993 0.10811,-0.66745 0.51011,-0.68689 0.36974,-0.0178 0.65093,-0.32583 0.88374,-0.96981 0.18809,-0.51902 0.57092,-1.10255 0.85094,-1.29685 0.28008,-0.19437 0.50565,-0.42663 0.50132,-0.51634 -0.005,-0.0898 -0.74666,-0.2043 -1.6496,-0.25477 -2.92556,-0.16357 -3.69893,-1.23092 -2.07743,-2.86714 0.73109,-0.7376 0.87511,-1.07688 0.83231,-1.9606 -0.0527,-1.09015 -0.68624,-1.98849 -1.24161,-1.76062 -0.17076,0.0727 -0.2429,0.57619 -0.17071,1.21206 0.0926,0.81655 0.026,1.09603 -0.26471,1.11003 -1.59739,0.0772 -7.23678,-8.7186 -7.82371,-12.20283 -0.16237,-0.96139 -0.43189,-1.50381 -1.00918,-2.02787 -1.12044,-1.01702 -1.34871,-1.49372 -1.41983,-2.96434 -0.0802,-1.65884 0.29221,-2.91855 0.93293,-3.15656 0.87041,-0.32695 0.27643,-0.59891 -1.38101,-0.63847 -0.87957,-0.0211 -1.74687,-0.17219 -1.92721,-0.33584 -0.52998,-0.48124 -0.43208,-2.12856 0.16326,-2.73935 0.78455,-0.80513 0.57483,-3.17348 -0.27738,-3.13227 -0.69138,0.0334 -2.21834,-1.47054 -3.12776,-3.08047 -0.50473,-0.89345 -1.41419,-3.23206 -2.02101,-5.19684 -1.74542,-5.65056 -3.88466,-10.48344 -5.01725,-11.33452 -0.23423,-0.176 -0.65853,-0.22878 -0.95448,-0.1188 -0.4942,0.1796 -0.53819,0.089 -0.60302,-1.25139 -0.0447,-0.92452 -0.19163,-1.48336 -0.40529,-1.54344 -0.22647,-0.0635 -0.40401,-0.88152 -0.54687,-2.51189 -0.1606,-1.85329 -0.29595,-2.41384 -0.58004,-2.40007 -0.20348,0.0102 -0.37868,-0.16049 -0.38925,-0.37861 -0.0117,-0.24661 -0.26876,-0.38423 -0.6799,-0.36444 -0.62783,0.0304 -0.66449,-0.0436 -0.73703,-1.48743 -0.0434,-0.8356 -0.17162,-1.96192 -0.28814,-2.50265 -0.18582,-0.87014 -0.29902,-0.97881 -0.96994,-0.94636 l -0.75826,0.0367 -0.1214,-2.51057 -0.12137,-2.51071 -0.92495,0.0448 -0.92494,0.0447 -0.10864,-2.24633 c -0.0639,-1.32143 -0.21746,-2.24106 -0.3729,-2.23355 -0.16579,0.008 -0.34432,-1.66113 -0.48153,-4.47989 l -0.2172,-4.4927 -0.79278,0.0383 -0.79286,0.0384 -0.12143,-2.51068 c -0.0994,-2.05541 -0.19331,-2.50711 -0.51764,-2.49137 -0.32454,0.0158 -0.41839,-0.43603 -0.51768,-2.49157 l -0.12133,-2.51058 -1.18919,0.0575 -1.18934,0.0575 -0.10854,-2.24625 -0.10864,-2.24637 -1.05712,0.0512 -1.05703,0.0511 -0.1151,-2.37851 -0.11498,-2.37842 -1.45346,0.0703 -1.4535,0.0702 -0.10145,-2.09821 -0.10146,-2.0983 -0.96774,-0.0353 -0.96783,-0.0354 -1.49143,-5.09329 c -0.82022,-2.80129 -2.14589,-7.08811 -2.94561,-9.52617 -0.79981,-2.43805 -1.56136,-5.1196 -1.69226,-5.95905 -0.21994,-1.40808 -0.19469,-1.53967 0.32253,-1.70203 0.69622,-0.21892 0.6943,-0.43584 -0.01,-1.01365 -0.40073,-0.32879 -0.568,-0.78842 -0.61108,-1.67855 -0.0557,-1.15465 -0.10965,-1.23797 -0.92986,-1.43713 -0.4787,-0.11619 -0.91749,-0.41032 -0.97496,-0.65353 -0.15664,-0.66212 0.81837,-1.579 1.72529,-1.62285 0.96598,-0.0467 1.02484,-0.4586 0.0923,-0.64531 -0.37282,-0.0747 -0.83403,-0.43875 -1.0249,-0.80911 -0.31753,-0.61622 -0.27424,-0.74041 0.50261,-1.45557 l 0.8496,-0.78196 -1.03294,-0.11291 c -3.17533,-0.34705 -3.45408,-0.6613 -2.49346,-2.81185 0.65904,-1.47568 0.66988,-1.5853 0.25763,-2.61411 -0.3131,-0.78096 -0.59647,-1.08934 -1.03921,-1.13039 -0.53352,-0.0496 -0.58359,0.0262 -0.40507,0.61563 0.27148,0.89771 -0.20751,0.90092 -1.75422,0.0122 -1.68751,-0.96959 -2.2008,-1.56894 -2.69893,-3.15106 -0.7118,-2.26105 -1.81619,-9.16462 -2.38683,-14.920716 -0.77264,-7.792183 -1.83343,-12.831156 -3.00247,-14.260205 -1.11938,-1.368791 -2.46089,-4.010911 -2.65963,-5.238435 -0.17498,-1.077916 -0.27953,-1.208828 -1.23583,-1.538798 -1.28724,-0.444197 -3.16004,-2.326805 -3.57315,-3.591761 -0.16892,-0.517813 -0.56578,-1.319222 -0.881,-1.781028 -0.31548,-0.461717 -0.58791,-1.134042 -0.60529,-1.493911 -0.0251,-0.510277 -0.16797,-0.647705 -0.65204,-0.624238 -0.41313,0.02003 -1.14433,-0.468599 -2.18838,-1.462292 -1.73019,-1.646826 -2.14304,-2.369067 -2.21595,-3.876389 -0.0581,-1.202649 -0.29859,-1.321095 -2.46449,-1.216404 l -1.56398,0.07555 -0.0959,-1.982102 -0.0959,-1.982025 -1.05705,0.0511 -1.05714,0.05112 -0.10854,-2.24638 -0.10861,-2.246255 -1.18925,0.05748 c -1.01309,0.04901 -1.19305,-0.02082 -1.21486,-0.471043 -0.014,-0.290709 -0.14439,-0.522776 -0.28986,-0.515823 -0.14908,0.0072 -0.30038,-0.73595 -0.34764,-1.704912 -0.08,-1.656123 -0.10676,-1.716617 -0.74372,-1.685857 -0.55785,0.027 -0.66666,-0.09133 -0.699,-0.760821 -0.0259,-0.528479 -0.16807,-0.787016 -0.4348,-0.773625 -0.30822,0.01521 -0.41354,-0.333228 -0.47311,-1.566555 -0.0426,-0.880896 -0.19408,-1.579978 -0.33611,-1.57384 -0.14531,0.0072 -0.28158,-0.344009 -0.3026,-0.780084 -0.034,-0.704708 -0.12647,-0.788506 -0.83111,-0.754524 l -0.79287,0.03841 -0.12132,-2.510608 -0.12142,-2.510708 -0.92497,0.04476 -0.92494,0.0448 -0.12142,-2.510657 -0.12144,-2.510583 -0.91461,0.04419 -0.91475,0.04425 -0.18822,-2.308733 -0.18803,-2.308683 -0.99506,-0.03412 -0.99497,-0.03407 -0.1079,-2.230331 -0.10777,-2.230367 -0.79288,0.03825 -0.79279,0.03836 -0.12141,-2.510589 -0.12134,-2.510592 -1.1893,0.05751 -1.18921,0.05746 -0.10867,-2.246351 c -0.10728,-2.219887 -0.11651,-2.245923 -0.76925,-2.214415 -0.62465,0.03022 -0.66454,-0.0473 -0.73091,-1.421567 -0.0618,-1.277268 -0.13437,-1.450391 -0.59894,-1.427907 -0.49138,0.02375 -0.537,-0.150647 -0.64992,-2.4850461 l -0.12133,-2.5106059 -0.79291,0.038287 -0.79278,0.03836 -0.11495,-2.378445 c -0.0937,-1.9380046 -0.18847,-2.3749209 -0.51415,-2.3586944 -0.31091,0.015066 -0.41198,-0.33718281 -0.46855,-1.63296497 l -0.0718,-1.65209103 0.82673,0.8250729 c 0.55544,0.55423945 0.84169,1.10573672 0.87225,1.67962072 0.07,1.32333048 0.46478,1.68506948 0.8046,0.73765458 0.15627,-0.43555173 0.56695,-0.93767527 0.91277,-1.11588133 0.89333,-0.46046539 0.75296,-1.20829287 -0.53078,-2.83011817 -0.65203,-0.8233483 -1.20103,-1.8488224 -1.33722,-2.4976276 -0.12921,-0.6050285 -0.52839,-1.5036341 -0.89184,-1.9959004 -0.40313,-0.5460682 -0.76282,-1.5101988 -0.92198,-2.471934 -0.14329,-0.8672713 -0.57722,-2.2431753 -0.9628,-3.0579743 -0.87463,-1.846419 -0.87789,-1.954071 -0.0783,-2.64806 l 0.65243,-0.566238 -0.62704,-0.279158 c -0.50924,-0.226623 -0.62015,-0.456652 -0.59023,-1.223995 0.0319,-0.819711 -0.0637,-0.981782 -0.72146,-1.223994 -0.41708,-0.153539 -1.09911,-0.549548 -1.51571,-0.88004 -0.68177,-0.540786 -0.76591,-0.773853 -0.84075,-2.331422 -0.0752,-1.554263 -0.13751,-1.727905 -0.61208,-1.704956 -0.49141,0.02376 -0.53703,-0.150672 -0.64995,-2.48507 l -0.12132,-2.510575 -1.18931,0.05749 -1.18922,0.05748 -0.11502,-2.378491 -0.11494,-2.378445 -1.32141,0.0639 -1.32138,0.06391 -0.10856,-2.246375 -0.10865,-2.246388 -1.54526,0.07472 -1.54527,0.07483 -0.31507,-2.96487 c -0.17328,-1.630641 -0.62754,-9.416362 -1.0095,-17.301609 l -0.69317,-14.336842 -0.79289,0.03833 -0.79278,0.03825 -0.1214,-2.510549 -0.12141,-2.510611 -0.79277,0.03838 -0.79292,0.03825 -0.12132,-2.510593 -0.1214,-2.510562 -1.58564,0.07672 -1.58568,0.07657 -0.0959,-1.982015 -0.0957,-1.982057 -2.11431,0.102172 -2.11415,0.102239 -0.0767,-1.58563 -0.0766,-1.585631 -2.24626,0.1086 -2.24648,0.108618 -0.0511,-1.057113 -0.0511,-1.057098 -2.10908,0.101997 c -1.96987,0.09521 -2.12028,0.06319 -2.27721,-0.485956 -0.0927,-0.32329 -0.4554,-1.706312 -0.80627,-3.073411 -0.35126,-1.36706 -0.8681,-3.353774 -1.14895,-4.414733 -0.28078,-1.061009 -0.50911,-2.459547 -0.50668,-3.107917 0.003,-1.04479 -0.0955,-1.2493 -0.87123,-1.79798 -0.75071,-0.53127 -0.88318,-0.78667 -0.93213,-1.79777 -0.0313,-0.64826 -0.25794,-1.60048 -0.50309,-2.1163 -0.24534,-0.51573 -0.39092,-0.99854 -0.32319,-1.0729 0.0679,-0.0747 -0.38454,-0.68474 -1.00445,-1.35654 -0.61995,-0.67165 -1.25819,-1.60662 -1.4183,-2.07756 -0.42054,-1.23736 -0.72749,-9.11909 -0.39996,-10.25821 0.20397,-0.70844 0.47948,-1.01275 1.1174,-1.23458 1.15127,-0.40029 1.04905,-0.72443 -0.20919,-0.6635 -0.56965,0.0276 -1.23061,-0.0141 -1.46884,-0.0925 -0.55215,-0.18188 -0.94997,-0.86674 -0.80562,-1.38685 z m 118.71804,84.588116 c 0.26423,-0.01297 0.40921,0.24509 0.43479,0.773609 0.0259,0.528495 -0.0939,0.799193 -0.35811,0.811987 -0.26423,0.01297 -0.40922,-0.245078 -0.43478,-0.7736 -0.0259,-0.528469 0.0938,-0.799274 0.35811,-0.812 z m 2.1599,5.264665 c 0.0798,0.253784 0.0926,0.610766 0.0284,0.793328 -0.0638,0.182345 -0.12888,-0.02555 -0.14459,-0.461635 -0.0165,-0.436259 0.0364,-0.585541 0.11591,-0.331723 z"
       id="path881-5"
       inkscape:connector-curvature="0" />
    <path
       style="fill:#282c34;fill-opacity:1;stroke-width:0.26458329"
       d="m -71.286214,-133.51103 c -0.0614,-0.22146 -0.28649,-0.62402 -0.50021,-0.89446 -0.28656,-0.36271 -0.38049,-1.28807 -0.35805,-3.52714 l 0.0305,-3.03544 -2.550704,-0.12327 c -2.004026,-0.0969 -2.685856,-0.22924 -3.181744,-0.61732 -0.53753,-0.42088 -1.257668,-0.52404 -4.859372,-0.69856 -6.043708,-0.29222 -6.883506,0.0509 -6.598688,2.69622 0.16628,1.54413 -0.287888,3.52223 -1.070088,4.66118 -0.330838,0.48145 -1.286826,1.28403 -2.124586,1.78337 -1.287936,0.76758 -1.629826,1.14043 -2.214004,2.4151 -0.37997,0.82907 -1.269818,2.33567 -1.977578,3.34804 -2.102536,3.0079 -3.255044,5.3578 -3.656942,7.45661 -0.57934,3.02399 -1.3777,3.75388 -3.68223,3.36521 l -1.36482,-0.23013 -0.68976,1.42078 c -0.3794,0.78142 -1.81013,3.03179 -3.17925,5.00084 -2.25858,3.24805 -2.76527,4.09516 -3.29648,5.51053 -0.0941,0.24936 -0.75219,0.69565 -1.46344,0.99141 -1.27886,0.53175 -1.29485,0.55308 -1.43992,1.91749 -0.1688,1.58673 -0.60033,2.097218 -3.3734,3.990896 -1.93814,1.323366 -3.42835,2.923334 -5.06408,5.43687 -1.26798,1.948506 -1.89638,2.536104 -2.9575,2.765664 -0.42682,0.0923 -0.95142,0.48986 -1.21317,0.919348 -0.59686,0.979028 -1.91613,1.555978 -3.84192,1.680088 l -1.5404,0.0992 -0.10063,2.080116 -0.10053,2.080016 -1.18922,-0.0575 -1.18935,-0.0575 -0.10852,2.246386 -0.10862,2.246256 -1.32141,-0.0639 -1.32143,-0.0639 -0.10855,2.246366 c -0.088,1.820576 -0.18372,2.242664 -0.50529,2.227164 -0.3257,-0.0162 -0.41906,0.45069 -0.52446,2.623426 l -0.12773,2.642746 -1.32142,-0.0639 -1.32131,-0.0639 -0.10229,2.114126 -0.10223,2.114246 -1.18919,-0.0575 -1.18925,-0.0575 -0.115,2.378536 -0.11505,2.378394 -1.05703,-0.051 -1.05716,-0.0512 -0.10863,2.246356 -0.10856,2.246336 -1.32135,-0.0639 -1.32142,-0.0639 -0.1022,2.114216 -0.1022,2.114166 -1.45349,-0.0703 -1.45358,-0.0703 -0.1022,2.114156 -0.10223,2.114316 -1.32136,-0.064 -1.32141,-0.0639 -0.10853,2.246376 -0.10867,2.246356 -0.92495,-0.0447 c -0.81049,-0.0392 -0.92893,0.0371 -0.95696,0.615988 -0.029,0.600398 0.0705,0.666038 1.09111,0.719048 1.73124,0.0897 1.92251,0.3436 1.20472,1.597048 -0.76023,1.327578 -0.76436,1.498636 -0.0415,1.737556 0.50991,0.1682 0.36312,0.3012 -1.12086,1.013988 -2.42404,1.164248 -2.49809,1.242368 -2.56901,2.709676 l -0.0623,1.288986 -0.92494,-0.0447 -0.92508,-0.0447 -0.11496,2.378404 -0.11498,2.378546 -0.925,-0.0448 -0.92495,-0.0447 -0.11497,2.378386 -0.11507,2.378496 -1.18922,-0.0575 -1.18923,-0.0575 -0.11419,2.360826 -0.11409,2.360954 -0.73083,0.0485 c -0.71373,0.0474 -0.73889,0.10198 -1.08092,2.349386 l -0.35015,2.300856 -0.76615,-0.0371 c -0.62447,-0.0302 -0.84518,0.12904 -1.19341,0.860908 -0.23505,0.49393 -0.45584,1.488508 -0.49055,2.210326 -0.0598,1.235148 -0.10652,1.315088 -0.79431,1.360758 -0.72412,0.0481 -0.73243,0.0684 -0.91308,2.2250662 l -0.18207,2.1765562 -0.91433,-0.0443 -0.91422,-0.0442 -0.1214,2.5105562 -0.12145,2.5106442 -1.05702,-0.0512 -1.05714,-0.0511 -0.11496,2.37838628 -0.11503,2.37853612 -1.18919,-0.0575 -1.18931,-0.0575 -0.10865,2.2462262 -0.10856,2.2463763 -0.79287,-0.0384 -0.7928,-0.0383 -0.11496,2.3784162 -0.11511,2.3785041 -0.76189,-0.0368 c -0.92991,-0.045 -1.09999,0.3756 -1.2345,3.052756 l -0.0966,1.915736 -0.79278,-0.0383 -0.79292,-0.0383 -0.11494,2.378406 c -0.11418,2.360834 -0.12005,2.378284 -0.77569,2.346564 -0.65837,-0.0318 -0.66111,-0.0229 -0.78212,2.478636 l -0.12132,2.510606 -1.04682,-0.0506 -1.04682,-0.0506 -0.18822,2.308706 -0.1882,2.308616 -1.25921,0.0198 -1.25923,0.0198 -0.47849,9.895822 c -0.46993,9.719632 -0.48744,9.895402 -1.00704,9.870252 -0.48935,-0.0236 -0.53702,0.15067 -0.64348,2.352906 l -0.1151,2.378456 -0.92493,-0.0448 -0.92497,-0.0447 -0.12132,2.510624 -0.12144,2.510576 -0.92496,-0.0447 -0.92494,-0.0447 -0.0703,1.453468 c -0.0476,0.984518 0.0363,1.459946 0.25989,1.473526 0.22815,0.0138 0.20879,0.0887 -0.0631,0.24281 -0.29528,0.16739 -0.45951,1.014238 -0.66127,3.407574 -0.26463,3.145294 -0.27571,3.184324 -0.89612,3.154294 -0.61723,-0.0298 -0.63016,0.0132 -0.74945,2.480236 l -0.12142,2.510674 -1.05705,-0.0512 -1.05712,-0.0511 -0.10865,2.246356 -0.10866,2.246336 -0.87665,-0.0425 c -0.82769,-0.04 -0.90536,0.0352 -1.38955,1.346828 -0.28185,0.764078 -0.53105,1.765176 -0.55386,2.224696 -0.0225,0.459548 -0.16197,0.829798 -0.31117,0.822538 -0.14897,-0.007 -0.41288,0.30783 -0.58656,0.700128 -0.54765,1.237088 -1.7708,5.59135 -2.18261,7.769472 -0.62548,3.311874 -1.9344,7.860886 -3.19514,11.108886 -0.63843,1.64455 -1.25088,3.31661 -1.36101,3.7156 -0.10975,0.39917 -0.61513,1.14943 -1.12215,1.66764 -1.63232,1.66816 -1.63811,2.45945 -0.0219,2.97957 0.59288,0.19098 1.00881,0.48807 0.99792,0.71338 -0.0143,0.30138 -0.41813,0.36686 -1.8363,0.29834 -1.16107,-0.0562 -1.92558,0.0302 -2.1167,0.23911 -0.53715,0.58706 -4.82002,10.62865 -5.44781,12.7721 -0.45049,1.53855 -0.66112,3.04686 -0.78933,5.72322 -0.14961,3.05295 -0.24086,3.63059 -0.57394,3.6145 -0.21809,-0.01 -0.40771,0.21455 -0.42148,0.50022 -0.0572,1.18121 -2.63912,3.0602 -4.10759,2.98929 -0.2944,-0.0143 -1.02174,0.15754 -1.61636,0.38166 l -1.08107,0.40752 -0.11201,2.31619 -0.11199,2.31608 -0.79275,-0.0383 -0.79288,-0.0383 -0.11501,2.37842 c -0.11416,2.36083 -0.12002,2.37819 -0.77567,2.34656 -0.65838,-0.0319 -0.66109,-0.0228 -0.7821,2.47866 -0.12086,2.50181 -0.12337,2.51059 -0.78205,2.47871 -0.65581,-0.0317 -0.66159,-0.0143 -0.77565,2.3465 -0.11419,2.36081 -0.12002,2.37814 -0.77569,2.34655 l -0.66071,-0.032 -0.12776,2.64273 -0.12776,2.64276 -0.79286,-0.0384 -0.79278,-0.0384 -0.11505,2.37842 -0.11503,2.37847 -0.67952,-0.0329 c -1.12868,-0.0546 -1.46168,0.49011 -1.56154,2.55452 -0.0878,1.81715 -0.10859,1.8679 -0.75093,1.83686 l -0.6607,-0.032 -0.12778,2.64273 -0.12773,2.64276 -0.7929,-0.0383 -0.7928,-0.0383 -0.11505,2.37841 -0.11499,2.37853 -0.79934,-0.0387 c -1.00693,-0.0487 -1.34914,0.64485 -1.46114,2.96199 -0.0699,1.44741 -0.1519,1.68472 -0.61596,1.78243 -0.29432,0.062 -0.54698,0.33186 -0.56133,0.59973 -0.0143,0.26789 -0.35393,1.11051 -0.75439,1.87245 -0.40054,0.76193 -0.82141,1.87408 -0.93523,2.4713 -0.27617,1.4464 -0.76454,2.78077 -1.01453,2.76858 -0.25448,-0.0127 -0.8784,1.73781 -1.24137,3.48256 -0.32488,1.57011 -0.11339,2.42845 0.67502,2.72132 0.44685,0.1624 0.48778,0.25807 0.19326,0.42526 -0.20702,0.11756 -0.67987,0.2009 -1.05059,0.18526 -0.97872,-0.0413 -1.29199,0.37302 -1.18966,1.57407 0.0812,0.9529 -0.006,1.13268 -0.91436,1.88749 -0.55228,0.45892 -1.01573,1.05603 -1.02979,1.32715 -0.0139,0.27109 -0.27923,0.83812 -0.58896,1.26022 -0.38173,0.5199 -0.58555,1.2151 -0.63228,2.15484 l -0.0691,1.38732 -0.92497,-0.0447 -0.92496,-0.0448 -0.11497,2.37854 -0.11499,2.37841 -0.79292,-0.0383 -0.79275,-0.0383 -0.12141,2.51059 -0.1214,2.51055 -0.8941,-0.0432 c -1.06953,-0.0516 -1.22785,0.28768 -1.36024,2.91429 l -0.0902,1.78371 -1.05709,-0.0512 -1.05707,-0.0511 -0.11509,2.3785 -0.11498,2.37842 -1.05706,-0.0511 -1.0571,-0.0512 -0.11499,2.37852 -0.11498,2.37842 -1.05712,-0.0511 -1.05717,-0.0511 -0.10854,2.2463 c -0.10743,2.21998 -0.11664,2.24599 -0.76922,2.21443 -0.65838,-0.0319 -0.66119,-0.023 -0.78214,2.4787 l -0.1214,2.51058 -1.05715,-0.0511 -1.05705,-0.0512 -0.11498,2.37853 -0.11507,2.37839 -0.92495,-0.0446 -0.92497,-0.0448 -0.10892,2.25296 -0.10892,2.25296 -0.80046,0.12014 -0.80049,0.12028 -0.11346,2.34546 -0.11331,2.3454 -0.92497,-0.0447 -0.92493,-0.0448 -0.11513,2.37849 -0.11498,2.37842 -1.18919,-0.0575 -1.18922,-0.0575 -0.10867,2.24634 -0.10864,2.24634 -1.45346,-0.0703 -1.45347,-0.0703 -0.10866,2.24634 -0.10864,2.24625 -1.84991,-0.0894 -1.84989,-0.0894 -0.0894,1.84996 -0.0894,1.84987 -1.01778,-0.0492 -1.01779,-0.0492 -0.35654,3.63557 c -0.40362,4.11446 -0.2479,8.10788 0.37358,9.58523 0.95437,2.26857 -0.878,13.92109 -3.03367,19.29309 -0.55258,1.37692 -0.88862,2.61382 -0.84124,3.09735 0.0612,0.62679 -0.0625,0.88802 -0.55908,1.18012 -0.53329,0.31363 -0.64859,0.60032 -0.70405,1.75031 -0.10377,2.14545 -0.86862,3.98638 -2.11969,5.09903 l -1.08745,0.9675 -0.15739,3.25513 c -0.18074,3.73694 0.0101,4.30643 1.56912,4.6832 l 0.97439,0.23551 -1.30561,0.27014 c -0.71807,0.1486 -1.42575,0.37929 -1.57274,0.51272 -0.52769,0.47897 -0.11397,1.24266 0.99942,1.84488 l 1.13238,0.61243 -1.64594,0.10605 c -1.10982,0.0715 -1.79212,0.2609 -2.09463,0.58139 -0.24665,0.26146 -1.08946,2.09144 -1.87281,4.06663 -0.78329,1.97522 -1.91622,4.68589 -2.51754,6.02368 -0.70407,1.56604 -1.17837,3.0729 -1.33205,4.23067 -0.22429,1.68992 -0.40064,2.08184 -1.64745,3.66097 -0.82109,1.03999 -1.41048,5.79937 -1.27511,10.29643 0.12592,4.18172 0.55258,6.41227 1.31394,6.86831 0.75942,0.45496 7.39068,1.09797 10.54169,1.02222 1.53154,-0.0368 2.80429,-0.0769 2.82823,-0.0891 0.024,-0.0122 0.31767,-0.51552 0.65252,-1.11848 0.33483,-0.60304 1.48626,-2.00757 2.55869,-3.12131 3.00424,-3.11948 4.13965,-5.49673 5.17714,-10.83922 0.14028,-0.72433 0.56086,-1.36726 1.47058,-2.25021 0.81938,-0.79525 1.29545,-1.48985 1.33469,-1.94755 0.0507,-0.58671 0.21743,-0.73546 0.95315,-0.84907 0.49065,-0.0758 1.02189,-0.25557 1.18057,-0.39958 0.15865,-0.14401 0.42877,-1.2627 0.60042,-2.48589 0.30734,-2.1938 0.72311,-3.32368 1.21478,-3.29987 0.13823,0.007 0.43245,-0.36653 0.6538,-0.82931 0.2213,-0.46278 1.13149,-1.64057 2.02264,-2.61737 0.89111,-0.97671 1.98921,-2.48756 2.44011,-3.35733 0.76059,-1.46723 1.34394,-2.05894 3.15937,-3.20527 0.38511,-0.24313 0.71156,-0.67882 0.72561,-0.96814 0.0138,-0.2894 0.58571,-1.02031 1.27059,-1.62438 0.71607,-0.6317 1.25681,-1.34026 1.27269,-1.66776 0.0496,-1.02682 0.53985,-1.49172 1.70813,-1.62118 2.31036,-0.25578 7.00176,-3.206 7.06148,-4.4407 0.0105,-0.22641 0.39466,-0.7675 0.85279,-1.20269 0.50503,-0.47974 0.84652,-1.07249 0.86751,-1.50548 0.0639,-1.3234 0.64518,-2.34546 1.40409,-2.46873 1.4789,-0.24032 1.92256,-0.56687 2.74881,-2.02293 0.4656,-0.82052 1.10828,-1.70624 1.42825,-1.96835 0.32,-0.26207 0.58714,-0.58544 0.59359,-0.71863 0.006,-0.13335 0.19873,-0.41199 0.42729,-0.6195 0.30359,-0.27561 0.4446,-0.97703 0.52353,-2.60458 l 0.10767,-2.22751 1.05717,0.0511 1.05702,0.0511 0.10865,-2.24633 0.10863,-2.24635 0.79279,0.0383 0.79286,0.0383 0.10863,-2.24632 c 0.10009,-2.07013 0.15004,-2.24433 0.63707,-2.22081 0.48916,0.0238 0.53711,-0.15062 0.64277,-2.3351 0.10293,-2.12856 0.16683,-2.37462 0.65078,-2.50286 0.48394,-0.12825 0.54786,-0.37431 0.65078,-2.50294 0.11329,-2.34181 0.11919,-2.36041 0.77484,-2.32868 0.65839,0.0319 0.66118,0.023 0.78211,-2.47862 0.0994,-2.05545 0.19328,-2.50712 0.51767,-2.49149 0.32457,0.0159 0.41847,-0.43592 0.51766,-2.49151 l 0.12132,-2.51058 0.79287,0.0384 0.79278,0.0384 0.24282,-5.02125 0.24278,-5.02127 1.05712,0.0511 1.05712,0.0512 0.10856,-2.24635 0.10865,-2.24626 1.32139,0.0639 1.32129,0.0639 0.10864,-2.24637 0.10864,-2.24634 1.18925,0.0575 1.1892,0.0575 0.11498,-2.37841 0.11506,-2.3785 1.32142,0.0639 c 1.23323,0.0596 1.32343,0.0199 1.35332,-0.59682 0.0238,-0.48994 -0.10811,-0.66744 -0.51011,-0.68689 -0.36974,-0.0177 -0.65093,-0.32584 -0.88374,-0.96981 -0.18809,-0.519 -0.57092,-1.10254 -0.85094,-1.29685 -0.28008,-0.19436 -0.50565,-0.42661 -0.50132,-0.51633 0.005,-0.0898 0.74666,-0.20432 1.6496,-0.25477 2.92556,-0.16357 3.69893,-1.23092 2.07743,-2.86713 -0.73109,-0.73761 -0.87511,-1.07689 -0.83231,-1.96062 0.0527,-1.09014 0.68624,-1.98848 1.24161,-1.76063 0.17076,0.0727 0.2429,0.57619 0.17071,1.21206 -0.0926,0.81657 -0.026,1.09604 0.26471,1.11003 1.59739,0.0772 7.23678,-8.71861 7.82371,-12.20283 0.16237,-0.9614 0.43189,-1.50382 1.00918,-2.02788 1.12044,-1.01703 1.34871,-1.49373 1.41983,-2.96434 0.0802,-1.65886 -0.29221,-2.91857 -0.93293,-3.15657 -0.87041,-0.32694 -0.27643,-0.59891 1.38101,-0.63846 0.87957,-0.0212 1.74687,-0.17219 1.92721,-0.33587 0.52998,-0.48122 0.43208,-2.12854 -0.16326,-2.73933 -0.78455,-0.80514 -0.57483,-3.1735 0.27738,-3.13228 0.69138,0.0334 2.21834,-1.47056 3.12776,-3.08048 0.50473,-0.89344 1.41419,-3.23207 2.02101,-5.19685 1.74542,-5.65058 3.88466,-10.48347 5.01725,-11.33456 0.23423,-0.176 0.65853,-0.22875 0.95448,-0.11879 0.4942,0.1796 0.53819,0.089 0.60302,-1.25138 0.0447,-0.92453 0.19163,-1.48336 0.40529,-1.54344 0.22647,-0.0635 0.40401,-0.88153 0.54687,-2.51191 0.1606,-1.85328 0.29595,-2.41382 0.58004,-2.40007 0.20348,0.0103 0.37868,-0.16049 0.38925,-0.37862 0.0117,-0.2466 0.26876,-0.38423 0.6799,-0.36444 0.62783,0.0304 0.66449,-0.0436 0.73703,-1.48744 0.0434,-0.83558 0.17162,-1.96191 0.28814,-2.50264 0.18582,-0.87013 0.29902,-0.9788 0.96994,-0.94636 l 0.75826,0.0367 0.1214,-2.51056 0.12137,-2.51071 0.92495,0.0448 0.92494,0.0447 0.10864,-2.2463 c 0.0639,-1.32143 0.21746,-2.24107 0.3729,-2.23355 0.16579,0.008 0.34432,-1.66113 0.48153,-4.47988 l 0.2172,-4.49269 0.79278,0.0383 0.79286,0.0384 0.12143,-2.51069 c 0.0994,-2.05538 0.19331,-2.50707 0.51764,-2.49136 0.32454,0.0159 0.41839,-0.436 0.51768,-2.49154 l 0.12133,-2.51057 1.18919,0.0575 1.18935,0.0575 0.10854,-2.24623 0.10863,-2.24638 1.05713,0.0512 1.05702,0.0511 0.11511,-2.37853 0.11498,-2.37842 1.45346,0.0703 1.45349,0.0702 0.10145,-2.09822 0.10146,-2.09831 0.96774,-0.0353 0.96784,-0.0354 1.49143,-5.09329 c 0.82022,-2.8013 2.14589,-7.0881 2.94561,-9.52616 0.7998,-2.43806 1.56135,-5.11961 1.69225,-5.95906 0.21994,-1.40808 0.1947,-1.53966 -0.32253,-1.70204 -0.69621,-0.21892 -0.69429,-0.43584 0.01,-1.01365 0.40073,-0.32879 0.568,-0.78842 0.61107,-1.67855 0.0557,-1.15465 0.10966,-1.23797 0.92986,-1.43713 0.4787,-0.11619 0.91749,-0.41032 0.97496,-0.65353 0.15665,-0.66212 -0.81836,-1.579 -1.72528,-1.62285 -0.96599,-0.0467 -1.02484,-0.4586 -0.0923,-0.64531 0.37281,-0.0747 0.83403,-0.43875 1.0249,-0.80911 0.31753,-0.61622 0.27424,-0.74041 -0.50261,-1.45557 l -0.84961,-0.78196 1.03295,-0.11291 c 3.17533,-0.34705 3.45408,-0.6613 2.49346,-2.81185 -0.65904,-1.47568 -0.66988,-1.5853 -0.25763,-2.61411 0.3131,-0.78096 0.59646,-1.08934 1.0392,-1.13039 0.53353,-0.0496 0.5836,0.0262 0.40508,0.61563 -0.27148,0.89771 0.2075,0.90092 1.75422,0.0122 1.68751,-0.96959 2.20079,-1.56894 2.69893,-3.15106 0.7118,-2.26106 1.81619,-9.164618 2.38683,-14.920702 0.77263,-7.792166 1.83343,-12.831126 3.00247,-14.260174 1.11937,-1.368788 2.46089,-4.010903 2.65963,-5.238431 0.17497,-1.077908 0.27952,-1.208818 1.23583,-1.538788 1.28723,-0.444198 3.16003,-2.326804 3.57314,-3.591752 0.16892,-0.51782 0.56579,-1.319228 0.88101,-1.781028 0.31547,-0.461718 0.58791,-1.134036 0.60529,-1.493916 0.0251,-0.51027 0.16797,-0.6477 0.65204,-0.62423 0.41313,0.02 1.14433,-0.468598 2.18837,-1.462287 1.73019,-1.646828 2.14304,-2.369066 2.21596,-3.876384 0.0581,-1.202646 0.29859,-1.321096 2.46449,-1.216406 l 1.56398,0.0755 0.0959,-1.982098 0.0959,-1.982026 1.05704,0.0511 1.05714,0.0511 0.10854,-2.246366 0.10862,-2.246256 1.18925,0.0575 c 1.01308,0.049 1.19305,-0.0208 1.21486,-0.471038 0.014,-0.29071 0.14439,-0.52278 0.28985,-0.51583 0.14908,0.007 0.30039,-0.735948 0.34765,-1.704906 0.08,-1.656118 0.10676,-1.716618 0.74372,-1.685858 0.55785,0.027 0.66666,-0.0913 0.699,-0.760818 0.0259,-0.528478 0.16806,-0.787008 0.4348,-0.773618 0.30822,0.0152 0.41354,-0.33323 0.47311,-1.566558 0.0426,-0.880888 0.19408,-1.579966 0.33611,-1.573836 0.14531,0.007 0.28158,-0.34401 0.3026,-0.78008 0.034,-0.704708 0.12647,-0.788508 0.8311,-0.754518 l 0.79288,0.0384 0.12132,-2.510606 0.12142,-2.510706 0.92497,0.0448 0.92494,0.0448 0.12142,-2.510656 0.12144,-2.510576 0.91461,0.0442 0.91475,0.0442 0.18822,-2.308724 0.18803,-2.308686 0.99505,-0.0341 0.99498,-0.0341 0.1079,-2.230326 0.10777,-2.230355 0.79288,0.0382 0.79278,0.0384 0.12142,-2.510586 0.12133,-2.510594 1.18931,0.0575 1.18921,0.0575 0.10867,-2.2463462 c 0.10728,-2.2198764 0.11651,-2.2459164 0.76925,-2.2144064 0.62464,0.0302 0.66454,-0.0473 0.73091,-1.4215681 0.0618,-1.2772681 0.13437,-1.4503881 0.59894,-1.4279081 0.49138,0.0238 0.537,-0.15064 0.64992,-2.48503422 l 0.12133,-2.51060628 0.79291,0.0383 0.79278,0.0384 0.11495,-2.3784361 c 0.0937,-1.9380062 0.18847,-2.3749264 0.51415,-2.3586963 0.31091,0.0151 0.41198,-0.3371781 0.46854,-1.6329562 l 0.0718,-1.6520881 -0.82672,0.82507 c -0.55545,0.5542381 -0.84169,1.1057381 -0.87225,1.6796162 -0.07,1.3233282 -0.46479,1.6850662 -0.80461,0.737648 -0.15626,-0.435548 -0.56694,-0.937668 -0.91276,-1.1158781 -0.89333,-0.460458 -0.75296,-1.2082861 0.53078,-2.8301141 0.65203,-0.823338 1.20103,-1.848816 1.33722,-2.497616 0.12921,-0.605028 0.52839,-1.503636 0.89184,-1.995896 0.40313,-0.546068 0.76282,-1.510196 0.92198,-2.471934 0.14328,-0.86727 0.57721,-2.243166 0.96279,-3.057966 0.87464,-1.846416 0.87789,-1.954066 0.0783,-2.648054 l -0.65244,-0.56624 0.62705,-0.279158 c 0.50924,-0.22662 0.62014,-0.45665 0.59023,-1.223988 -0.0319,-0.819708 0.0637,-0.981778 0.72146,-1.223998 0.41707,-0.15354 1.0991,-0.54954 1.51571,-0.880038 0.68176,-0.54078 0.7659,-0.773848 0.84074,-2.331416 0.0752,-1.554258 0.13752,-1.727896 0.61209,-1.704956 0.4914,0.0238 0.53703,-0.15067 0.64995,-2.485066 l 0.12132,-2.510564 1.18931,0.0575 1.18922,0.0575 0.11501,-2.378486 0.11495,-2.378444 1.32141,0.0639 1.32138,0.0639 0.10856,-2.246365 0.10865,-2.246386 1.54526,0.0747 1.54527,0.0748 0.31507,-2.964866 c 0.17328,-1.630636 0.62754,-9.41634 1.00949,-17.301576 l 0.69318,-14.336812 0.79289,0.0383 0.792778,0.0382 0.1214,-2.510546 0.12141,-2.510604 0.792768,0.0384 0.792918,0.0382 0.12132,-2.510586 0.1214,-2.510566 1.585636,0.0767 1.585678,0.0766 0.0959,-1.982006 0.0957,-1.982056 2.114306,0.10217 2.114146,0.10224 0.0767,-1.585628 0.0766,-1.585628 2.246256,0.1086 2.246476,0.10862 0.0511,-1.057108 0.0511,-1.057098 2.109076,0.102 c 1.969868,0.0952 2.120276,0.0632 2.277206,-0.485958 0.0927,-0.32329 0.4554,-1.706308 0.80627,-3.073408 0.351258,-1.36706 0.868098,-3.35378 1.148946,-4.41473 0.28078,-1.06101 0.50911,-2.45955 0.50668,-3.10792 -0.003,-1.04479 0.0955,-1.2493 0.871228,-1.79798 0.75071,-0.53127 0.883178,-0.78667 0.932128,-1.79777 0.0313,-0.64826 0.25794,-1.60048 0.50309,-2.1163 0.24534,-0.51573 0.39092,-0.99854 0.32319,-1.0729 -0.0679,-0.0747 0.384538,-0.68476 1.004448,-1.35656 0.619948,-0.67165 1.258186,-1.60662 1.418296,-2.07756 0.42054,-1.23736 0.72749,-9.11909 0.39996,-10.25821 -0.20397,-0.70844 -0.47948,-1.01275 -1.117398,-1.23458 -1.151268,-0.40029 -1.049048,-0.72443 0.20919,-0.6635 0.569648,0.0276 1.230608,-0.0141 1.468836,-0.0925 0.55215,-0.18188 0.94997,-0.86674 0.80562,-1.38685 z M -190.0042,-48.923006 c -0.26423,-0.013 -0.40921,0.245088 -0.43479,0.773608 -0.0259,0.52849 0.0939,0.799188 0.35811,0.811978 0.26423,0.013 0.40922,-0.24507 0.43478,-0.773598 0.0259,-0.52847 -0.0938,-0.799268 -0.35811,-0.811998 z m -2.1599,5.26465 c -0.0798,0.25379 -0.0926,0.610768 -0.0284,0.793328 0.0638,0.18235 0.12888,-0.0256 0.14459,-0.46163 0.0165,-0.436258 -0.0364,-0.585538 -0.11591,-0.331728 z"
       id="path881-5-6"
       inkscape:connector-curvature="0" />
  </g>
</svg>
